<svg xmlns="http://www.w3.org/2000/svg" width="62.251" height="59.991" viewBox="0 0 62.251 59.991"><g transform="translate(-651.875 -1834.505)"><path d="M25.958-2.435c16.762,0,34.926,4.6,34.926,21.367s-4.81,38.624-21.572,38.624S-1.367,53.568-1.367,36.806,9.2-2.435,25.958-2.435Z" transform="translate(653.242 1836.94)" fill="#ede7e4"/><path d="M27.923,4.73A16.132,16.132,0,0,0,2.538,24.191L.25,32.548,8.8,30.306a16.111,16.111,0,0,0,7.707,1.963h.007A16.136,16.136,0,0,0,27.923,4.73ZM16.514,29.545h-.006a13.389,13.389,0,0,1-6.823-1.869L9.2,27.386,4.122,28.717,5.477,23.77l-.319-.507a13.405,13.405,0,1,1,11.356,6.282ZM23.867,19.5c-.4-.2-2.384-1.176-2.754-1.311s-.638-.2-.906.2-1.041,1.311-1.276,1.58-.47.3-.873.1a11.007,11.007,0,0,1-3.241-2,12.156,12.156,0,0,1-2.242-2.792c-.235-.4,0-.6.177-.822a11.4,11.4,0,0,0,1.007-1.379.741.741,0,0,0-.034-.706c-.1-.2-.906-2.185-1.242-2.992-.327-.786-.659-.679-.907-.692s-.5-.014-.772-.014a1.48,1.48,0,0,0-1.075.5,4.52,4.52,0,0,0-1.41,3.362,7.84,7.84,0,0,0,1.646,4.169c.2.269,2.842,4.34,6.884,6.085a23.067,23.067,0,0,0,2.3.849,5.525,5.525,0,0,0,2.538.16,4.152,4.152,0,0,0,2.72-1.916,3.367,3.367,0,0,0,.235-1.916c-.1-.168-.369-.269-.772-.471Zm0,0" transform="translate(666.625 1848.505)" fill="#937a69" fill-rule="evenodd"/></g></svg>