<svg xmlns="http://www.w3.org/2000/svg" width="62.251" height="59.991" viewBox="0 0 62.251 59.991"><g transform="translate(-652 -2123)"><path d="M25.958-2.435c16.762,0,34.926,4.6,34.926,21.367s-4.81,38.624-21.572,38.624S-1.367,53.568-1.367,36.806,9.2-2.435,25.958-2.435Z" transform="translate(653.367 2125.435)" fill="#ede7e4"/><g transform="translate(668 2138)"><circle cx="0.593" cy="0.593" r="0.593" transform="translate(16.612 10.771)" fill="#937a69"/><circle cx="0.593" cy="0.593" r="0.593" transform="translate(13.055 10.771)" fill="#937a69"/><path d="M49.213,64.721A4.236,4.236,0,0,0,46,68.836v4.8a.606.606,0,0,0,.606.606H70.845a.606.606,0,0,0,.606-.606v-4.8a4.236,4.236,0,0,0-3.213-4.115L66.6,64.312V53.878a7.8,7.8,0,0,0-.845-3.553.606.606,0,1,0-1.081.547,6.579,6.579,0,0,1,.708,2.722,2.409,2.409,0,0,0-1.206-.322h-.1a1.821,1.821,0,0,0-1.714-1.212H61.149a1.82,1.82,0,0,1-1.818-1.818.606.606,0,0,0-1.212,0A1.82,1.82,0,0,1,56.3,52.06H55.09a1.821,1.821,0,0,0-1.714,1.212h-.1a2.408,2.408,0,0,0-1.206.322,6.67,6.67,0,0,1,8.947-5.979.606.606,0,0,0,.416-1.138,7.882,7.882,0,0,0-10.581,7.4V64.312Zm-2,4.115a3.026,3.026,0,0,1,2.3-2.94l3.933-.983,2.08,8.113H52.06V70.845a.606.606,0,1,0-1.212,0v2.182H47.212Zm9.237-4.675a.606.606,0,0,0,.459-.588v-.921a5.259,5.259,0,0,0,1.819.315,5.44,5.44,0,0,0,1.817-.311v.917a.606.606,0,0,0,.459.588l1.832.458-.819,3.2h-6.58l-.819-3.2Zm.323,8.865-1.025-4H61.7l-1.025,4Zm13.467-4.19v4.19H66.6V70.845a.606.606,0,1,0-1.212,0v2.182H61.93l2.08-8.113,3.933.983A3.026,3.026,0,0,1,70.239,68.836ZM61.755,63.1V62.049a5.479,5.479,0,0,0,2.389-3.929h.035a2.408,2.408,0,0,0,1.212-.326v6.216Zm3.636-7.4a1.213,1.213,0,0,1-1.212,1.212V54.484A1.213,1.213,0,0,1,65.391,55.7Zm-10.3-2.424H56.3a3.027,3.027,0,0,0,2.424-1.214,3.027,3.027,0,0,0,2.424,1.214h1.212a.607.607,0,0,1,.606.606v3.636a4.244,4.244,0,0,1-4.242,4.242,4.347,4.347,0,0,1-4.242-4.45V53.878A.607.607,0,0,1,55.09,53.272Zm-1.818,1.212v2.424a1.212,1.212,0,0,1,0-2.424Zm-1.212,3.31a2.408,2.408,0,0,0,1.212.326h.058a5.733,5.733,0,0,0,2.366,3.9V63.1l-3.636.909Z" transform="translate(-43.213 -43.213)" fill="#937a69"/><path d="M209.03,210.848a3.033,3.033,0,0,0,3.03-3.03v-1.212a.606.606,0,0,0-.606-.606h-4.848a.606.606,0,0,0-.606.606v1.212A3.033,3.033,0,0,0,209.03,210.848Zm-1.818-3.636h3.636v.606a1.818,1.818,0,0,1-3.636,0Z" transform="translate(-193.517 -193.517)" fill="#937a69"/><path d="M.607,4.848h.606V10.3a.606.606,0,0,0,.606.606H4.242a.606.606,0,0,0,.606-.606V4.848h.606a.606.606,0,0,0,.5-.942L3.535.27a.606.606,0,0,0-1.008,0L.1,3.906a.606.606,0,0,0,.5.942ZM3.03,1.7,4.322,3.636h-.08a.606.606,0,0,0-.606.606V9.7H2.424V4.242a.606.606,0,0,0-.606-.606h-.08Z" transform="translate(-0.001 0)" fill="#937a69"/><path d="M412.607,4.848h.606V10.3a.606.606,0,0,0,.606.606h2.424a.606.606,0,0,0,.606-.606V4.848h.606a.606.606,0,0,0,.5-.942L415.535.27a.606.606,0,0,0-1.008,0L412.1,3.906a.606.606,0,0,0,.5.942ZM415.03,1.7l1.292,1.937h-.08a.606.606,0,0,0-.606.606V9.7h-1.212V4.242a.606.606,0,0,0-.606-.606h-.08Z" transform="translate(-387.034 0)" fill="#937a69"/><ellipse cx="0.296" cy="0.889" rx="0.296" ry="0.889" transform="translate(20.168 4.251)" fill="#937a69"/></g></g></svg>