<svg xmlns="http://www.w3.org/2000/svg" width="62.251" height="59.991" viewBox="0 0 62.251 59.991"><g transform="translate(-652 -2220)"><path d="M25.958-2.435c16.762,0,34.926,4.6,34.926,21.367s-4.81,38.624-21.572,38.624S-1.367,53.568-1.367,36.806,9.2-2.435,25.958-2.435Z" transform="translate(653.367 2222.435)" fill="#ede7e4"/><g transform="translate(670 2237.001)"><path d="M10.972,22.4A9.984,9.984,0,0,1,1,12.432V8.554A.554.554,0,0,1,1.554,8H20.389a.554.554,0,0,1,.554.554v3.878A9.984,9.984,0,0,1,10.972,22.4ZM2.108,9.108v3.324a8.864,8.864,0,1,0,17.728,0V9.108Z" transform="translate(0.108 0.864)" fill="#937a69" stroke="#937a69" stroke-width="0.5"/><path d="M20.909,17.756H17.263a.554.554,0,0,1,0-1.108h3.646a2.77,2.77,0,1,0,0-5.54H18.693a.554.554,0,1,1,0-1.108h2.216a3.878,3.878,0,1,1,0,7.756Z" transform="translate(1.804 1.08)" fill="#937a69" stroke="#937a69" stroke-width="0.5"/><path d="M7.292,6.648a.554.554,0,0,1-.326-1,1.016,1.016,0,0,0,.5-.89,1.245,1.245,0,0,0-.792-.933A2.308,2.308,0,0,1,5.257,1.99,2.1,2.1,0,0,1,6.208.105a.554.554,0,0,1,.649.9,1.017,1.017,0,0,0-.5.89,1.245,1.245,0,0,0,.792.933A2.308,2.308,0,0,1,8.566,4.658a2.1,2.1,0,0,1-.951,1.886.557.557,0,0,1-.324.1Z" transform="translate(0.567 0)" fill="#937a69" stroke="#937a69" stroke-width="0.5"/><path d="M12.042,6.648a.554.554,0,0,1-.326-1,1.016,1.016,0,0,0,.5-.89,1.245,1.245,0,0,0-.792-.933A2.308,2.308,0,0,1,10.007,1.99,2.1,2.1,0,0,1,10.957.1a.554.554,0,1,1,.649.9,1.016,1.016,0,0,0-.5.89,1.245,1.245,0,0,0,.792.933,2.308,2.308,0,0,1,1.414,1.833,2.1,2.1,0,0,1-.951,1.886A.55.55,0,0,1,12.042,6.648Z" transform="translate(1.08 0)" fill="#937a69" stroke="#937a69" stroke-width="0.5"/><path d="M19.389,24.432H2.77A2.774,2.774,0,0,1,0,21.662V20.554A.554.554,0,0,1,.554,20H21.605a.554.554,0,0,1,.554.554v1.108A2.774,2.774,0,0,1,19.389,24.432ZM1.108,21.108v.554A1.664,1.664,0,0,0,2.77,23.324h16.62a1.664,1.664,0,0,0,1.662-1.662v-.554Z" transform="translate(0 2.16)" fill="#937a69" stroke="#937a69" stroke-width="0.5"/></g></g></svg>