<svg xmlns="http://www.w3.org/2000/svg" width="162.329" height="121.854" viewBox="0 0 162.329 121.854"><g transform="translate(-1345 -3241)"><g transform="translate(1394.31 3243)"><path d="M27,12h3.546a14.182,14.182,0,1,1,0,28.365H27" transform="translate(29.73 12.819)" fill="none" stroke="#474747" stroke-linecap="round" stroke-linejoin="round" stroke-width="4"/><path d="M3,12H59.73V43.911A14.182,14.182,0,0,1,45.547,58.093H17.182A14.182,14.182,0,0,1,3,43.911Z" transform="translate(-3 12.819)" fill="none" stroke="#474747" stroke-linecap="round" stroke-linejoin="round" stroke-width="4"/><path d="M9,1.5V12.137" transform="translate(5.182 -1.5)" fill="none" stroke="#474747" stroke-linecap="round" stroke-linejoin="round" stroke-width="4"/><path d="M15,1.5V12.137" transform="translate(13.365 -1.5)" fill="none" stroke="#474747" stroke-linecap="round" stroke-linejoin="round" stroke-width="4"/><path d="M21,1.5V12.137" transform="translate(21.547 -1.5)" fill="none" stroke="#474747" stroke-linecap="round" stroke-linejoin="round" stroke-width="4"/></g><g transform="translate(1345 3351.729)"><path d="M574.259,2605.214c-10.144,0-10.144-9.625-20.288-9.625s-10.145,9.625-20.288,9.625-10.145-9.625-20.291-9.625-10.146,9.625-20.291,9.625-10.145-9.625-20.29-9.625-10.146,9.625-20.292,9.625-10.147-9.625-20.294-9.625-10.148,9.625-20.294,9.625" transform="translate(-411.93 -2595.589)" fill="none" stroke="#474747" stroke-miterlimit="10" stroke-width="3"/></g></g></svg>