<svg xmlns="http://www.w3.org/2000/svg" width="73.938" height="71.835" viewBox="0 0 73.938 71.835"><g transform="translate(-403 -4378.553)"><path d="M530.486,1153.955c25.672,6.007,50.346-12.108,48.6-39.628-.5-7.783-3.525-15.576-9.232-20.891-9.491-8.841-24.505-11.84-36.992-9.289-16.052,3.279-24.388,17.011-27.046,32.469-1.417,8.247-.332,17.154,4.289,24.129a31.809,31.809,0,0,0,17.02,12.283Q528.8,1153.563,530.486,1153.955Z" transform="translate(-102.232 3295.281)" fill="#b16063"/><path d="M45.016,15.322,42.175,12.4a.611.611,0,0,0-.452-.194h0a.586.586,0,0,0-.452.194l-19.7,19.842-7.168-7.168a.624.624,0,0,0-.9,0l-2.874,2.874a.643.643,0,0,0,0,.92l9.041,9.041a2.859,2.859,0,0,0,1.889.92,3,3,0,0,0,1.873-.888h.016l21.585-21.7A.69.69,0,0,0,45.016,15.322Z" transform="translate(412.339 4388.039)" fill="#eae4e1"/></g></svg>