<svg xmlns="http://www.w3.org/2000/svg" width="161" height="127.219" viewBox="0 0 161 127.219"><g transform="translate(-897 -2252.19)"><g transform="translate(897 2368.364)"><path d="M572.93,2605.135c-10.061,0-10.061-9.546-20.122-9.546s-10.062,9.546-20.122,9.546-10.062-9.546-20.125-9.546-10.063,9.546-20.125,9.546-10.062-9.546-20.124-9.546-10.063,9.546-20.126,9.546-10.064-9.546-20.128-9.546-10.064,9.546-20.128,9.546" transform="translate(-411.93 -2595.589)" fill="none" stroke="#b46063" stroke-miterlimit="10" stroke-width="3"/></g><g transform="translate(935.61 2253.69)"><g transform="translate(0)"><path d="M560.479,2474.151a22.055,22.055,0,0,0-31.193,0,6.813,6.813,0,0,1-9.634,0,22.057,22.057,0,0,0-31.193,31.193l36.01,36.01,36.01-36.01a22.055,22.055,0,0,0,0-31.193Z" transform="translate(-482.008 -2467.69)" fill="none" stroke="#b46063" stroke-miterlimit="10" stroke-width="3"/></g></g></g></svg>