<svg xmlns="http://www.w3.org/2000/svg" width="30.929" height="35.228" viewBox="0 0 30.929 35.228"><g transform="translate(-4.697 -0.431)"><g transform="translate(4.697 0.431)"><g transform="translate(0)"><path d="M59.828,25.05l-9.287-2.7v-.8h2.387a3.637,3.637,0,0,0,3.633-3.633V9.86a9.86,9.86,0,1,0-19.72,0v8.061a3.637,3.637,0,0,0,3.633,3.633H42.86v.8l-9.293,2.7A3.268,3.268,0,0,0,31.236,28.2v6.989h1.038V28.2a2.234,2.234,0,0,1,1.589-2.15l5.676-1.65v6.187h2.92L46.7,35.228l4.242-4.644h2.919V24.4l5.67,1.648a2.236,2.236,0,0,1,1.6,2.152v6.989h1.038V28.2A3.27,3.27,0,0,0,59.828,25.05ZM48.41,19.759l-.032.01q-.116.036-.234.066l-.026.007q-.124.032-.251.058l-.056.011q-.1.02-.2.036l-.068.011c-.083.012-.166.023-.249.032l-.044,0q-.108.01-.217.017l-.072,0c-.086,0-.173.007-.26.007s-.174,0-.26-.007l-.072,0q-.109-.006-.217-.017l-.044,0c-.084-.009-.167-.02-.249-.032l-.068-.011q-.1-.016-.2-.036l-.056-.011q-.127-.026-.251-.058l-.026-.007q-.118-.031-.234-.066l-.032-.01a5.719,5.719,0,0,1-4-5.447V10.784a3.777,3.777,0,0,1,3.274-3.738,6.894,6.894,0,0,0,6.863,6.333h1.28v.934A5.718,5.718,0,0,1,48.41,19.759Zm-7.937.757a2.6,2.6,0,0,1-2.595-2.595V9.86a8.822,8.822,0,1,1,17.644,0v8.061a2.6,2.6,0,0,1-2.595,2.595H50.541v-.66a6.744,6.744,0,0,0,2.906-5.543V12.34H51.129a5.853,5.853,0,0,1-5.847-5.847V5.975h-.519a4.814,4.814,0,0,0-4.809,4.809v3.529a6.744,6.744,0,0,0,2.906,5.543v.66Zm2.443,9.03H40.577V24.094l2.465-.717,2.566,9.115Zm3.784,3-2.8-9.954V20.45h0a6.688,6.688,0,0,0,.792.3l.009,0,.128.038.045.013.106.029.068.018.09.022.086.02.078.017.1.02.07.013.108.019.063.01.116.017.058.008.121.015.055.006.124.012.053,0,.126.008.052,0,.132.005.047,0,.179,0,.179,0,.047,0,.132-.005.052,0,.126-.008.053,0,.124-.012.055-.006L47.589,21l.058-.008.116-.017.063-.01.108-.019.07-.013.1-.02.078-.017.086-.02.09-.022.068-.018.106-.029.044-.013.128-.038.008,0a6.7,6.7,0,0,0,.793-.3v2.139Zm6.124-3H50.485l-2.692,2.947,2.566-9.115,2.465.717Z" transform="translate(-31.236 0)" fill="#b16063"/></g><g transform="translate(4.843 31.102)"><g transform="translate(0)"><rect width="1.038" height="4.082" fill="#b16063"/></g></g><g transform="translate(25.048 31.102)"><rect width="1.038" height="4.082" fill="#b16063"/></g></g></g></svg>