<svg xmlns="http://www.w3.org/2000/svg" width="31.899" height="34.765" viewBox="0 0 31.899 34.765"><g transform="translate(-44.001)"><g transform="translate(59.198 10.321)"><g transform="translate(0)"><path d="M257.587,152H246.753a.683.683,0,1,0,0,1.358h10.834a.683.683,0,1,0,0-1.358Z" transform="translate(-246.001 -152)" fill="#b16063"/></g></g><g transform="translate(66.867 13.58)"><g transform="translate(0)"><path d="M349.225,200.2a.81.81,0,0,0-1.064,0,.633.633,0,0,0,0,.96.81.81,0,0,0,1.064,0,.633.633,0,0,0,0-.96Z" transform="translate(-347.941 -200.001)" fill="#b16063"/></g></g><g transform="translate(59.197 2.92)"><g transform="translate(0)"><path d="M247.275,43.2a.811.811,0,0,0-1.064,0,.633.633,0,0,0,0,.96.811.811,0,0,0,1.064,0,.633.633,0,0,0,0-.96Z" transform="translate(-245.991 -43.001)" fill="#b16063"/></g></g><g transform="translate(59.198 13.58)"><g transform="translate(0)"><path d="M251.258,200h-4.5a.683.683,0,1,0,0,1.358h4.5a.683.683,0,1,0,0-1.358Z" transform="translate(-246.001 -200)" fill="#b16063"/></g></g><g transform="translate(59.198 17.654)"><g transform="translate(0)"><path d="M257.587,260H246.753a.683.683,0,1,0,0,1.358h10.834a.683.683,0,1,0,0-1.358Z" transform="translate(-246.001 -260)" fill="#b16063"/></g></g><g transform="translate(66.867 20.913)"><g transform="translate(0)"><path d="M349.225,308.2a.81.81,0,0,0-1.064,0,.633.633,0,0,0,0,.96.81.81,0,0,0,1.064,0,.633.633,0,0,0,0-.96Z" transform="translate(-347.941 -308.001)" fill="#b16063"/></g></g><g transform="translate(59.198 20.913)"><g transform="translate(0)"><path d="M251.258,308h-4.5a.683.683,0,1,0,0,1.358h4.5a.683.683,0,1,0,0-1.358Z" transform="translate(-246.001 -308)" fill="#b16063"/></g></g><g transform="translate(59.198 24.987)"><g transform="translate(0)"><path d="M257.587,368H246.753a.683.683,0,1,0,0,1.358h10.834a.683.683,0,1,0,0-1.358Z" transform="translate(-246.001 -368)" fill="#b16063"/></g></g><g transform="translate(66.867 28.246)"><g transform="translate(0)"><path d="M349.225,416.2a.811.811,0,0,0-1.064,0,.633.633,0,0,0,0,.96.811.811,0,0,0,1.064,0,.633.633,0,0,0,0-.96Z" transform="translate(-347.941 -416.001)" fill="#b16063"/></g></g><g transform="translate(59.198 28.246)"><g transform="translate(0)"><path d="M251.258,416h-4.5a.683.683,0,1,0,0,1.358h4.5a.683.683,0,1,0,0-1.358Z" transform="translate(-246.001 -416)" fill="#b16063"/></g></g><g transform="translate(44.001)"><g transform="translate(0)"><path d="M72.232,2.648H66.485A4.884,4.884,0,0,0,63.3,1.494h-.659a3.164,3.164,0,0,0-5.374,0H56.6a4.884,4.884,0,0,0-3.189,1.154H47.669A3.507,3.507,0,0,0,44,5.959v25.5a3.507,3.507,0,0,0,3.668,3.311H72.231A3.507,3.507,0,0,0,75.9,31.454V5.959A3.507,3.507,0,0,0,72.232,2.648Zm-15.629.2h1.173a.745.745,0,0,0,.725-.5,1.554,1.554,0,0,1,2.9,0,.745.745,0,0,0,.725.5H63.3a3.018,3.018,0,0,1,3.111,2.58H53.491A3.018,3.018,0,0,1,56.6,2.852ZM74.4,31.454a2.069,2.069,0,0,1-2.164,1.953H47.669a2.069,2.069,0,0,1-2.164-1.953V5.959a2.069,2.069,0,0,1,2.164-1.953H52.36a3.808,3.808,0,0,0-.384,1.664v.441a.718.718,0,0,0,.752.679H67.171a.718.718,0,0,0,.752-.679V5.67a3.809,3.809,0,0,0-.384-1.664h4.692A2.069,2.069,0,0,1,74.4,5.959Z" transform="translate(-44.001)" fill="#b16063"/></g></g><g transform="translate(48.61 9.959)"><g transform="translate(0)"><path d="M111.818,146.866a.811.811,0,0,0-1.064,0l-3.217,2.9-.991-.894a.811.811,0,0,0-1.064,0,.633.633,0,0,0,0,.96L107,151.21a.811.811,0,0,0,1.064,0l3.749-3.384A.633.633,0,0,0,111.818,146.866Z" transform="translate(-105.261 -146.667)" fill="#b16063"/></g></g><g transform="translate(48.966 24.987)"><g transform="translate(0)"><path d="M114.365,368h-3.611a.718.718,0,0,0-.752.679v3.259a.718.718,0,0,0,.752.679h3.611a.718.718,0,0,0,.752-.679v-3.259A.718.718,0,0,0,114.365,368Zm-.752,3.259h-2.106v-1.9h2.106Z" transform="translate(-110.001 -368)" fill="#b16063"/></g></g><g transform="translate(48.966 17.654)"><g transform="translate(0)"><path d="M114.365,260h-3.611a.719.719,0,0,0-.752.679v3.259a.718.718,0,0,0,.752.679h3.611a.718.718,0,0,0,.752-.679v-3.259A.719.719,0,0,0,114.365,260Zm-.752,3.259h-2.106v-1.9h2.106Z" transform="translate(-110.001 -260)" fill="#b16063"/></g></g></g></svg>