<svg xmlns="http://www.w3.org/2000/svg" width="23.938" height="23.257" viewBox="0 0 23.938 23.257"><g transform="translate(-403 -4378.553)"><path d="M513.408,1106.156c8.312,1.945,16.3-3.92,15.733-12.83a10.115,10.115,0,0,0-2.989-6.764c-3.073-2.862-7.934-3.833-11.976-3.007-5.2,1.062-7.9,5.508-8.756,10.512a10.883,10.883,0,0,0,1.388,7.812,10.3,10.3,0,0,0,5.51,3.977Q512.863,1106.029,513.408,1106.156Z" transform="translate(-102.232 3295.281)" fill="#ede7e4"/><path d="M21.631,13.215l-.92-.946a.2.2,0,0,0-.146-.063h0a.19.19,0,0,0-.146.063l-6.377,6.424L11.72,16.372a.2.2,0,0,0-.293,0l-.93.93a.208.208,0,0,0,0,.3l2.927,2.927a.926.926,0,0,0,.612.3.97.97,0,0,0,.606-.287h.005l6.988-7.025A.223.223,0,0,0,21.631,13.215Z" transform="translate(398.967 4373.37)" fill="#b46063"/></g></svg>