<svg xmlns="http://www.w3.org/2000/svg" width="233.398" height="40.852" viewBox="0 0 233.398 40.852"><g transform="translate(-1188 -1484.189)"><path d="M1750.21,1510.54h0a1.731,1.731,0,0,0-.295-.123,2.553,2.553,0,0,0,.5-1.38.408.408,0,0,0-.017-.114,1.255,1.255,0,0,0,0-.85,1.964,1.964,0,0,0-1.017-1.085,4.873,4.873,0,0,0-1.111-.316,5.387,5.387,0,0,1-.776-.194,5.3,5.3,0,0,1-1.357-.841,8.548,8.548,0,0,0-1.049-.721,1.558,1.558,0,0,0-.945-.236c-.709.09-1.045.794-1.179,1.115a1.384,1.384,0,0,0-.7-.459,1.311,1.311,0,0,0-1.329.528,2.854,2.854,0,0,0-.463,1.12c-.048.2-.091.4-.135.6-.109.493-.212.959-.362,1.416s-.356.931-.554,1.383a6.478,6.478,0,0,0-.841,3.928,2.728,2.728,0,0,0,.276,1.207,2.043,2.043,0,0,0,.791.748,3.153,3.153,0,0,0,1.387.4c-.077.238-.144.476-.208.711-.055.2-.109.393-.169.588a16.35,16.35,0,0,1-3.167,5.225l-.134.164a17.128,17.128,0,0,0-1.265,1.684,9.024,9.024,0,0,0,.154,9.625.4.4,0,0,0,.659-.446,8.239,8.239,0,0,1-.828-7.348,1.934,1.934,0,0,0,.748.143c.07,0,.137.007.2.013a7.991,7.991,0,0,0,.865.051,5.142,5.142,0,0,0,.825-.063,3.156,3.156,0,0,0,2.413-1.643,3.317,3.317,0,0,0,.246-1.751.4.4,0,0,0-.536-.336c-.408.153-.84.279-1.259.4a14.674,14.674,0,0,0-1.617.539c-.143.06-.292.13-.443.205.152-.193.306-.383.459-.57l.134-.164a17.022,17.022,0,0,0,3.31-5.49c.063-.2.12-.408.177-.613.032-.115.063-.228.1-.34a2.142,2.142,0,0,0,.136.2,2.734,2.734,0,0,0,1.584.918,4.352,4.352,0,0,0,.961.107,7.3,7.3,0,0,0,4.689-2.241,4.451,4.451,0,0,0,.671-.766,5.106,5.106,0,0,0,.552-1.319c.045-.145.114-.319.189-.51C1750.826,1512.721,1751.424,1511.2,1750.21,1510.54Zm-11.947,14.409a13.841,13.841,0,0,1,1.53-.508c.262-.076.529-.154.8-.239a2.142,2.142,0,0,1-.187.823,2.433,2.433,0,0,1-1.82,1.2,5.48,5.48,0,0,1-1.477.007c-.071-.008-.153-.012-.239-.017s-.214-.011-.313-.026A3.5,3.5,0,0,1,1738.263,1524.948Zm10.491-14.633c-1.062.044-2.131.112-3.2.192a7.362,7.362,0,0,0-.312-.989,4.4,4.4,0,0,0,.937.364,5.422,5.422,0,0,0,1.369.168,7.73,7.73,0,0,0,1.343-.126,3.678,3.678,0,0,0,.472-.115,1.786,1.786,0,0,1-.448.5Zm-3.342-1.663c-.2-.1-.281-.428-.288-.7-.006-.214.04-.263.041-.264s.046-.028.219,0a3.549,3.549,0,0,1,1.578.783,1.136,1.136,0,0,1,.266.256.182.182,0,0,1,.033.12.3.3,0,0,1-.131.093,1.047,1.047,0,0,1-.925-.031.392.392,0,0,0-.384.008c-.091-.041-.18-.085-.266-.133A.387.387,0,0,0,1745.412,1508.652Zm-1.745-2.482c.178-.439.371-.675.574-.7a.878.878,0,0,1,.459.144,7.9,7.9,0,0,1,.951.657,4.621,4.621,0,0,0,2.46,1.183,4.22,4.22,0,0,1,.934.258,1.175,1.175,0,0,1,.6.624.463.463,0,0,1-.009.371c-.1.206-.392.348-.879.434a7.345,7.345,0,0,1-.806.095c.012-.022.027-.042.037-.064a.929.929,0,0,0-.082-.862,1.8,1.8,0,0,0-.456-.468,4.293,4.293,0,0,0-1.939-.939,1.073,1.073,0,0,0-.831.156.935.935,0,0,0-.336.656.388.388,0,0,0-.05-.018c-.181-.287-.368-.564-.557-.835a.394.394,0,0,0-.126-.451A.675.675,0,0,1,1743.667,1506.171Zm-4.121,8.952a2.1,2.1,0,0,1-.174-.865,7.908,7.908,0,0,1-.021-.994,7.774,7.774,0,0,1,.8-2.565c.206-.469.419-.955.582-1.455s.274-1,.382-1.49c.043-.2.087-.39.133-.584a2.168,2.168,0,0,1,.32-.818.56.56,0,0,1,.507-.243c.174.043.333.247.492.47a12.953,12.953,0,0,1,2.192,4c-.474.04-.95.073-1.42.12a2.2,2.2,0,0,0-.8.192,1.818,1.818,0,0,0-.736.761,6.533,6.533,0,0,0-.579,3.8c.01.136.024.277.042.42a2.363,2.363,0,0,1-1.219-.3A1.271,1.271,0,0,1,1739.546,1515.123Zm10.182-1.786c-.084.212-.159.406-.209.567a4.4,4.4,0,0,1-.456,1.117,3.646,3.646,0,0,1-.555.626c-.964.919-2.886,2.394-4.927,1.934a2,2,0,0,1-1.135-.634,1.692,1.692,0,0,1-.278-.561.377.377,0,0,0-.105-.492c-.025-.17-.042-.34-.054-.5a5.84,5.84,0,0,1,.474-3.344,1.1,1.1,0,0,1,.407-.45,1.554,1.554,0,0,1,.523-.11c.576-.057,1.158-.1,1.739-.147a.388.388,0,0,0,.175.011.382.382,0,0,0,.081-.032c1.115-.086,2.232-.16,3.344-.206a.4.4,0,0,0,.4,0l.011-.008a1.448,1.448,0,0,1,.67.135C1750.381,1511.539,1750.11,1512.367,1749.728,1513.337Z" transform="translate(-377.071 -14.126)" fill="#907a69"/><g transform="translate(1345.696 1486.942)"><path d="M1697.288,1510.631c.9-5.208,3.834-14.236,13.443-16.2,6.622-1.354,14.05.506,18.475,4.627a14.646,14.646,0,0,1,4.044,7.1c.053.037.1.064.158.1a1.271,1.271,0,0,1,.138.118,5.293,5.293,0,0,1,.979,1.431,16.073,16.073,0,0,0-4.692-9.43c-4.706-4.382-12.277-6.288-19.287-4.855-7.41,1.514-12.572,7.69-14.164,16.945a21.018,21.018,0,0,0-.293,3.139c.309-.049.621-.109.934-.186A19.65,19.65,0,0,1,1697.288,1510.631Z" transform="translate(-1696.089 -1493.06)" fill="#907a69"/><path d="M1808.032,1565.73c-.1.119-.2.237-.3.353a17.956,17.956,0,0,1-3.478,6.726c.009.574.015,1.039.021,1.417a18.871,18.871,0,0,0,4.472-8.482l-.708-.023Z" transform="translate(-1770.683 -1543.169)" fill="#907a69"/><path d="M1710.537,1584.465q-.841-.2-1.684-.463a15.721,15.721,0,0,1-8.442-6.085,14.268,14.268,0,0,1-1.943-4.665c-.328.062-.628.109-.923.154a15.2,15.2,0,0,0,2.1,5.02,16.645,16.645,0,0,0,8.93,6.454q.878.278,1.752.482h0a22.375,22.375,0,0,0,5.094.59,21.242,21.242,0,0,0,10.472-2.715v-1.073A20.657,20.657,0,0,1,1710.537,1584.465Z" transform="translate(-1697.094 -1548.363)" fill="#907a69"/></g><g transform="translate(1188 1484.189)"><path d="M1838.516,1502.941c-.012-.267-.172-.593-.861-.712a1.333,1.333,0,0,0-.794.36l-1.044.89a34.724,34.724,0,0,1-2.87,1.979c-.312.182-.844.481-1.569.883a5.818,5.818,0,0,0-.9.365,9.636,9.636,0,0,1-2.9.638,8,8,0,0,1-.9-.075,4.74,4.74,0,0,1-2.089-.927c-.867-.8-.983-1.028-1-1.079a.2.2,0,0,0-.031-.065l-.326-.435a5.4,5.4,0,0,0-.47-.812,14.607,14.607,0,0,1-.765-2.211v-.057a22.381,22.381,0,0,0,1.013-4.11,54.924,54.924,0,0,0,.509-7.409c-.026-2.05-.079-3.813-.156-5.23a.489.489,0,0,0-.063-.212c-.193-.354-.423-.533-.683-.533h-.273c-.336,0-.71.3-1.192.967a6.922,6.922,0,0,0-.605,1.3,21.352,21.352,0,0,0-.9,3.719,34.078,34.078,0,0,0-.277,4.133v1.452a22.657,22.657,0,0,0,.471,4.552,9.239,9.239,0,0,0,.27,1.365c.087.259-.4.988-.508,1.208a13.682,13.682,0,0,0-5.038-1.232,4.88,4.88,0,0,0-2.092.393,6.231,6.231,0,0,0-1.139.738,20.522,20.522,0,0,1-3.538,2.715,11.487,11.487,0,0,1-2.234.756,22.242,22.242,0,0,1-2.587.272h-1.68c-.053,0-.242-.008-.916-.061a8.82,8.82,0,0,0,.13-3.548,4.212,4.212,0,0,0-1.049-1.78,2.418,2.418,0,0,0-1.328-.585h-.391a.185.185,0,0,0-.043.005c-.244.055-.406.1-.5.125a1.843,1.843,0,0,0-.76.463,4.086,4.086,0,0,0-.823.908,7.793,7.793,0,0,0-.786,1.9l.023-2.653c0-.78-.406-1.025-.784-1.1h-.312a.2.2,0,0,0-.064.01.514.514,0,0,0-.156.078c-.233.051-.395.284-.483.693a.208.208,0,0,0,0,.044c.053,4.07.132,7.238.234,9.408l0,.307.034.2a81.946,81.946,0,0,0-.427,8.746v2.538a1.266,1.266,0,0,0,.04.412,4.8,4.8,0,0,0,.366,1.853.217.217,0,0,0,.042.062c.332.333.588.488.8.488h.078c.17,0,.349-.117.579-.381a.193.193,0,0,0,.036-.062,7.813,7.813,0,0,0,.4-2.685v-2.889c0-.352-.042-3.126-.116-7.81l0-.319.31-1.9c.39-1.665.793-3.37,1.2-5.08.57-1.29,1-1.561,1.263-1.561a.854.854,0,0,1,.631.427c.365,2.246.206,3.185-.022,3.573l-.179-.024h-.078a3.927,3.927,0,0,0-.769.08c-1.078.149-1.3.7-1.3,1.134v.117a2.311,2.311,0,0,0,.79,1.5c.36.421.656.616.932.616.358,0,.766-.3,1.3-.947a5.486,5.486,0,0,1,.426-.581.465.465,0,0,0,.073.006h.071c.677.026,1.51.053,2.507.078q.681,0,2.1-.08a12.846,12.846,0,0,0,3.448-.834,5.338,5.338,0,0,0,1.355-.653,1.726,1.726,0,0,0,.733-.447,1.173,1.173,0,0,0,.25-.143,4.3,4.3,0,0,0,.633,1.465,3.33,3.33,0,0,1,.235.287.2.2,0,0,0,.032.059,5.928,5.928,0,0,0,.973.815.192.192,0,0,0,.05.027,5.192,5.192,0,0,0,1.592.4l.735,0a5.464,5.464,0,0,0,1.032-.207,6.489,6.489,0,0,0,2.458-1.24c.532-.432.646-.511.667-.523a.2.2,0,0,0,.056-.043c.351-.378.458-.478.49-.5a.211.211,0,0,0,.062-.048c.3-.351.467-.543.518-.6a6.149,6.149,0,0,1,.4-.513c.382-.564.667-1.015.851-1.348a3.49,3.49,0,0,0,.389.818,4.846,4.846,0,0,0,.623,1.008,7.282,7.282,0,0,0,.96,1.195,5.384,5.384,0,0,0,.659.575,6.064,6.064,0,0,0,3.889,1.353,9.978,9.978,0,0,0,4.72-1.263,23.044,23.044,0,0,0,3.719-2.215c1.122-.867,1.867-1.471,2.274-1.846.211-.065.31-.352.374-.605a.186.186,0,0,0,.006-.048A.785.785,0,0,0,1838.516,1502.941Zm-16.8-14.414v2.929a5.5,5.5,0,0,1-.017.573.2.2,0,0,0-.022.091,34.752,34.752,0,0,1-.444,5.229c-.048-.741-.08-1.563-.1-2.457,0-1.24.118-2.98.349-5.165.073-.5.149-.965.228-1.4C1821.719,1488.395,1821.72,1488.462,1821.72,1488.527Zm-9.585,16.029a2.494,2.494,0,0,1,2.4-1.148c.155,0,.463.013.894.034a12.748,12.748,0,0,1,3.181.992.207.207,0,0,0,.039.018l.023.008a11.726,11.726,0,0,1-1.11,1.259,5.585,5.585,0,0,1-1.753,1.257,3.979,3.979,0,0,1-1.86.446,2.065,2.065,0,0,1-1.1-.276,2.013,2.013,0,0,1-.97-1.711A1.866,1.866,0,0,1,1812.135,1504.556Z" transform="translate(-1605.159 -1484.189)" fill="#907a69"/><path d="M1477.527,1530.048l.033,0a.2.2,0,0,0,.039,0,18.252,18.252,0,0,0,1.922-.53c1.509-.686,2.182-1.22,2.182-1.731v-.282a.429.429,0,0,0-.056-.237c-.083-.407-.677-.593-.881-.657a.207.207,0,0,0-.088-.007c-.2.028-.314.044-.347.045a.2.2,0,0,0-.146.064,5.331,5.331,0,0,1-2,1.112,3.113,3.113,0,0,0-1.129.288c-.289.061-.437.45-.535.794a.2.2,0,0,0-.007.054v.047C1476.516,1529.405,1476.691,1529.909,1477.527,1530.048Z" transform="translate(-1386.969 -1513.438)" fill="#907a69"/><path d="M1357.477,1531.453a.21.21,0,0,0-.046-.005,1.173,1.173,0,0,0-.9.444.2.2,0,0,0-.033.054,6.3,6.3,0,0,1-1.356,1.618c-.244.213-.656.549-1.255,1.022a20.86,20.86,0,0,1-3.207,1.906,16.187,16.187,0,0,1-2.7,1.071,12.539,12.539,0,0,1-3.883.648,6.489,6.489,0,0,1-2.159-.276,6,6,0,0,1-1.781-.8.6.6,0,0,0-.379-.281,9.189,9.189,0,0,1-1.036-1.243,7.115,7.115,0,0,0-.43-1.018,5.627,5.627,0,0,0-.657-1.583,2.368,2.368,0,0,0-2.244-1.424h-.047a2.084,2.084,0,0,0-1.444.564,6.644,6.644,0,0,0-1.263,1.507,7.8,7.8,0,0,1-.521.806,5.832,5.832,0,0,1-.575.985.2.2,0,0,0-.037.052c-.091.182-.168.331-.233.455,0-.606.131-3.185.036-3.333,0-.209.007-.424.01-.646a.207.207,0,0,0-.009-.063c-.186-.591-.486-.891-.894-.891h-.329a.2.2,0,0,0-.067.012,1.048,1.048,0,0,0-.789,1.032v.952a12.281,12.281,0,0,1-1.3,1.255,22.1,22.1,0,0,1-2.635,2.174,5.013,5.013,0,0,0-.751.424,11.79,11.79,0,0,1-2.317,1.113l-1,.366c-.866.156-1.651.265-2.313.326h-.282a15.919,15.919,0,0,1-2.05-.224,10.693,10.693,0,0,1-2.622-1.146.186.186,0,0,0-.036-.021,5.736,5.736,0,0,1-1.1-.689,10.5,10.5,0,0,1-2.287-2.236c-.355-.6-.718-.9-1.11-.9-.206,0-.588.111-1.7.969a5.594,5.594,0,0,0-.814.572,3.08,3.08,0,0,0-.614.426c-.976.6-1.195.744-1.257.791a12.021,12.021,0,0,0-1.211.791,6.621,6.621,0,0,0-1.012.554,4.746,4.746,0,0,0-1.029.535,5.4,5.4,0,0,1-1.848.528c-.268,0-.366-.092-.412-.175v-.261l.044-.4a11.463,11.463,0,0,1,1.516-2.657,13.2,13.2,0,0,1,3-3.1,4.033,4.033,0,0,1,2-.858.851.851,0,0,1,.534.145.2.2,0,0,0,.075.037c.109.028.348.174.708.817a.982.982,0,0,0,.954.737h0a1,1,0,0,0,1.022-1.043v-.188a.211.211,0,0,0-.01-.063,2.939,2.939,0,0,0-.58-1.078,1.727,1.727,0,0,0-.5-.638,2.654,2.654,0,0,0-2.023-.814c-.059,0-.247.016-1.046.1a5.868,5.868,0,0,0-1.245.526,5.326,5.326,0,0,0-1.043.616,14.912,14.912,0,0,0-2.693,2.448c-.049.063-.092.121-.139.182a1.815,1.815,0,0,0-.426.245l-2.062,1.406c-1.06.686-2.145,1.331-3.24,1.925a6.067,6.067,0,0,1-1.208.65c-.891.484-1.086.575-1.127.592a.185.185,0,0,0-.034.012,21.3,21.3,0,0,1-3.031,1.119,12.619,12.619,0,0,1-2.663.507h-.968l-.5-.044a3.832,3.832,0,0,1-1.563-.575c-1.193-.9-1.8-2.469-1.8-4.677a22.507,22.507,0,0,1,.141-2.348v-.047a.2.2,0,0,0-.005-.046c-.186-.787-.642-.952-.992-.952h-.094a.185.185,0,0,0-.049.006,1.612,1.612,0,0,0-.5.189c-.194.041-.373.283-.488,1.419a1.23,1.23,0,0,0-.155.2c-.554.728-.7.9-.744.937a.2.2,0,0,0-.042.035,8.525,8.525,0,0,1-.6.613.2.2,0,0,0-.061.045c-.437.47-.564.585-.6.613a.218.218,0,0,0-.038.023,6.691,6.691,0,0,1-.9.636.2.2,0,0,0-.034.021,12.768,12.768,0,0,1-3.354,1.8,14.836,14.836,0,0,1-3,.557h-1.362a9.743,9.743,0,0,1-2.375-.458,6.385,6.385,0,0,1-2.407-1.494,12.334,12.334,0,0,1-1.092-1.636,8.653,8.653,0,0,0-.712-1.476c-.208-.51-.958-.758-2.289-.758h-1.1a2.277,2.277,0,0,0,.135-.2,4.1,4.1,0,0,0,1.355-2.751v-.047a2.136,2.136,0,0,0-1.087-1.817,3.8,3.8,0,0,0-1.882-.448,4.505,4.505,0,0,0-2.462.693,3.107,3.107,0,0,0-1.494,2.6,2.356,2.356,0,0,0,.05.455,4.971,4.971,0,0,0,1.009,2.224,1.326,1.326,0,0,0,.367.486,2.654,2.654,0,0,0,.153.219,9.539,9.539,0,0,1-.909.841,22.107,22.107,0,0,1-2.635,2.174,4.977,4.977,0,0,0-.751.424,11.794,11.794,0,0,1-2.317,1.113l-1,.366c-.867.156-1.651.265-2.313.326h-.282a15.924,15.924,0,0,1-2.05-.224,10.71,10.71,0,0,1-2.622-1.146.176.176,0,0,0-.036-.021,5.74,5.74,0,0,1-1.1-.689,10.517,10.517,0,0,1-2.287-2.237c-.356-.6-.719-.9-1.11-.9-.207,0-.589.111-1.7.969a5.565,5.565,0,0,0-.814.572,3.057,3.057,0,0,0-.614.426c-.97.6-1.193.743-1.257.791a12.091,12.091,0,0,0-1.211.792,6.627,6.627,0,0,0-1.012.554,4.743,4.743,0,0,0-1.029.535,5.407,5.407,0,0,1-1.848.528c-.267,0-.366-.092-.412-.175v-.261l.044-.4a11.469,11.469,0,0,1,1.516-2.657,13.188,13.188,0,0,1,3-3.1,4.035,4.035,0,0,1,2-.858.849.849,0,0,1,.534.145.2.2,0,0,0,.075.037c.109.028.348.174.709.817a.982.982,0,0,0,.954.737h0a1,1,0,0,0,1.022-1.043v-.188a.2.2,0,0,0-.01-.063,2.905,2.905,0,0,0-.58-1.078,1.746,1.746,0,0,0-.5-.638,2.656,2.656,0,0,0-2.023-.814c-.059,0-.247.016-1.046.1a5.782,5.782,0,0,0-1.245.526,5.334,5.334,0,0,0-1.044.616,14.878,14.878,0,0,0-2.692,2.448c-.039.05-.072.1-.11.145a1.694,1.694,0,0,0-.586.315c-.246.276-.762.76-1.528,1.434-.906.749-1.69,1.345-2.331,1.772-.558.372-1.077.7-1.537.978a16.921,16.921,0,0,1-8.261,2.369c-.9,0-1.155-.017-1.228-.027a.2.2,0,0,0-.087-.02,11.065,11.065,0,0,1-2.872-.731,9.19,9.19,0,0,1-1.879-1.1.2.2,0,0,0-.082-.044,8.066,8.066,0,0,1-.885-.782,2.121,2.121,0,0,0-.49-.6,5.118,5.118,0,0,1-1.014-2.233.2.2,0,0,0-.012-.067,1.05,1.05,0,0,0-1.033-.789,1.378,1.378,0,0,0-1,.544,8.207,8.207,0,0,1-.55.654.2.2,0,0,0-.067.059,6.968,6.968,0,0,1-.455.6.2.2,0,0,0-.06.054,11.452,11.452,0,0,1-.934,1.2.2.2,0,0,0-.116.1,1.656,1.656,0,0,1-.112.2.2.2,0,0,0-.06.055,2.431,2.431,0,0,1-.207.265.2.2,0,0,0-.077.066,14.77,14.77,0,0,1-1.791,1.976,2.724,2.724,0,0,1-.719.454,3.629,3.629,0,0,1-.086-.451l-.188-3.01c-.136-1.554-.661-2.342-1.56-2.342h-.563a3.23,3.23,0,0,0-2.269,1.39,8.359,8.359,0,0,1-.55.654.2.2,0,0,0-.07.064c-.288.432-.529.776-.722,1.028-.027-2.431-.041-4.01-.041-4.58a2.881,2.881,0,0,0-.051-.555.2.2,0,0,0-.04-.087,1.209,1.209,0,0,0-.907-.544h-.022a1.029,1.029,0,0,0-.54.14,1.061,1.061,0,0,0-.529,1v.657c0,.183.028,1.631.094,4.837v2.019a.99.99,0,0,0,.9,1.138h.281c.221,0,.578-.137,1.394-1.227a2.2,2.2,0,0,1,.16-.254.2.2,0,0,0,.067-.061,8.25,8.25,0,0,1,.993-1.318.2.2,0,0,0,.051-.061,4.147,4.147,0,0,1,.263-.445.207.207,0,0,0,.057-.057c1.061-1.613,1.417-1.695,1.477-1.695h.083c0,.43.019.871.046,1.3a7.318,7.318,0,0,0,.658,3.745,1.8,1.8,0,0,0,1.372.727h.141c1.009,0,2.317-.944,4-2.89.8-.975,1.02-1.218,1.076-1.271a.2.2,0,0,0,.065-.063,9.585,9.585,0,0,1,.745-.991c.263.5.332.652.349.693a.192.192,0,0,0,.026.062,11.318,11.318,0,0,0,1.876,2.116,9.332,9.332,0,0,0,1.478,1,14.152,14.152,0,0,0,2.26,1.008,15.693,15.693,0,0,0,3.476.569h.952a15.077,15.077,0,0,0,2.313-.282,12.437,12.437,0,0,0,2.911-.764,19.715,19.715,0,0,0,2.981-1.325l.907-.478,1.618-1.049c.131-.112.29-.233.474-.361a2.733,2.733,0,0,0-.051.492v.657a1.382,1.382,0,0,0,.1.389,1.886,1.886,0,0,0,2.021,1.312,11.134,11.134,0,0,0,4.55-1.476,30.939,30.939,0,0,0,3.68-2.217l1.3-.823a1.106,1.106,0,0,1,.067.1.2.2,0,0,0,.045.052,3.475,3.475,0,0,1,.552.647,14.133,14.133,0,0,0,3.083,2.372,15.615,15.615,0,0,0,1.544.771,12.47,12.47,0,0,0,3.68.809h1.08a10.87,10.87,0,0,0,1.26-.145,13.713,13.713,0,0,0,2.715-.716,18.874,18.874,0,0,0,3.933-2.227,5.987,5.987,0,0,0,.762-.617,2.364,2.364,0,0,0,.591-.448,5.673,5.673,0,0,0,.659-.61,17.272,17.272,0,0,0,1.3-1.208,7.528,7.528,0,0,0,.7-.744h1.325a7.307,7.307,0,0,1,1.984.129,17.863,17.863,0,0,0,1.092,2.086,8.64,8.64,0,0,0,2.074,2.12,10.065,10.065,0,0,0,5.65,1.582,12.662,12.662,0,0,0,4.661-.807,16.767,16.767,0,0,0,3.927-2.063,5.056,5.056,0,0,1,.659-.562.2.2,0,0,0,.1-.052c.413-.4.722-.706.959-.944a8.907,8.907,0,0,0,.649,2.672,5.885,5.885,0,0,0,2.494,2.678,6.732,6.732,0,0,0,2.568.674h1.362a14.667,14.667,0,0,0,3.263-.67l1.742-.659a44.183,44.183,0,0,0,4.359-2.134,7.464,7.464,0,0,1,1.12-.653l.671-.429a3.8,3.8,0,0,0-.225,1.153v.657a1.392,1.392,0,0,0,.1.389,1.887,1.887,0,0,0,2.021,1.312,11.131,11.131,0,0,0,4.55-1.476,31.018,31.018,0,0,0,3.68-2.217l1.3-.823a1.091,1.091,0,0,1,.067.1.19.19,0,0,0,.046.052,3.456,3.456,0,0,1,.551.647,14.132,14.132,0,0,0,3.083,2.372,15.593,15.593,0,0,0,1.544.771,12.47,12.47,0,0,0,3.679.809h1.081a10.877,10.877,0,0,0,1.26-.145,13.72,13.72,0,0,0,2.715-.716,18.859,18.859,0,0,0,3.934-2.227,6,6,0,0,0,.762-.617,2.31,2.31,0,0,0,.592-.448,5.623,5.623,0,0,0,.66-.61l.033-.028s0,.01,0,.014a.19.19,0,0,0-.012.087c.031.372.046.666.046.876v.939c0,.15.014.6.047,1.55,0,.411.317.713.941.9a.2.2,0,0,0,.056.008,1.268,1.268,0,0,0,1-.542,13.9,13.9,0,0,0,1.614-2.466c.508-.847.6-1,.615-1.042a17.656,17.656,0,0,1,1.216-2.011,1.631,1.631,0,0,1,.63-.608c.016,0,.121.016.4.251a2.089,2.089,0,0,0,.375.672,16.027,16.027,0,0,0,.681,1.805,6.246,6.246,0,0,0,1.7,2.1.19.19,0,0,0,.045.032,1.151,1.151,0,0,1,.293.212,7.471,7.471,0,0,0,1.61.926,11.039,11.039,0,0,0,3.634.668,19.821,19.821,0,0,0,4.009-.574c1.112-.382,1.359-.452,1.391-.459a.2.2,0,0,0,.077-.015,32.311,32.311,0,0,0,3.229-1.522c.605-.416.741-.477.733-.481a.2.2,0,0,0,.11-.033c.791-.528.969-.616.97-.624a.2.2,0,0,0,.13-.049c.582-.5.726-.611.756-.629a.2.2,0,0,0,.043-.029,5.941,5.941,0,0,1,.757-.613.2.2,0,0,0,.1-.054,17.274,17.274,0,0,0,1.57-1.714,2.322,2.322,0,0,0,.461-.868v-.329C1358.428,1531.889,1358.108,1531.6,1357.477,1531.453Zm-101.647-2.221a2.027,2.027,0,0,1,1.02-.391h.766c.523.18.538.316.538.318,0,.2-.129.574-.737,1.219a11.555,11.555,0,0,1-1.418,1.239,2.016,2.016,0,0,0-.166-.187,2.981,2.981,0,0,1-.521-1.338A.91.91,0,0,1,1255.83,1529.231Z" transform="translate(-1188 -1513.542)" fill="#907a69"/></g></g></svg>