<svg xmlns="http://www.w3.org/2000/svg" width="380.666" height="124.981" viewBox="0 0 380.666 124.981"><g transform="translate(-160.63 -958.558)"><g transform="translate(160.63 958.558)"><path d="M160.63,984.994v-.144c0-14.735,11.34-26.292,26.653-26.292,10.329,0,16.974,4.333,21.452,10.546l-10.546,8.162c-2.889-3.612-6.211-5.923-11.051-5.923-7.079,0-12.063,6-12.063,13.363v.145c0,7.584,4.984,13.507,12.063,13.507,5.272,0,8.378-2.456,11.412-6.139l10.546,7.512c-4.768,6.573-11.2,11.412-22.392,11.412A25.675,25.675,0,0,1,160.63,984.994Z" transform="translate(-160.63 -958.558)" fill="#d89a9e"/><path d="M282.649,959.864h13.507l21.525,50.923H302.657l-3.684-9.029h-19.5l-3.612,9.029H261.124Zm12.279,30.987-5.634-14.374-5.706,14.374Z" transform="translate(-211.139 -959.214)" fill="#d89a9e"/><path d="M384.709,960.591h40.449V972.87H398.722v8.6H422.63v11.629H398.722v18.058H384.709Z" transform="translate(-273.253 -959.58)" fill="#d89a9e"/><path d="M478.812,960.591h40.666v11.918h-26.8v7.656H516.95v11.052H492.68v8.018h27.159v11.918H478.812Z" transform="translate(-320.55 -959.58)" fill="#d89a9e"/><path d="M571.466,984.994v-.144c0-14.735,11.34-26.292,26.653-26.292,10.329,0,16.974,4.333,21.452,10.546l-10.546,8.162c-2.889-3.612-6.212-5.923-11.051-5.923-7.078,0-12.062,6-12.062,13.363v.145c0,7.584,4.984,13.507,12.062,13.507,5.273,0,8.379-2.456,11.413-6.139l10.546,7.512c-4.768,6.573-11.2,11.412-22.392,11.412A25.674,25.674,0,0,1,571.466,984.994Z" transform="translate(-367.118 -958.558)" fill="#d89a9e"/><path d="M681.544,960.591h14.085v50.561H681.544Z" transform="translate(-422.444 -959.58)" fill="#d89a9e"/><path d="M737.956,972.87H722.787V960.591h44.35V972.87H751.968v38.283H737.956Z" transform="translate(-443.173 -959.58)" fill="#d89a9e"/><path d="M816.455,984.994v-.144c0-14.518,11.7-26.292,27.3-26.292s27.159,11.629,27.159,26.147v.145c0,14.518-11.7,26.292-27.3,26.292S816.455,999.513,816.455,984.994Zm40.16,0v-.144c0-7.3-5.273-13.652-13-13.652-7.656,0-12.785,6.211-12.785,13.507v.145c0,7.3,5.273,13.651,12.929,13.651C851.487,998.5,856.615,992.289,856.615,984.994Z" transform="translate(-490.251 -958.558)" fill="#d89a9e"/><g transform="translate(91.634 22.761)"><path d="M404.463,1053.324a70.8,70.8,0,0,1-2.341,12.034,134.915,134.915,0,0,1-4.61,13.624q-2.794,7.051-5.777,13.614t-5.906,12.013q-2.919,5.453-5,8.889-.91,1.438-2.206,3.524a40.712,40.712,0,0,1-2.855,4.015,24.806,24.806,0,0,1-3.372,3.448,7.557,7.557,0,0,1-3.63,1.8,5.143,5.143,0,0,1-4.276-1.269,14.262,14.262,0,0,1-2.978-4.391,36.424,36.424,0,0,1-1.94-5.527,45.746,45.746,0,0,1-1.162-5.974q-.386-3.05-.774-5.581-.26-1.384-.387-1.819c-.088-.287-.347-.4-.778-.331a5.743,5.743,0,0,0-.713.177q-.456.139-1.1.368a16.057,16.057,0,0,1-4.667,1.643,14.234,14.234,0,0,1-1.879.167q-.972.025-2.138-.051a1.439,1.439,0,0,1-1.036-1.911,2.045,2.045,0,0,1,1.556-1.412,3.721,3.721,0,0,1,1.232,0,3.747,3.747,0,0,0,1.232,0,25.118,25.118,0,0,0,4.6-1.244,4.759,4.759,0,0,0,3.178-3.482,14.284,14.284,0,0,0,.131-2.16q0-1.361,0-2.787t0-2.916q0-1.489,0-2.4,0-1.814.133-5.466t.588-8q.457-4.35,1.238-8.945a48.518,48.518,0,0,1,2.208-8.514,23.948,23.948,0,0,1,3.5-6.58,7.7,7.7,0,0,1,4.927-3.11q3.369-.532,5.57,3.01a13.234,13.234,0,0,1,1.811,6.2,38.765,38.765,0,0,1-.329,7.958,64.093,64.093,0,0,1-1.885,8.788,85.471,85.471,0,0,1-3.053,8.842,79.011,79.011,0,0,1-3.763,7.982,46.59,46.59,0,0,1-3.957,6.2q-1.3,1.761-2.076,2.726a5.486,5.486,0,0,0-1.038,1.849,4.835,4.835,0,0,0-.131,1.965q.127,1.083.386,3.245.128,1.146.646,4.434a56.186,56.186,0,0,0,1.486,6.7,29.644,29.644,0,0,0,2.393,6.039q1.423,2.625,3.368,2.32a4.585,4.585,0,0,0,2.464-1.555l.388-.45a66.6,66.6,0,0,0,6.1-8.8q3.5-5.8,7.2-13t7.139-15.19q3.438-7.994,5.778-15.3a87.707,87.707,0,0,0,3.249-13.215q.909-5.909-.512-9.058a1.664,1.664,0,0,1,.65-2.306,2.33,2.33,0,0,1,.778-.381,1.2,1.2,0,0,1,1.425.683A18.625,18.625,0,0,1,404.463,1053.324Zm-38.124,30.7a79.692,79.692,0,0,0,3.44-8.384,83.857,83.857,0,0,0,2.469-8.555,52.227,52.227,0,0,0,1.236-7.778q0-.777-.063-2.777a24.381,24.381,0,0,0-.45-3.946,10.693,10.693,0,0,0-1.23-3.371,2.194,2.194,0,0,0-2.4-1.177,4.881,4.881,0,0,0-1.038.423,8.285,8.285,0,0,0-3.436,4.171,37.9,37.9,0,0,0-2.274,7.164,82.652,82.652,0,0,0-1.432,8.781q-.521,4.684-.784,9.067t-.265,8.014q0,3.63,0,5.573,0,1.817.388,1.754t1.686-1.821A47.056,47.056,0,0,0,366.338,1084.029Z" transform="translate(-344.858 -1024.136)" fill="#d89a9e"/><path d="M476.762,1130.159a1.35,1.35,0,0,1,.906,1.089,1.46,1.46,0,0,1-.389,1.552q-1.557,1.8-3.567,3.932a57.131,57.131,0,0,1-4.215,4.035,36.61,36.61,0,0,1-4.409,3.287,11.708,11.708,0,0,1-4.408,1.731l-.519.082q-2.983.213-4.081-1.625a8.57,8.57,0,0,1-1.1-4.493,28.84,28.84,0,0,1,.588-5.6q.584-2.942,1.1-4.711a1.76,1.76,0,0,1,.778-1.095,3.7,3.7,0,0,1,1.167-.379,1.6,1.6,0,0,1,.972.624,1.205,1.205,0,0,1,.064,1.156q-.263.95-.78,3.169a39.593,39.593,0,0,0-.781,4.465,10.017,10.017,0,0,0,.192,3.859,1.843,1.843,0,0,0,2.137,1.478,10.113,10.113,0,0,0,3.825-1.576,28.541,28.541,0,0,0,3.954-3.086q1.947-1.8,3.632-3.683t2.854-3.367a2.384,2.384,0,0,1,1.426-.872A1.382,1.382,0,0,1,476.762,1130.159Zm-18.593-7.243a1.923,1.923,0,0,1-.193-2.108,1.107,1.107,0,0,1,0-1.427l.648-.75a3.745,3.745,0,0,1,2.2-1.385,1.439,1.439,0,0,1,1.3.379,2.681,2.681,0,0,1,.712,1.378,4.275,4.275,0,0,1,0,1.814,3.708,3.708,0,0,1-.844,1.689,2.979,2.979,0,0,1-1.815,1.063A2.013,2.013,0,0,1,458.169,1122.916Z" transform="translate(-400.207 -1061.064)" fill="#d89a9e"/><path d="M515.009,1133.025a7.445,7.445,0,0,1-3.628-.335,6.133,6.133,0,0,1-2.85-1.884c-.433-.536-.777-.958-1.036-1.263a.871.871,0,0,0-.777-.4q-.777.122-2.4,2.711t-3.374,5.781q-1.751,3.193-3.244,6.215t-1.882,3.861q-.651,1.659-1.687,1.822-1.166.183-1.165-1.761a53.064,53.064,0,0,1,.069-5.779q.2-3.205.588-6.574t.977-6.57a38.759,38.759,0,0,1,1.494-5.809,2.251,2.251,0,0,1,1.815-1.583q.777.009.972.495a2.06,2.06,0,0,1,.064,1.157c-.088.447-.195.895-.325,1.347s-.239.816-.324,1.088a48.447,48.447,0,0,0-1.5,6.976,69.41,69.41,0,0,0-.717,6.983c0,.605.042.9.129.887q.257-.04.779-1.419.389-.839,1.557-2.9t2.595-4.3a27.865,27.865,0,0,1,3.049-3.981,5.668,5.668,0,0,1,3.047-1.971,2,2,0,0,1,1.814.621q1.424,1.593,2.46,2.788t3.629.789a3.324,3.324,0,0,0,1.686-.72,2.644,2.644,0,0,1,1.3-.658.24.24,0,0,1,.194.034c.042.038.15.041.324.013a1.133,1.133,0,0,1,.842,1.034,2.053,2.053,0,0,1-.585,1.518A7.765,7.765,0,0,1,515.009,1133.025Z" transform="translate(-419.272 -1063.195)" fill="#d89a9e"/><path d="M535.419,1068.865a114.8,114.8,0,0,1-3.251,14.187,91.788,91.788,0,0,1-5.323,13.737,18.259,18.259,0,0,0-1.1,4.776q-.46,3.377-.784,7.252t-.523,7.406q-.2,3.53-.2,5.086a1.534,1.534,0,0,1-.909,2.088,1.665,1.665,0,0,1-.649.232,1.192,1.192,0,0,1-1.425-.812c-.084-.505-.149-.842-.193-1.007a2.02,2.02,0,0,1-.064-.508,4.235,4.235,0,0,1,.065-.658,9,9,0,0,0,.066-1.307q.659-12.157,2.09-24.309t3.646-24.425q-3.241.641-5.7,1.288t-4.473,1.289q-2.008.642-3.889,1.261t-4.083,1.356a1.744,1.744,0,0,1-.455,1.173,1.776,1.776,0,0,1-1.1.627.517.517,0,0,1-.259-.023.856.856,0,0,0-.389,0,2.738,2.738,0,0,0-1.166-.2,6.137,6.137,0,0,1-1.426-.164,1.712,1.712,0,0,1-.972-.56c-.214-.268-.193-.725.066-1.371s1.579-1.394,3.955-2.244,5.014-1.675,7.908-2.478,5.6-1.509,8.1-2.12,4.018-.957,4.537-1.04q.649-3.083,1.3-6.038a41.219,41.219,0,0,1,1.689-5.71,8.947,8.947,0,0,1,.908-1.893,1.891,1.891,0,0,1,1.3-.917,2.325,2.325,0,0,1,1.685.512q1.554,1.572,1.747,5.1a39.18,39.18,0,0,1-.33,7.375,17.04,17.04,0,0,1,1.944-.436l1.944-.306a93.651,93.651,0,0,1,10.369-1.117,17.013,17.013,0,0,1,6.609.642l.907.505q1.166.856,0,2.2a1.489,1.489,0,0,1-1.038.682,2.085,2.085,0,0,1-1.166-.205,5.1,5.1,0,0,0-3.045-.686q-2.27-.031-4.8.173t-4.925.518q-2.4.314-3.435.476Zm-7.658,16.308c-.088.749-.088,1.115,0,1.1a17.641,17.641,0,0,0,1.039-2.951q.648-2.241,1.364-4.881t1.364-5.076a29.728,29.728,0,0,0,.78-3.493.305.305,0,0,1,.065-.205.3.3,0,0,0,.066-.2,10.207,10.207,0,0,0-1.167.249,10,10,0,0,1-1.166.249q-.653,3.475-1.171,6.925t-1.042,6.9C527.891,1083.965,527.846,1084.427,527.761,1085.173Zm2.864-18.4a10.007,10.007,0,0,0,1.167-.249,10.224,10.224,0,0,1,1.166-.249q.39-2.394.652-4.964t-.257-3.135l-.259-.219c-.259.041-.5.4-.714,1.085a22.618,22.618,0,0,0-.584,2.3q-.262,1.274-.52,2.415a9.515,9.515,0,0,0-.26,1.4Z" transform="translate(-424.241 -1028.691)" fill="#d89a9e"/><path d="M601.377,1125.792q-.909,1.053-2.334,2.443a36.168,36.168,0,0,1-3.112,2.694,39.6,39.6,0,0,1-3.371,2.346,8.826,8.826,0,0,1-3.242,1.289,4.436,4.436,0,0,1-2.656-.359,4.967,4.967,0,0,1-2.137-2.255,6.986,6.986,0,0,1-.84-3.433,9.3,9.3,0,0,0-.451-3.234q-.65-.025-2.723,1.985t-4.8,4.451q-2.724,2.441-5.577,4.639a11.766,11.766,0,0,1-5.056,2.547,2.736,2.736,0,0,1-2.721-1l-.259-.477a5.289,5.289,0,0,1-.321-3.643,25.533,25.533,0,0,1,1.429-4.568,36.884,36.884,0,0,1,2.271-4.57q1.3-2.214,2.076-3.5a2.121,2.121,0,0,1,1.038-.423,1.333,1.333,0,0,1,1.3.314,1.209,1.209,0,0,1,.453,1.095,2.271,2.271,0,0,1-.584,1.259,15.809,15.809,0,0,0-1.362,2.289q-.974,1.839-1.947,3.871a25.519,25.519,0,0,0-1.493,3.8q-.52,1.768.128,2.313a16.458,16.458,0,0,0,5.316-3.237q3.24-2.65,6.484-5.624t5.9-5.338q2.656-2.364,3.565-2.248c.6.08.884.768.841,2.071s-.089,2.694-.132,4.169a16.1,16.1,0,0,0,.321,3.968,1.716,1.716,0,0,0,2.2,1.467,11.911,11.911,0,0,0,4.279-2.3,66.747,66.747,0,0,0,7.651-6.974,2.625,2.625,0,0,1,1.038-.553,1.548,1.548,0,0,1,1.3.315,1.65,1.65,0,0,1,.388,1.106,1.778,1.778,0,0,1-.649,1.268Z" transform="translate(-453.798 -1062.065)" fill="#d89a9e"/><path d="M651.146,1103.188a3.291,3.291,0,0,1,2.462.389,3.462,3.462,0,0,1,1.294,1.806,9.6,9.6,0,0,1,.453,2.585q.063,1.418.063,2.842a5.169,5.169,0,0,1,.907.635,13.16,13.16,0,0,1,1.554,2.153q.647,1.13,1.295,2.064a5.494,5.494,0,0,0,1.424,1.46,2.62,2.62,0,0,0,1.944.342q1.682-.265,4.927-2.85a12.818,12.818,0,0,0,1.751-1.443q.973-.931,2.01-1.937t2.01-2.067q.972-1.059,1.621-1.681a2.72,2.72,0,0,1,1.166-.573,1.4,1.4,0,0,1,1.166.335q1.165.982,0,2.333-1.167,1.223-2.982,3.063t-3.826,3.585a41.588,41.588,0,0,1-4.02,3.1,9.411,9.411,0,0,1-3.695,1.62l-.26.041a5.27,5.27,0,0,1-3.175-.536,6.927,6.927,0,0,1-2.072-1.812,20.28,20.28,0,0,1-1.554-2.347,9.918,9.918,0,0,0-1.618-2.143,19,19,0,0,0-3.76,2.8q-1.818,1.715-3.566,3.35t-3.372,2.929a6.884,6.884,0,0,1-3.177,1.538,3.236,3.236,0,0,1-1.037.033,3.078,3.078,0,0,1-2.656-1.785,5.987,5.987,0,0,1-.062-3.619,19.1,19.1,0,0,1,1.883-4.639,29.838,29.838,0,0,1,7.329-8.738,14.491,14.491,0,0,1,4.279-2.489A4.975,4.975,0,0,1,651.146,1103.188Zm-3.5,5.088a19.405,19.405,0,0,0-2.594,2.548,46.623,46.623,0,0,0-3.243,4.076,21.2,21.2,0,0,0-2.336,4.062q-.779,1.872.258,2.487a.684.684,0,0,0,.518.048,4.934,4.934,0,0,0,2.139-1.374q1.362-1.25,3.047-2.878t3.438-3.265a18.4,18.4,0,0,1,3.307-2.53v-.389a17.66,17.66,0,0,0-.063-3.49q-.193-1.263-1.23-1.1A8.233,8.233,0,0,0,647.643,1108.276Z" transform="translate(-491.245 -1053.976)" fill="#d89a9e"/><path d="M726.483,1007.749a28.986,28.986,0,0,1,.32,5.264q-.069,2.864-.393,5.7t-.586,4.3q-.521,3.842-1.237,8.361t-1.757,9.091q-1.041,4.573-2.468,9.009a65.415,65.415,0,0,1-3.247,8.224,5.5,5.5,0,0,0-.26,2.05q0,1.492,0,2.139a22.385,22.385,0,0,0,.193,2.627,1.751,1.751,0,0,0,1.619,1.754l.389-.061a8.033,8.033,0,0,0,3.111-1.463,31.559,31.559,0,0,0,3.566-2.9q1.751-1.637,3.307-3.178t2.464-2.463a1.662,1.662,0,0,1,1.038-.552,1.4,1.4,0,0,1,1.166.335,1.651,1.651,0,0,1,.387,1.106,1.415,1.415,0,0,1-.649,1.139q-1.3,1.371-3.048,3.138t-3.7,3.434a38.378,38.378,0,0,1-3.891,2.947,9.426,9.426,0,0,1-3.63,1.545,4.253,4.253,0,0,1-2.851-.328,4.307,4.307,0,0,1-1.619-1.689,7.29,7.29,0,0,1-.775-2.535,21.761,21.761,0,0,1-.193-2.886q0-2.461.133-5.141t.393-5.053q.785-11.011,2.412-21.833t4.357-21.75a12.706,12.706,0,0,1,.844-2.337,2.2,2.2,0,0,1,1.622-1.422,1.708,1.708,0,0,1,1.166.335Q726.095,1005.349,726.483,1007.749Zm-8.71,39.741a2.377,2.377,0,0,0,.129-.669,2.268,2.268,0,0,0,.261-.818q2.077-8.494,3.64-17.036v-.389q.128-.8.586-3.462t.846-5.513q.391-2.849.587-5.213t-.193-2.691c-.174-.145-.346.077-.518.665s-.37,1.27-.585,2.037-.389,1.51-.52,2.221a10.836,10.836,0,0,0-.194,1.326q-1.433,7.226-2.473,14.518t-1.565,14.375C717.685,1047.289,717.685,1047.5,717.772,1047.49Z" transform="translate(-530.261 -1004.317)" fill="#d89a9e"/></g></g></g></svg>