<svg xmlns="http://www.w3.org/2000/svg" width="81.976" height="79" viewBox="0 0 81.976 79"><g transform="translate(-90 -62)"><path d="M34.616-2.435c22.074,0,45.993,6.063,45.993,28.137S74.275,76.565,52.2,76.565-1.367,71.314-1.367,49.24,12.542-2.435,34.616-2.435Z" transform="translate(91.366 64.435)" fill="#ede7e4"/><g transform="translate(115 81.592)"><g transform="translate(0 0)"><g transform="translate(14.603 18.657)"><path d="M234.979,231.982a.317.317,0,0,0-.317.317v.366a.322.322,0,1,1-.645,0V232.3a.317.317,0,0,0-.635,0v.366a.957.957,0,1,0,1.914,0V232.3A.317.317,0,0,0,234.979,231.982Z" transform="translate(-233.383 -231.982)" fill="#b46063"/></g><g transform="translate(19.252 16.157)"><path d="M286.079,203.9a.317.317,0,0,0-.447-.04,1.352,1.352,0,0,1-1.733,0,.317.317,0,0,0-.407.487,1.986,1.986,0,0,0,2.548,0A.317.317,0,0,0,286.079,203.9Z" transform="translate(-283.378 -203.785)" fill="#b46063"/></g><g transform="translate(9.092 16.157)"><path d="M165.724,203.9a.317.317,0,0,0-.447-.04,1.352,1.352,0,0,1-1.733,0,.317.317,0,0,0-.407.487,1.985,1.985,0,0,0,2.548,0A.317.317,0,0,0,165.724,203.9Z" transform="translate(-163.023 -203.785)" fill="#b46063"/></g><g transform="translate(14.808 22.865)"><g transform="translate(0)"><path d="M238.564,282.429a.793.793,0,0,0-.792.792v.334a.792.792,0,0,0,1.585,0v-.334A.793.793,0,0,0,238.564,282.429Zm.158,1.126a.158.158,0,0,1-.315,0v-.334a.158.158,0,0,1,.315,0Z" transform="translate(-237.772 -282.429)" fill="#b46063"/></g></g><g transform="translate(0 0)"><g transform="translate(0 0)"><path d="M85.439,34a4.639,4.639,0,0,0-2.294-2.849c-.438-.232-.885-.448-1.334-.65,2.011-4.611,3.667-10.9,3.29-15.892.595-1.269,1.412-2.073,1.338-3.6,0-.008-.18-3.682-.18-3.69a3.878,3.878,0,0,0-.768-2.163,1.073,1.073,0,0,1-.2-.639V1.342A1.341,1.341,0,0,0,83.949,0H80.755a1.514,1.514,0,0,0-1.512,1.512v1.42A13.794,13.794,0,0,0,77.229,1.6a.582.582,0,0,0-.553,1.023,12.728,12.728,0,0,1,2.566,1.835V5.5a5.213,5.213,0,0,0-.72,1.729,6.537,6.537,0,0,1-2.038,2.016,1.7,1.7,0,0,0-.2,2.749,24.227,24.227,0,0,1-7.593-5.22.751.751,0,0,0-1.206.142,10.724,10.724,0,0,1-1.99,2.5c-.32-.289-2.159-1.424-2.371-2.586a3.362,3.362,0,0,0-.6-1.329V4.462A12.264,12.264,0,0,1,74.259,1.638.582.582,0,0,0,74.58.521,13.4,13.4,0,0,0,62.526,2.934V1.514A1.514,1.514,0,0,0,61.014,0H57.82a1.341,1.341,0,0,0-1.34,1.34c-.06,3.041.145,3.354-.2,3.819a3.879,3.879,0,0,0-.769,2.172.582.582,0,1,0,1.162.046c.058-1.45.972-1.529.972-2.858V1.342a.177.177,0,0,1,.177-.177h3.194a.354.354,0,0,1,.349.349c0,5.25-.136,4.048.352,4.87.376.634.184.768.5,1.378a7.72,7.72,0,0,0,2.4,2.433.924.924,0,0,1,.285.305.508.508,0,0,1-.054.473.627.627,0,0,1-.3.267,1.068,1.068,0,0,1-.952-.165,9.139,9.139,0,0,1-2.3-1.908,1.2,1.2,0,0,0-1.96.394l-.441,1.3c-.43.968.036,1.5,1.073,4.616a.7.7,0,0,1-.367.87.615.615,0,0,1-.8-.265L57.771,14.21h0c-.735-1.509-1.334-2.04-1.28-3.14l.044-.9a.582.582,0,0,0-1.162-.057l-.044.9c-.075,1.527.743,2.332,1.338,3.6-.377,4.995,1.277,11.277,3.29,15.892-.449.2-.9.418-1.334.65A4.64,4.64,0,0,0,56.329,34l-.907,3.283A1.906,1.906,0,0,0,57.259,39.7H75.551a.582.582,0,0,0,0-1.163H61.479V35.688a.582.582,0,0,0-1.163,0v2.848H57.259a.742.742,0,0,1-.715-.94l.907-3.283a3.472,3.472,0,0,1,1.718-2.131,31.647,31.647,0,0,1,7.148-2.553v.481a2.286,2.286,0,0,0,.244,1.023,11.929,11.929,0,0,0,3.034,3.17,2.22,2.22,0,0,0,2.58,0,12.788,12.788,0,0,0,2.849-2.865,2.645,2.645,0,0,0,.43-1.81A31.076,31.076,0,0,1,82.6,32.183a3.472,3.472,0,0,1,1.718,2.131l.907,3.283a.742.742,0,0,1-.715.94H81.453V35.688a.582.582,0,1,0-1.163,0v2.848H78.264a.582.582,0,0,0,0,1.163H84.51a1.9,1.9,0,0,0,1.837-2.413ZM77.162,10.194c1.04-.694,2.367-1.86,2.615-3.088.179-.887.629-.982.629-1.4V1.514a.354.354,0,0,1,.349-.349h3.194a.177.177,0,0,1,.177.177V4.522c0,1.364.862,1.264.973,2.878.006.078.007.073.006.051.008.182.042.944.173,3.62a2.537,2.537,0,0,1-.3,1.331l-1.991,3.682a.616.616,0,0,1-.8.265.7.7,0,0,1-.367-.87l1.13-3.232a1.881,1.881,0,0,0-.057-1.384c0-.008-.448-1.325-.465-1.362a1.2,1.2,0,0,0-1.936-.334c-.436.443-.416.421-.432.439a7.2,7.2,0,0,1-2.126,1.6.744.744,0,0,1-1.044-.318C76.794,10.687,77.132,10.236,77.162,10.194Zm4.059,3.465c-.26-.2-1.353-.24-3.827-1.2a2.1,2.1,0,0,0,1.019-.2,8.341,8.341,0,0,0,2.5-1.869c.327-.3.4-.461.453-.413l.434,1.282a.773.773,0,0,1,.051.6Zm-21.251-2.4L60.4,9.982c.092-.087.523.649,1.618,1.468-.7.209-1.028.212-1.173.275-.705.306-.5,1.1-.533,1.274C59.809,11.543,59.812,11.728,59.97,11.264Zm6.346,17.172a36.047,36.047,0,0,0-5.288,1.618A38.313,38.313,0,0,1,57.78,16.673a1.779,1.779,0,0,0,2.535.594,10.357,10.357,0,0,0,6,10.507v.661Zm7.51,2.661A11.46,11.46,0,0,1,71.5,33.358a1.057,1.057,0,0,1-1.158.046,11.544,11.544,0,0,1-2.73-2.772c-.176-.328-.132-.386-.132-2.4a11.112,11.112,0,0,0,6.811,0C74.29,30.59,74.4,30.364,73.826,31.1ZM70.68,27.6h-.021a9.191,9.191,0,0,1-9.18-8.985c0-6.754,0-5.688,0-5.835a9.2,9.2,0,0,0,1.808-.547,1.868,1.868,0,0,0,2.794-1.774A12.107,12.107,0,0,0,68.21,7.965a26.422,26.422,0,0,0,12.08,6.619v4.029A9.214,9.214,0,0,1,70.68,27.6Zm4.773.836v-.661a10.357,10.357,0,0,0,6-10.507,1.779,1.779,0,0,0,2.535-.594,38.31,38.31,0,0,1-3.247,13.38A35.859,35.859,0,0,0,75.453,28.435Z" transform="translate(-55.325 -0.001)" fill="#b46063"/></g></g></g></g></g></svg>