<svg xmlns="http://www.w3.org/2000/svg" width="81.976" height="79" viewBox="0 0 81.976 79"><g transform="translate(-90 -62)"><path d="M34.616-2.435c22.074,0,45.993,6.063,45.993,28.137S74.275,76.565,52.2,76.565-1.367,71.314-1.367,49.24,12.542-2.435,34.616-2.435Z" transform="translate(91.366 64.435)" fill="#ede7e4"/><g transform="translate(112 84.09)"><g transform="translate(3.931 10.564)"><path d="M83.144,168.978l-4.054-6.261a1.692,1.692,0,0,0-1.425-.775H59.777a1.692,1.692,0,0,0-1.424.773l-4.067,6.262a1.7,1.7,0,0,0,.156,2.054l13,14.6a1.7,1.7,0,0,0,1.268.569h0a1.7,1.7,0,0,0,1.268-.569l13-14.6A1.7,1.7,0,0,0,83.144,168.978Zm-6.3-5.58-3.41,5.272L70.023,163.4ZM72.1,169.282H65.332l3.382-5.227ZM67.406,163.4,64,168.656,60.6,163.4Zm-8.149.6,3.419,5.285H55.824Zm-3.125,6.741h7.325L67.33,183.31Zm12.583,12.121L64.98,170.738h7.469Zm1.384.451,3.873-12.572H81.3Zm4.673-14.028L78.187,164l3.42,5.281Z" transform="translate(-54.014 -161.942)" fill="#b46063"/></g><g transform="translate(0 17.904)"><path d="M2.208,262.793H.728a.728.728,0,0,0,0,1.456h1.48a.728.728,0,0,0,0-1.456Z" transform="translate(0 -262.793)" fill="#b46063"/></g><g transform="translate(34.329 17.904)"><path d="M473.875,262.793h-1.48a.728.728,0,0,0,0,1.456h1.48a.728.728,0,0,0,0-1.456Z" transform="translate(-471.667 -262.793)" fill="#b46063"/></g><g transform="translate(28.157 5.248)"><path d="M390.517,89.11a.728.728,0,0,0-1.029,0l-2.418,2.418a.728.728,0,0,0,1.029,1.029l2.418-2.418A.728.728,0,0,0,390.517,89.11Z" transform="translate(-386.857 -88.897)" fill="#b46063"/></g><g transform="translate(5.267 5.235)"><path d="M76.018,91.349,73.6,88.931a.728.728,0,0,0-1.029,1.029l2.418,2.418a.728.728,0,1,0,1.029-1.029Z" transform="translate(-72.358 -88.718)" fill="#b46063"/></g><g transform="translate(17.923 0)"><path d="M246.982,16.793a.728.728,0,0,0-.728.728v4.743a.728.728,0,1,0,1.456,0V17.521A.728.728,0,0,0,246.982,16.793Z" transform="translate(-246.254 -16.793)" fill="#b46063"/></g><g transform="translate(17.923 7.205)"><path d="M247.492,116a.727.727,0,1,0,.213.515A.733.733,0,0,0,247.492,116Z" transform="translate(-246.25 -115.79)" fill="#b46063"/></g></g></g></svg>