<svg xmlns="http://www.w3.org/2000/svg" width="81.976" height="79" viewBox="0 0 81.976 79"><g transform="translate(-90 -62)"><path d="M34.616-2.435c22.074,0,45.993,6.063,45.993,28.137S74.275,76.565,52.2,76.565-1.367,71.314-1.367,49.24,12.542-2.435,34.616-2.435Z" transform="translate(91.366 64.435)" fill="#ede7e4"/><g transform="translate(114 85.511)"><g transform="translate(7.68 4.064)"><path d="M145.309,64.685a1.219,1.219,0,0,0-1.724,0L128.96,79.27l-5.277-5.731a1.219,1.219,0,1,0-1.794,1.651l6.136,6.664a1.218,1.218,0,0,0,.871.393h.026a1.22,1.22,0,0,0,.861-.356L145.306,66.41A1.219,1.219,0,0,0,145.309,64.685Z" transform="translate(-121.568 -64.327)" fill="#b46063"/></g><g transform="translate(0)"><path d="M31.127,14.954a1.219,1.219,0,0,0-1.219,1.219A13.735,13.735,0,1,1,16.173,2.438a1.219,1.219,0,1,0,0-2.438A16.173,16.173,0,1,0,32.346,16.173,1.219,1.219,0,0,0,31.127,14.954Z" fill="#b46063"/></g></g></g></svg>