<svg xmlns="http://www.w3.org/2000/svg" width="37.388" height="36.03" viewBox="0 0 37.388 36.03"><g transform="translate(-56.875 -16.009)"><path d="M15.044-2.435C25.112-2.435,36.021.33,36.021,10.4S33.132,33.6,23.065,33.6-1.367,31.2-1.367,21.133,4.977-2.435,15.044-2.435Z" transform="translate(58.241 18.444)" fill="#ede7e4"/><g transform="translate(64.683 23.817)"><g transform="translate(5.022 2.657)"><path d="M137.092,64.562a.8.8,0,0,0-1.127,0L126.4,74.1l-3.45-3.748a.8.8,0,0,0-1.173,1.08l4.012,4.358a.8.8,0,0,0,.569.257h.017a.8.8,0,0,0,.563-.233l10.151-10.124A.8.8,0,0,0,137.092,64.562Z" transform="translate(-121.568 -64.327)" fill="#b46063"/></g><path d="M20.355,9.779a.8.8,0,0,0-.8.8,8.981,8.981,0,1,1-8.981-8.982.8.8,0,1,0,0-1.594A10.576,10.576,0,1,0,21.152,10.576.8.8,0,0,0,20.355,9.779Z" fill="#b46063"/></g></g></svg>