<svg xmlns="http://www.w3.org/2000/svg" width="81.976" height="79" viewBox="0 0 81.976 79"><g transform="translate(-90.012 -62)"><path d="M34.616-2.435c22.074,0,45.993,6.063,45.993,28.137S74.275,76.565,52.2,76.565-1.367,71.314-1.367,49.24,12.542-2.435,34.616-2.435Z" transform="translate(91.379 64.435)" fill="#ede7e4"/><g transform="translate(112.739 83.16)"><g transform="translate(0 0)"><path d="M34.668,195.8,32.6,197.877a.7.7,0,0,0-.205.5,5.518,5.518,0,0,1-1.627,3.928L19.7,213.368a1.053,1.053,0,0,1-1.562-1.409l6.409-6.409a.7.7,0,0,0,0-.991l0,0,0,0a.7.7,0,0,0-.991,0l-7.728,7.736a1.053,1.053,0,0,1-1.563-1.409l7.809-7.809a.7.7,0,0,0-.991-.991l-9.091,9.091a1.053,1.053,0,0,1-1.49-1.49l9.1-9.089a.7.7,0,0,0-.991-.991l-8.12,8.112a1.053,1.053,0,0,1-1.409-1.563l2.658-2.658a.7.7,0,0,0-.991-.991l-1.36,1.36-2.7-2.7a13.556,13.556,0,0,1-3.527-6.155.7.7,0,0,0-.182-.318L1.2,192.916a.7.7,0,1,0-.991.991l1.642,1.642a14.96,14.96,0,0,0,3.842,6.606l2.7,2.7-.308.308a2.453,2.453,0,0,0,1.009,4.079,2.454,2.454,0,0,0,3.667,3.115,2.454,2.454,0,0,0,3.877,1.084,2.457,2.457,0,0,0,4.051.918l.9-.9.627.627a2.454,2.454,0,0,0,4.17-1.428,2.476,2.476,0,0,0,.416.036,2.452,2.452,0,0,0,2.454-2.453c0-.009,0-.019,0-.028h.027a2.452,2.452,0,0,0,2.454-2.453,2.485,2.485,0,0,0-.025-.352,2.454,2.454,0,0,0,1.475-4.176l-.741-.741a6.894,6.894,0,0,0,1.347-3.826l1.873-1.873a.7.7,0,0,0-.991-.991ZM24.69,213.1a1.055,1.055,0,0,1-1.49,0l-.62-.62,1.49-1.49.355.355.265.265a1.053,1.053,0,0,1,0,1.49Zm3.159-2.855a1.053,1.053,0,0,1-1.8.745l-.37-.37h0l-.62-.62,1.49-1.49.99.99A1.046,1.046,0,0,1,27.849,210.244Zm2.172-1.736a1.055,1.055,0,0,1-1.49,0l-.99-.99,1.49-1.49.99.99a1.053,1.053,0,0,1,0,1.49Zm2.168-2.792a1.053,1.053,0,0,1-1.49,0l-.678-.678,1.49-1.49.678.678a1.053,1.053,0,0,1,0,1.49Z" transform="translate(0 -179.213)" fill="#b46063"/><path d="M8.311,9.312a.7.7,0,0,0,.5.205h3.615a11.453,11.453,0,0,1,7.2,2.555L25.312,16.7a4.587,4.587,0,0,1-4.786.279l-3.873-2.1a.7.7,0,0,0-.536-.054,13,13,0,0,1-7.485.019l-.069-.02a.7.7,0,1,0-.4,1.343l.069.02a14.393,14.393,0,0,0,8.005.061l1.009.547L15.2,18.846a.7.7,0,0,0,.991.991l2.348-2.348,1.325.718a5.908,5.908,0,0,0,2.825.72,6.043,6.043,0,0,0,.869-.063,5.912,5.912,0,0,0,3.353-1.682.7.7,0,0,0-.054-1.039L21.2,11.55a10.749,10.749,0,0,1,5.6-1.615.7.7,0,0,0,.491-.205l8.364-8.364a.7.7,0,0,0-.991-.991L26.5,8.54a12.145,12.145,0,0,0-6.46,2.09,12.862,12.862,0,0,0-7.622-2.513H9.1L1.2.215A.7.7,0,0,0,.2,1.206Z" transform="translate(0.001 -0.01)" fill="#b46063"/><path d="M182.406,298a.7.7,0,1,0,.5-.205A.7.7,0,0,0,182.406,298Z" transform="translate(-169.438 -276.94)" fill="#b46063"/></g></g></g></svg>