<svg xmlns="http://www.w3.org/2000/svg" width="81.976" height="79" viewBox="0 0 81.976 79"><g transform="translate(-90 -62.167)"><path d="M34.616-2.435c22.074,0,45.993,6.063,45.993,28.137S74.275,76.565,52.2,76.565-1.367,71.314-1.367,49.24,12.542-2.435,34.616-2.435Z" transform="translate(91.367 64.602)" fill="#ede7e4"/><g transform="translate(111 82.543)"><path d="M207.489,201.175l-6.438-6.438,3.157-3.157a1.116,1.116,0,0,0-.436-1.848l-18.944-6.315a1.116,1.116,0,0,0-1.412,1.412l6.315,18.944a1.116,1.116,0,0,0,1.848.436l3.157-3.157,6.438,6.438a1.116,1.116,0,0,0,1.579,0l4.736-4.736A1.116,1.116,0,0,0,207.489,201.175Zm-5.525,3.947-6.438-6.438a1.116,1.116,0,0,0-1.579,0l-2.669,2.669-5.037-15.112,15.112,5.037-2.669,2.669a1.117,1.117,0,0,0,0,1.579l6.438,6.438Z" transform="translate(-169.715 -169.715)" fill="#b46063"/><path d="M181.116,8.93a1.116,1.116,0,0,0,1.116-1.116v-6.7a1.116,1.116,0,1,0-2.233,0v6.7A1.116,1.116,0,0,0,181.116,8.93Z" transform="translate(-166.605 0)" fill="#b46063"/><path d="M54.626,53.047a1.116,1.116,0,1,0-1.579,1.579l4.736,4.736a1.116,1.116,0,1,0,1.579-1.579Z" transform="translate(-48.797 -48.797)" fill="#b46063"/><path d="M57.783,243.966,53.047,248.7a1.116,1.116,0,1,0,1.579,1.579l4.736-4.736a1.116,1.116,0,0,0-1.579-1.579Z" transform="translate(-48.797 -225.509)" fill="#b46063"/><path d="M245.545,59.362l4.736-4.736a1.116,1.116,0,0,0-1.579-1.579l-4.736,4.736a1.116,1.116,0,0,0,1.579,1.579Z" transform="translate(-225.508 -48.797)" fill="#b46063"/><path d="M8.93,181.116A1.116,1.116,0,0,0,7.814,180h-6.7a1.116,1.116,0,1,0,0,2.233h6.7A1.116,1.116,0,0,0,8.93,181.116Z" transform="translate(0 -166.605)" fill="#b46063"/></g></g></svg>