<svg xmlns="http://www.w3.org/2000/svg" width="39.982" height="38.53" viewBox="0 0 39.982 38.53"><g transform="translate(-523.875)"><path d="M16.183-2.435c10.766,0,22.432,2.957,22.432,13.723S35.526,36.1,24.76,36.1-1.367,33.534-1.367,22.768,5.417-2.435,16.183-2.435Z" transform="translate(525.241 2.435)" fill="#ede7e4"/><g transform="translate(556.359 33.704) rotate(180)"><g transform="translate(5.711 10.513)"><path d="M13.083,8.914A.424.424,0,0,0,12.49,9a6.432,6.432,0,0,1-5.121,2.59h-.1A6.5,6.5,0,0,1,.848,5.169,6.492,6.492,0,0,1,2.354.984C2.424.9,2.5.81,2.592.712A.424.424,0,1,0,1.971.136c-.1.111-.193.214-.274.314A7.329,7.329,0,0,0,0,5.176a7.35,7.35,0,0,0,7.27,7.259h.1a7.274,7.274,0,0,0,5.794-2.928A.423.423,0,0,0,13.083,8.914Z" fill="#b46063"/></g><g transform="translate(9.01 0)"><path d="M9.644,10.963a11.205,11.205,0,0,0-.828-.875A4.009,4.009,0,0,1,7.379,7.936a2.179,2.179,0,0,1-.008-.285.694.694,0,0,0,.568-.682V5.844a.69.69,0,0,0-.055-.27.689.689,0,0,0,.055-.27V4.178a.694.694,0,0,0-.694-.694h-.2v-.9a.948.948,0,0,0-.268-.663l-.4-.417h0A.957.957,0,0,0,5.9,1.241v-.6A.645.645,0,0,0,5.255,0H2.787a.645.645,0,0,0-.644.644v.6a.957.957,0,0,0-.472.265l-.4.417A.948.948,0,0,0,1,2.586v.9H.8A.694.694,0,0,0,.1,4.178V5.3a.69.69,0,0,0,.055.27.689.689,0,0,0-.055.27V6.969a.694.694,0,0,0,.568.682,2.184,2.184,0,0,1-.008.285A2.4,2.4,0,0,1,.092,9.165a.424.424,0,1,0,.665.526A3.247,3.247,0,0,0,1.505,8.03a2.846,2.846,0,0,0,.014-.367h.726V9.694a.249.249,0,0,1-.052.153L.231,12.365A1.1,1.1,0,0,0,0,13.038v.9a.424.424,0,0,0,.848,0V13.3l.578.367a.649.649,0,0,0,.693,0l.778-.493.777.493a.649.649,0,0,0,.693,0l.778-.493.778.493a.649.649,0,0,0,.693,0l.579-.367v.635a.424.424,0,1,0,.848,0v-.9a1.1,1.1,0,0,0-.231-.674L5.849,9.847A.25.25,0,0,1,5.8,9.694V7.663h.726a2.84,2.84,0,0,0,.014.367,4.677,4.677,0,0,0,1.685,2.662,10.445,10.445,0,0,1,.765.806,6.492,6.492,0,0,1,1.506,4.185,6.4,6.4,0,0,1-.388,2.15.424.424,0,1,0,.8.291,7.254,7.254,0,0,0,.439-2.434A7.33,7.33,0,0,0,9.644,10.963ZM2.99.848H5.052v.368H2.99ZM1.846,2.586h0a.1.1,0,0,1,.029-.073l.4-.417a.106.106,0,0,1,.075-.032H5.686a.106.106,0,0,1,.075.032l.4.417a.1.1,0,0,1,.03.073v.9H1.846ZM.95,4.333H7.092V5.15H.95Zm5.9,8.182-.584.37-.778-.493a.649.649,0,0,0-.693,0l-.778.493-.778-.493a.65.65,0,0,0-.693,0l-.778.493-.583-.37,1.672-2.147a1.1,1.1,0,0,0,.231-.673V7.663H4.949V9.694a1.1,1.1,0,0,0,.231.673Zm.239-5.7H.95V6H7.092v.817Z" fill="#b46063"/></g><g transform="translate(12.607 25.171)"><path d="M.424,0A.424.424,0,0,0,0,.424V3.283a.424.424,0,1,0,.848,0V.424A.424.424,0,0,0,.424,0Z" fill="#b46063"/></g><g transform="translate(3.693 6.509)"><path d="M2.745,2.146.724.124a.424.424,0,0,0-.6.6L2.146,2.745a.424.424,0,1,0,.6-.6Z" fill="#b46063"/></g><g transform="translate(19.5 22.316)"><path d="M2.745,2.146.724.124a.424.424,0,0,0-.6.6L2.146,2.745a.424.424,0,1,0,.6-.6Z" fill="#b46063"/></g><g transform="translate(0 15.423)"><path d="M3.283,0H.424a.424.424,0,1,0,0,.848H3.283a.424.424,0,0,0,0-.848Z" fill="#b46063"/></g><g transform="translate(22.355 15.423)"><path d="M3.283,0H.424a.424.424,0,1,0,0,.848H3.283a.424.424,0,1,0,0-.848Z" fill="#b46063"/></g><g transform="translate(3.693 22.316)"><path d="M2.745.124a.424.424,0,0,0-.6,0L.124,2.146a.424.424,0,0,0,.6.6L2.745.724A.424.424,0,0,0,2.745.124Z" fill="#b46063"/></g><g transform="translate(19.5 6.509)"><path d="M2.745.124a.424.424,0,0,0-.6,0L.124,2.146a.424.424,0,0,0,.6.6L2.745.724A.424.424,0,0,0,2.745.124Z" fill="#b46063"/></g></g></g></svg>