<svg xmlns="http://www.w3.org/2000/svg" width="81.976" height="79" viewBox="0 0 81.976 79"><g transform="translate(-78 -32)"><path d="M34.616-2.435c22.074,0,45.993,6.063,45.993,28.137S74.275,76.565,52.2,76.565-1.367,71.314-1.367,49.24,12.542-2.435,34.616-2.435Z" transform="translate(79.367 34.435)" fill="#ede7e4"/><g transform="translate(99.16 51.592)"><path d="M329.95,40.877a.434.434,0,0,0,.614,0l3.023-3.023a2.221,2.221,0,0,0-3.142-3.142l-.188.188-.188-.188a2.221,2.221,0,1,0-3.142,3.141Zm-2.409-5.551a1.356,1.356,0,0,1,1.914,0l.495.495a.434.434,0,0,0,.614,0l.495-.495a1.354,1.354,0,1,1,1.914,1.914l-2.716,2.716-2.716-2.716a1.353,1.353,0,0,1,0-1.914Zm0,0" transform="translate(-295.925 -32.327)" fill="#b46063"/><path d="M38.138,38.886a18.816,18.816,0,0,1-10.321-1.927.668.668,0,0,0-.508-.065c-.072.019-7.28,1.951-13.086.663C10.6,36.753,7.19,34.2,4.7,32.342c-.335-.25-.652-.487-.95-.7a7.616,7.616,0,0,0-1.624-.763c-.256-.1-.607-.232-.682-.279a.263.263,0,0,1-.1-.212V28.829C1.373,27.6,6.528,8.679,7.327,6.272a.518.518,0,0,1,.153-.111l10.2-4.66,3.3,4.294a.591.591,0,0,1-.036.739l-3.259,3.654a.581.581,0,0,1-.8.079L15.573,9.052a.675.675,0,0,0-.58-.151.7.7,0,0,0-.486.371,3.657,3.657,0,0,1-2.126.49l-.332-.034a.663.663,0,0,0-.654.341.67.67,0,0,0,.055.736c.283.366.5.66.629.828l.652,11.089a4.88,4.88,0,0,1-.867,2.112.67.67,0,0,0,.2,1.31c.76,0,1.407-1,1.925-2.95a8.2,8.2,0,0,1,10.351.086c1.694,1.7,1.8,2.829,1.8,2.879a.671.671,0,0,0,1.341-.015c0-.154-.056-1.477-1.791-3.388a8.553,8.553,0,0,1,5.552-3.423A9.727,9.727,0,0,1,37.788,21.3a.67.67,0,0,0,.848-1.038A10.936,10.936,0,0,0,31.1,18a9.8,9.8,0,0,0-6.418,3.865,9.53,9.53,0,0,0-10.672-.311l-.6-10.2a.666.666,0,0,0-.1-.311,4.405,4.405,0,0,0,1.833-.569l.864.8a1.922,1.922,0,0,0,2.681-.193l3.259-3.654a1.943,1.943,0,0,0,.109-2.435L18.421.262a.67.67,0,0,0-.81-.2L6.932,4.938a1.63,1.63,0,0,0-.864.883C5.688,6.961,0,27.246,0,28.826v1.556A1.6,1.6,0,0,0,.614,31.65a4.259,4.259,0,0,0,1.03.476,7.269,7.269,0,0,1,1.311.593c.295.215.608.45.939.7,2.59,1.934,6.137,4.583,10.037,5.45C19.485,40.1,26,38.608,27.4,38.256a20.091,20.091,0,0,0,8.837,2.075,18.45,18.45,0,0,0,2.048-.113.67.67,0,1,0-.148-1.332Zm0,0" transform="translate(0 0)" fill="#b46063"/><path d="M426.377,383.351a.434.434,0,0,0-.865.048c0,.29.214,1.271,2.966,1.729a.434.434,0,1,0,.143-.856C426.7,383.951,426.4,383.408,426.377,383.351Zm0,0" transform="translate(-390.1 -351.832)" fill="#b46063"/><path d="M111.142,377.5c-5.683,1.217-8.114-2.671-8.215-2.837a.434.434,0,0,0-.744.448,7.446,7.446,0,0,0,2.2,2.146,8.416,8.416,0,0,0,4.666,1.342,10.87,10.87,0,0,0,2.278-.251.434.434,0,0,0-.182-.849Zm0,0" transform="translate(-92.343 -341.137)" fill="#b46063"/></g></g></svg>