<svg xmlns="http://www.w3.org/2000/svg" width="42.564" height="41.018" viewBox="0 0 42.564 41.018"><g transform="translate(-4595.875 -2860.491)"><path d="M17.316-2.435C28.778-2.435,41.2.713,41.2,12.174s-3.289,26.409-14.75,26.409S-1.367,35.857-1.367,24.4,5.855-2.435,17.316-2.435Z" transform="translate(4597.241 2862.926)" fill="#ede7e4"/><g transform="translate(4602.712 2868.696)"><g transform="translate(11.963 11.432)"><path d="M252.4,240.558a.476.476,0,1,0,0,.672A.476.476,0,0,0,252.4,240.558Z" transform="translate(-251.587 -240.418)" fill="#b46063"/></g><g transform="translate(14.769 4.822)"><path d="M314.661,102.112a2.377,2.377,0,1,0,0,3.362A2.376,2.376,0,0,0,314.661,102.112Zm-.672,2.69a1.427,1.427,0,1,1,0-2.017A1.428,1.428,0,0,1,313.988,104.8Z" transform="translate(-310.603 -101.415)" fill="#b46063"/></g><g transform="translate(4.566 0)"><g transform="translate(0 0)"><path d="M115.658.139A.474.474,0,0,0,115.305,0a21.123,21.123,0,0,0-5.71,1.182,15.92,15.92,0,0,0-6.041,3.664c-.352.352-.694.725-1.022,1.112a3.485,3.485,0,0,0-3.583-.206c-1.811.969-2.932,3.6-2.932,5.482a.476.476,0,0,0,.812.336,3.027,3.027,0,0,1,2.518-.845l.167.167a16.728,16.728,0,0,0-.785,2.309,1.346,1.346,0,0,0,.058.826,4.5,4.5,0,0,0-1.284.905c-1.224,1.224-1.473,4.207-1.482,4.333a.475.475,0,0,0,.474.513h.037c.126-.01,3.109-.258,4.333-1.482a4.5,4.5,0,0,0,.905-1.284,1.343,1.343,0,0,0,.826.057,16.727,16.727,0,0,0,2.309-.785l.167.167a3.027,3.027,0,0,1-.845,2.518.475.475,0,0,0,.336.812c1.882,0,4.513-1.121,5.482-2.932a3.485,3.485,0,0,0-.206-3.583c.387-.327.761-.67,1.112-1.022A15.921,15.921,0,0,0,114.615,6.2,21.124,21.124,0,0,0,115.8.492.476.476,0,0,0,115.658.139ZM97.081,10.212A5.494,5.494,0,0,1,99.4,6.591a2.533,2.533,0,0,1,2.532.119,19.228,19.228,0,0,0-2,3.257.5.5,0,0,0-.252-.148A4.064,4.064,0,0,0,97.081,10.212Zm3.111,7.411a6.473,6.473,0,0,1-3.157,1.139,6.474,6.474,0,0,1,1.139-3.157,3.427,3.427,0,0,1,1.217-.8l1.6,1.6A3.426,3.426,0,0,1,100.192,17.623Zm2.168-1.475a.446.446,0,0,1-.415-.135l-.931-.931-1.228-1.228a.446.446,0,0,1-.135-.416,15.436,15.436,0,0,1,.594-1.816l3.932,3.932A15.43,15.43,0,0,1,102.36,16.148Zm6.847.251a5.494,5.494,0,0,1-3.621,2.317,4.047,4.047,0,0,0,.39-2.611.5.5,0,0,0-.145-.24,19.232,19.232,0,0,0,3.256-2A2.534,2.534,0,0,1,109.207,16.4Zm1.072-4.828a17.258,17.258,0,0,1-1.371,1.23,18.269,18.269,0,0,1-3.791,2.35l-4.471-4.47A18.266,18.266,0,0,1,103,6.89a17.26,17.26,0,0,1,1.23-1.371,14.827,14.827,0,0,1,5.4-3.337l3.984,3.984A14.826,14.826,0,0,1,110.279,11.571Zm3.679-6.408L110.635,1.84a21.377,21.377,0,0,1,4.172-.849A21.383,21.383,0,0,1,113.958,5.163Z" transform="translate(-96.018 0)" fill="#b46063"/></g></g><g transform="translate(9.273 19.501)"><path d="M197.177,410.26a.476.476,0,0,0-.672,0l-1.345,1.345a.475.475,0,0,0,.673.672l1.345-1.345A.476.476,0,0,0,197.177,410.26Z" transform="translate(-195.021 -410.121)" fill="#b46063"/></g><g transform="translate(2.548 12.777)"><path d="M55.749,268.841a.476.476,0,0,0-.672,0l-1.345,1.345a.475.475,0,1,0,.672.672l1.345-1.345A.476.476,0,0,0,55.749,268.841Z" transform="translate(-53.592 -268.701)" fill="#b46063"/></g><g transform="translate(4.035 20.174)"><path d="M88.884,424.41a.476.476,0,0,0-.672,0l-3.221,3.221a.475.475,0,1,0,.672.672l3.221-3.221A.475.475,0,0,0,88.884,424.41Z" transform="translate(-84.851 -424.271)" fill="#b46063"/></g><g transform="translate(0.231 20.174)"><path d="M8.884,424.41a.476.476,0,0,0-.672,0l-3.221,3.221a.475.475,0,1,0,.672.672l3.221-3.221A.475.475,0,0,0,8.884,424.41Z" transform="translate(-4.851 -424.271)" fill="#b46063"/></g><g transform="translate(0 16.139)"><g transform="translate(0)"><path d="M4.034,339.549a.476.476,0,0,0-.672,0L.141,342.77a.475.475,0,1,0,.672.672l3.221-3.221A.476.476,0,0,0,4.034,339.549Z" transform="translate(-0.001 -339.41)" fill="#b46063"/></g></g><g transform="translate(13.308 9.414)"><path d="M281.355,198.13a.475.475,0,0,0-.672,0l-.672.672a.476.476,0,0,0,.673.672l.672-.672A.475.475,0,0,0,281.355,198.13Z" transform="translate(-279.871 -197.99)" fill="#b46063"/></g></g></g></svg>