<svg xmlns="http://www.w3.org/2000/svg" width="42.172" height="40.641" viewBox="0 0 42.172 40.641"><g transform="translate(-4916.938 -2861.601)"><path d="M17.144-2.435C28.5-2.435,40.805.684,40.805,12.04S37.547,38.206,26.191,38.206-1.367,35.5-1.367,24.149,5.789-2.435,17.144-2.435Z" transform="translate(4918.305 2864.036)" fill="#ede7e4"/><g transform="translate(4927.101 2871.086)"><path d="M19.171.067a1.157,1.157,0,0,0-1.541,1.1V3.382h-8.9a1.154,1.154,0,0,0-.822.34l-.845.845a.529.529,0,0,1-.747,0l-.845-.845a1.155,1.155,0,0,0-.822-.34H4.023V1.166a1.167,1.167,0,0,0-.491-.95A1.141,1.141,0,0,0,2.482.067,3.7,3.7,0,0,0,.008,3.557V17.94a3.7,3.7,0,0,0,3.7,3.7h8.646a1.154,1.154,0,0,0,.822-.34l.845-.845a.529.529,0,0,1,.747,0l.845.845a1.155,1.155,0,0,0,.822.34h1.515a3.674,3.674,0,0,0,2.134-.678.317.317,0,1,0-.366-.517A3.043,3.043,0,0,1,17.947,21H16.433a.525.525,0,0,1-.373-.155L15.214,20a1.164,1.164,0,0,0-1.644,0l-.845.845a.525.525,0,0,1-.373.155H3.706a3.064,3.064,0,0,1-.618-6.065,1.166,1.166,0,0,0,.935-1.133V11.651a.317.317,0,1,0-.634,0v2.155a.523.523,0,0,1-.428.512A3.693,3.693,0,0,0,.642,15.875V3.557A3.068,3.068,0,0,1,2.692.665a.515.515,0,0,1,.473.068.525.525,0,0,1,.224.433v9.217a.317.317,0,1,0,.634,0V4.016h.622a.524.524,0,0,1,.373.155l.845.845a1.164,1.164,0,0,0,1.644,0l.845-.845a.525.525,0,0,1,.373-.155h8.9V8.124a1.154,1.154,0,0,0,.34.822l.845.845a.528.528,0,0,1,0,.747l-.845.845a1.155,1.155,0,0,0-.34.822v1.6a1.166,1.166,0,0,0,.935,1.133,3.065,3.065,0,0,1,1.917,4.723.317.317,0,1,0,.524.357,3.679,3.679,0,0,0,.639-2.079V3.557A3.7,3.7,0,0,0,19.171.067Zm-.479,14.251a.523.523,0,0,1-.428-.512v-1.6a.525.525,0,0,1,.155-.374l.845-.845a1.164,1.164,0,0,0,0-1.644L18.419,8.5a.532.532,0,0,1-.155-.373V1.166a.528.528,0,0,1,.525-.531.52.52,0,0,1,.172.03,3.068,3.068,0,0,1,2.05,2.892V15.875A3.693,3.693,0,0,0,18.692,14.318Z" transform="translate(-0.008 0)" fill="#b46063"/><path d="M135.677,147.147a1.585,1.585,0,1,0-1.585,1.585A1.587,1.587,0,0,0,135.677,147.147Zm-1.585.951a.951.951,0,1,1,.951-.951A.952.952,0,0,1,134.093,148.1Z" transform="translate(-126.909 -139.411)" fill="#b46063"/><path d="M326.741,317.481a.317.317,0,0,0-.448,0l-.621.621-.621-.621a.317.317,0,1,0-.448.448l.621.621-.621.621a.317.317,0,0,0,.448.448l.621-.621.621.621a.317.317,0,1,0,.448-.448l-.621-.621.621-.621A.317.317,0,0,0,326.741,317.481Z" transform="translate(-310.796 -303.975)" fill="#b46063"/><path d="M232.825,176.2h.317a.317.317,0,1,0,0-.634h-.317a.317.317,0,0,0,0,.634Z" transform="translate(-222.683 -168.143)" fill="#b46063"/><path d="M346.817,203.01h.016a.317.317,0,0,0,.316-.3q0-.049,0-.1a1.951,1.951,0,0,0-.1-.633.317.317,0,1,0-.6.205,1.318,1.318,0,0,1,.071.428q0,.034,0,.067A.317.317,0,0,0,346.817,203.01Z" transform="translate(-331.791 -193.237)" fill="#b46063"/><path d="M270.73,175.879a.317.317,0,0,0-.317-.317h-.623a.317.317,0,1,0,0,.634h.623A.317.317,0,0,0,270.73,175.879Z" transform="translate(-258.086 -168.143)" fill="#b46063"/><path d="M281.551,253.371a.317.317,0,0,0-.317-.317h-.623a.317.317,0,0,0,0,.634h.623A.317.317,0,0,0,281.551,253.371Z" transform="translate(-268.45 -242.36)" fill="#b46063"/><path d="M314.574,176.568a.317.317,0,0,0,.147-.6,1.939,1.939,0,0,0-.708-.212.317.317,0,1,0-.063.631,1.305,1.305,0,0,1,.477.143A.316.316,0,0,0,314.574,176.568Z" transform="translate(-300.409 -168.329)" fill="#b46063"/><path d="M324.453,243.358a.316.316,0,0,0,.118-.023,1.948,1.948,0,0,0,.621-.4.317.317,0,0,0-.437-.459,1.316,1.316,0,0,1-.42.27.317.317,0,0,0,.118.611Z" transform="translate(-310.438 -232.146)" fill="#b46063"/><path d="M201.858,424.516a.317.317,0,0,0,.085-.012,2.268,2.268,0,0,0,.654-.3.317.317,0,1,0-.353-.527,1.637,1.637,0,0,1-.472.217.317.317,0,0,0,.085.622Z" transform="translate(-193.024 -405.721)" fill="#b46063"/><path d="M192.213,253.688h.623a.317.317,0,0,0,0-.634h-.623a.317.317,0,0,0,0,.634Z" transform="translate(-183.787 -242.36)" fill="#b46063"/><path d="M159.985,421.774a2.276,2.276,0,0,0,.625.358.317.317,0,0,0,.224-.593,1.644,1.644,0,0,1-.451-.258.317.317,0,0,0-.4.494Z" transform="translate(-153.112 -403.41)" fill="#b46063"/><path d="M232.943,387.642a.317.317,0,0,0,.406-.19,2.273,2.273,0,0,0,.135-.707.317.317,0,0,0-.307-.327h-.01a.317.317,0,0,0-.317.307,1.643,1.643,0,0,1-.1.511A.317.317,0,0,0,232.943,387.642Z" transform="translate(-222.899 -370.088)" fill="#b46063"/><path d="M142.825,295.2a.317.317,0,0,0,.317-.317v-.623a.317.317,0,0,0-.634,0v.623A.317.317,0,0,0,142.825,295.2Z" transform="translate(-136.486 -281.518)" fill="#b46063"/><path d="M142.508,339.079a.317.317,0,0,0,.634,0v-.623a.317.317,0,1,0-.634,0Z" transform="translate(-136.486 -323.849)" fill="#b46063"/><path d="M152.3,258.435a1.32,1.32,0,0,1,.39-.313.317.317,0,0,0-.3-.56,1.953,1.953,0,0,0-.576.462.317.317,0,0,0,.483.411Z" transform="translate(-145.33 -246.642)" fill="#b46063"/><path d="M142.508,382.765a2.286,2.286,0,0,0,.076.587.317.317,0,1,0,.613-.163,1.656,1.656,0,0,1-.055-.424v-.111a.317.317,0,1,0-.634,0Z" transform="translate(-136.486 -366.18)" fill="#b46063"/><path d="M237.036,253.054h-.623a.317.317,0,0,0,0,.634h.623a.317.317,0,1,0,0-.634Z" transform="translate(-226.119 -242.36)" fill="#b46063"/><path d="M240.743,347.339a1.322,1.322,0,0,1,.316-.387.317.317,0,0,0-.407-.486,1.953,1.953,0,0,0-.467.571.317.317,0,1,0,.558.3Z" transform="translate(-229.999 -331.754)" fill="#b46063"/><path d="M277.325,338.021h.317a.317.317,0,1,0,0-.634h-.317a.317.317,0,1,0,0,.634Z" transform="translate(-265.302 -323.129)" fill="#b46063"/></g></g></svg>