<svg xmlns="http://www.w3.org/2000/svg" width="81.976" height="79" viewBox="0 0 81.976 79"><g transform="translate(-90 -62)"><path d="M34.616-2.435c22.074,0,45.993,6.063,45.993,28.137S74.275,76.565,52.2,76.565-1.367,71.314-1.367,49.24,12.542-2.435,34.616-2.435Z" transform="translate(91.367 64.435)" fill="#ede7e4"/><g transform="translate(111 81.592)"><g transform="translate(0 0)"><path d="M40.58,5.782a.777.777,0,0,0-.671-.505l-4.24-.317L35.352.72A.778.778,0,0,0,34.026.228L30.637,3.617a3.123,3.123,0,0,0-.916,2.1c0,.014,0,.028,0,.042l.046,2.6A17.718,17.718,0,1,0,32.3,10.866l2.567.041h.041a3.123,3.123,0,0,0,2.1-.916L40.4,6.6a.778.778,0,0,0,.179-.821ZM31.737,4.717l2.19-2.19.214,2.861L31.321,8.214l-.044-2.458a1.571,1.571,0,0,1,.46-1.039ZM18.656,38.267A16.143,16.143,0,1,1,29.427,10.109l-1.8,1.8A13.587,13.587,0,0,0,14.046,9.329a.778.778,0,1,0,.528,1.463,12.034,12.034,0,0,1,11.949,2.221l-1.8,1.8a9.5,9.5,0,1,0-1.747,15.768.778.778,0,1,0-.709-1.385,7.841,7.841,0,0,1-3.607.867,7.944,7.944,0,1,1,4.958-14.145L21.8,17.736a5.407,5.407,0,1,0,1.121,1.079l1.808-1.808A7.936,7.936,0,0,1,26.2,24.622a.778.778,0,0,0,1.476.49A9.492,9.492,0,0,0,25.831,15.9l1.8-1.8a12.044,12.044,0,1,1-18.71.933.778.778,0,0,0-1.256-.917A13.6,13.6,0,1,0,28.734,13l1.8-1.8A16.135,16.135,0,0,1,18.656,38.267ZM22.5,22.123a3.847,3.847,0,1,1-1.821-3.267L18.2,21.337a.778.778,0,1,0,1.1,1.1l2.51-2.51A3.822,3.822,0,0,1,22.5,22.123ZM35.912,8.892a1.573,1.573,0,0,1-1.039.46l-2.449-.04,1.494-1.494c.017-.017.032-.034.047-.052l1.277-1.279L38.1,6.7Z" transform="translate(-0.956 -0.001)" fill="#b46063"/></g></g></g></svg>