<svg xmlns="http://www.w3.org/2000/svg" width="82.074" height="79.095" viewBox="0 0 82.074 79.095"><g transform="translate(1401 -5197)"><g transform="translate(-1401 5197)"><path d="M34.659-2.435c22.1,0,46.048,6.07,46.048,28.171S74.366,76.66,52.266,76.66-1.367,71.4-1.367,49.3,12.559-2.435,34.659-2.435Z" transform="translate(1.367 2.435)" fill="#b46063"/><g transform="translate(20.4 22.095)"><g transform="translate(9.8 5.186)"><path d="M151.861,64.784a1.555,1.555,0,0,0-2.2,0L131,83.394l-6.733-7.313a1.556,1.556,0,1,0-2.289,2.107l7.83,8.5a1.554,1.554,0,0,0,1.111.5h.033a1.557,1.557,0,0,0,1.1-.454l19.807-19.755A1.555,1.555,0,0,0,151.861,64.784Z" transform="translate(-121.568 -64.327)" fill="#fff" stroke="#b46063" stroke-width="1"/></g><path d="M39.718,19.081a1.555,1.555,0,0,0-1.555,1.556A17.526,17.526,0,1,1,20.637,3.111a1.556,1.556,0,1,0,0-3.111A20.637,20.637,0,1,0,41.274,20.637,1.555,1.555,0,0,0,39.718,19.081Z" fill="#fff" stroke="#b46063" stroke-width="1"/></g></g></g></svg>