<svg xmlns="http://www.w3.org/2000/svg" width="82.074" height="79.095" viewBox="0 0 82.074 79.095"><g transform="translate(1401 -5197.095)"><g transform="translate(-1401 5197.095)"><path d="M34.659-2.435c22.1,0,46.048,6.07,46.048,28.171S74.366,76.66,52.266,76.66-1.367,71.4-1.367,49.3,12.559-2.435,34.659-2.435Z" transform="translate(1.367 2.435)" fill="#b46063"/></g><g transform="translate(-1381 5215.095)"><path d="M84.559,209.012l1.228-.485.969,2.456-1.228.485Zm0,0" transform="translate(-77.581 -191.321)" fill="#fff"/><path d="M40.926,18.157v2.9l-19.8,10.221L1.32,21.056V18.477l19.8-15.651L22.8,4.154l.819-1.036-2.5-1.974L0,17.838v25.4H42.246V18.157ZM1.32,22.542l18.364,9.478L1.32,41.5ZM3.379,41.921l17.744-9.159,17.744,9.159ZM40.926,41.5,22.562,32.019l18.364-9.478Zm0,0" transform="translate(0 -1.05)" fill="#fff"/><path d="M112.266,50.153l-6.754,2.666,2.423,6.139,2.456-.969,2.178,5.526,3.684-1.452-2.178-5.526.614-.242a14.443,14.443,0,0,1,10.851-.028l1.436.594-6.119-15.509-.645,1.412a14.442,14.442,0,0,1-7.946,7.389Zm-3.588,7.093-1.452-3.684,4.912-1.939,1.452,3.684Zm5.865,4.072-1.228.484-1.7-4.3,1.228-.484Zm10.1-6.77a15.808,15.808,0,0,0-9.816.3l-1.473-3.734a15.814,15.814,0,0,0,7.376-6.484Zm0,0" transform="translate(-96.806 -37.94)" fill="#fff"/><path d="M392.838,7.751a11.8,11.8,0,0,1-.148,9.093l1.211.528A13.215,13.215,0,0,0,387.048,0l-.528,1.211a11.8,11.8,0,0,1,6.319,6.54Zm0,0" transform="translate(-354.628)" fill="#fff"/><path d="M371.62,49.594a7.869,7.869,0,0,1-.1,6.06l1.214.523a9.252,9.252,0,0,0-4.8-12.155l-.528,1.211a7.869,7.869,0,0,1,4.214,4.36Zm0,0" transform="translate(-337.091 -40.391)" fill="#fff"/><path d="M350.355,94.476l1.212.528a5.288,5.288,0,0,0-2.742-6.95l-.528,1.211A3.965,3.965,0,0,1,350.355,94.476Zm0,0" transform="translate(-319.558 -80.789)" fill="#fff"/></g></g></svg>