<svg xmlns="http://www.w3.org/2000/svg" width="104.602" height="100.805" viewBox="0 0 104.602 100.805"><g transform="translate(-127 -33)"><path d="M44.548-2.435c28.167,0,58.688,7.737,58.688,35.9s-8.082,64.9-36.249,64.9S-1.367,91.669-1.367,63.5,16.381-2.435,44.548-2.435Z" transform="translate(128.367 35.435)" fill="#ede7e4"/><g transform="translate(152.566 56.425)"><path d="M52.987,19.706h-2.3V3.543A3.571,3.571,0,0,0,47.143,0H21.919a3.555,3.555,0,0,0-3.527,3.543V19.706H16.514a.834.834,0,0,0-.858.843v.084a8.6,8.6,0,0,0-1.939-.228,8.472,8.472,0,0,0-8.462,8.467v5.182a8.605,8.605,0,0,0,2.439,6.052,7.871,7.871,0,0,0,1.174,1.031v1.231H6.061A6.02,6.02,0,0,0,0,48.373v4.584a.9.9,0,0,0,.876.906H26.837a.89.89,0,0,0,.861-.906V48.373a6.008,6.008,0,0,0-6.046-6.005H18.831V40.912c.219-.245.573-.514.858-.807a8.593,8.593,0,0,0,2.426-6.052V31.419a5,5,0,0,0,1.115.142,4.484,4.484,0,0,0,.782-.069,4.3,4.3,0,0,0,2.8-1.772,4.216,4.216,0,0,0,.735-1.8h22.8a3.544,3.544,0,0,0,3.512-3.544V20.549a.849.849,0,0,0-.876-.843ZM20.144,3.543a1.8,1.8,0,0,1,1.775-1.791H47.142a1.817,1.817,0,0,1,1.794,1.791V19.706H38.926a.808.808,0,0,0-.827.843v1.675H30.982V20.549a.824.824,0,0,0-.846-.843H20.144Zm1.8,23.444a8.379,8.379,0,0,0-.527-1.572,2.68,2.68,0,0,1,3.177-.4ZM20.4,28.6a5.792,5.792,0,0,1-1.486-2.4.876.876,0,0,0-1.608-.226,7.83,7.83,0,0,1-6.577,3.812A14.614,14.614,0,0,1,7.007,29.6v-.726a6.706,6.706,0,0,1,.145-1.443,10.789,10.789,0,0,0,1.741.141,10.588,10.588,0,0,0,1.5-.106,9.7,9.7,0,0,0,6.778-4.336A6.716,6.716,0,0,1,20.4,28.6Zm-6.708-6.443a6.685,6.685,0,0,1,1.832.256,8.064,8.064,0,0,1-7.776,3.341,6.72,6.72,0,0,1,5.944-3.6ZM1.752,48.373a4.267,4.267,0,0,1,4.309-4.254H9.521l3.4,2.135v5.857H1.752Zm24.195,0v3.738H14.67V46.266l3.491-2.147h3.491a4.254,4.254,0,0,1,4.294,4.254ZM17.079,42.7l-3.316,2.039L10.62,42.714v-.627a8.444,8.444,0,0,0,6.459-.127Zm1.333-3.818a6.508,6.508,0,0,1-9.449,0,6.876,6.876,0,0,1-1.956-4.831V31.375a16.49,16.49,0,0,0,2.62.211c.383,0,.777-.014,1.189-.047a9.894,9.894,0,0,0,7.051-3.347,7.57,7.57,0,0,0,2.5,2.614v3.248a6.872,6.872,0,0,1-1.952,4.831ZM25.381,28.7a2.615,2.615,0,0,1-1.687,1.065,2.7,2.7,0,0,1-1.578-.207v-.55l3.562-2.633a2.571,2.571,0,0,1-.3,2.324Zm26.731-4.33a1.79,1.79,0,0,1-1.761,1.793h-22.9a4.384,4.384,0,0,0-1.715-2.479,4.436,4.436,0,0,0-5.214.217,7.932,7.932,0,0,0-2.807-2.445H29.231v1.684a.867.867,0,0,0,.906.833h8.789a.884.884,0,0,0,.925-.833V21.457H52.112Zm0,0" transform="translate(0 0)" fill="#b46063"/><path d="M277.167,46.7V44.327a5.435,5.435,0,0,0-4.34-5.272,3.58,3.58,0,1,0-2.442,0A5.476,5.476,0,0,0,266,44.327V46.7a.912.912,0,0,0,.927.865h9.4a.833.833,0,0,0,.836-.865ZM269.78,35.762a1.852,1.852,0,1,1,1.85,1.749A1.8,1.8,0,0,1,269.78,35.762Zm5.635,10.047h-7.663V44.327a3.836,3.836,0,0,1,7.663,0Zm0,0" transform="translate(-236.879 -28.73)" fill="#b46063"/><path d="M79.139,302.422a.876.876,0,0,0-.876.876.42.42,0,0,1-.839,0,.876.876,0,1,0-1.752,0,2.171,2.171,0,0,0,4.343,0,.876.876,0,0,0-.876-.876Zm0,0" transform="translate(-67.388 -269.314)" fill="#b46063"/><path d="M138.3,302.422a.876.876,0,0,0-.876.876.42.42,0,0,1-.839,0,.876.876,0,1,0-1.752,0,2.171,2.171,0,1,0,4.342,0A.876.876,0,0,0,138.3,302.422Zm0,0" transform="translate(-120.074 -269.314)" fill="#b46063"/></g></g></svg>