<svg xmlns="http://www.w3.org/2000/svg" width="82.972" height="79.959" viewBox="0 0 82.972 79.959"><g transform="translate(-380 -371)"><g transform="translate(2618 -4998)"><path d="M35.053-2.435C57.4-2.435,81.6,3.7,81.6,26.044S75.194,77.524,52.852,77.524-1.367,72.209-1.367,49.867,12.711-2.435,35.053-2.435Z" transform="translate(-2236.633 5371.435)" fill="#b46063"/></g><path d="M44.579.436a1.489,1.489,0,0,0-2.106,0L31,11.914H4.969A4.473,4.473,0,0,0,.5,16.381V37.23A4.473,4.473,0,0,0,4.969,41.7H6.557v7.645a1.489,1.489,0,0,0,2.554,1.042l8.5-8.686H34.952a4.473,4.473,0,0,0,4.468-4.468V20.338L50.9,8.86a1.49,1.49,0,0,0,0-2.106Zm-13.69,24.22-4.212-4.212L39.313,7.808l4.212,4.212Zm-5.8-1.587,3.173,3.173-5.439,2.266ZM36.441,37.23a1.491,1.491,0,0,1-1.489,1.489H16.982a1.49,1.49,0,0,0-1.065.448L9.536,45.691V40.209a1.489,1.489,0,0,0-1.489-1.489H4.969A1.491,1.491,0,0,1,3.479,37.23V16.381a1.491,1.491,0,0,1,1.489-1.489H28.016l-4.5,4.5a1.522,1.522,0,0,0-.329.5l-4.122,9.9H11.025a1.489,1.489,0,1,0,0,2.977H20.06a1.506,1.506,0,0,0,.585-.12l10.8-4.5a1.512,1.512,0,0,0,.5-.329l4.5-4.5ZM45.631,9.913,41.419,5.7,43.526,3.6l4.212,4.212Zm0,0" transform="translate(395.999 385.5)" fill="#fff" stroke="#b46063" stroke-width="1"/></g></svg>