<?xml version="1.0" encoding="utf-8"?>
<!-- Generator: Adobe Illustrator 25.0.0, SVG Export Plug-In . SVG Version: 6.00 Build 0)  -->
<svg version="1.1" id="Layer_1" xmlns="http://www.w3.org/2000/svg" xmlns:xlink="http://www.w3.org/1999/xlink" x="0px" y="0px"
	 viewBox="0 0 100 100" style="enable-background:new 0 0 100 100;" xml:space="preserve">
<style type="text/css">
	.st0{fill:#EDE7E4;}
	.st1{fill:#B46063;stroke:#B46063;stroke-width:0.5;stroke-miterlimit:10;}
</style>
<path class="st0" d="M43.9,0C70.8,0,100,7.7,100,35.6S92.3,100,65.3,100S0,93.4,0,65.4S17,0,43.9,0z"/>
<g>
	<path class="st1" d="M21.9,62.9H78c0.1,0,0.3-0.1,0.4-0.2c0.1-0.1,0.2-0.2,0.2-0.4V29.8c0-1-0.4-2-1.2-2.8
		c-0.7-0.7-1.7-1.2-2.8-1.2h-2.2c-0.3,0-0.6,0.3-0.6,0.6s0.3,0.6,0.6,0.6h2.2c0.7,0,1.5,0.3,2,0.8s0.8,1.2,0.8,2v32h-55v-32
		c0-0.7,0.3-1.5,0.8-2s1.2-0.8,2-0.8H51c0.3,0,0.6-0.3,0.6-0.6s-0.3-0.6-0.6-0.6H25.3c-1,0-2,0.4-2.8,1.2c-0.7,0.7-1.2,1.7-1.2,2.8
		v32.6c0,0.1,0.1,0.3,0.2,0.4S21.8,62.9,21.9,62.9L21.9,62.9z"/>
	<path class="st1" d="M81.4,66.3H18.6c-0.3,0-0.6,0.3-0.6,0.6v3.4c0,1,0.4,2,1.2,2.8c0.7,0.7,1.7,1.2,2.8,1.2h56.1
		c1,0,2-0.4,2.8-1.2c0.7-0.7,1.2-1.7,1.2-2.8v-3.4c0-0.1-0.1-0.3-0.2-0.4C81.7,66.3,81.6,66.3,81.4,66.3L81.4,66.3z M80.9,70.2
		c0,0.7-0.3,1.5-0.8,2s-1.2,0.8-2,0.8H21.9c-0.7,0-1.5-0.3-2-0.8s-0.8-1.2-0.8-2v-2.8h61.8V70.2z"/>
	<path class="st1" d="M47.8,70.8h4.5c0.3,0,0.6-0.3,0.6-0.6s-0.3-0.6-0.6-0.6h-4.5c-0.3,0-0.6,0.3-0.6,0.6S47.4,70.8,47.8,70.8z"/>
	<path class="st1" d="M27.5,48.3h15.7c0.3,0,0.6-0.3,0.6-0.6s-0.3-0.6-0.6-0.6H27.5c-0.3,0-0.6,0.3-0.6,0.6S27.2,48.3,27.5,48.3z"/>
	<path class="st1" d="M27.5,52.8h33.7c0.3,0,0.6-0.3,0.6-0.6s-0.3-0.6-0.6-0.6H27.5c-0.3,0-0.6,0.3-0.6,0.6S27.2,52.8,27.5,52.8z"/>
	<path class="st1" d="M55.4,43.8c0.1,0,0.2,0.1,0.2,0.1c0.1,0,0.3,0,0.4-0.1l6.4-5.3l6.4,5.3c0.2,0.1,0.4,0.1,0.6,0s0.3-0.3,0.3-0.5
		V26.4c0-0.1-0.1-0.3-0.2-0.4s-0.2-0.2-0.4-0.2H55.6c-0.3,0-0.6,0.3-0.6,0.6v16.8C55.1,43.5,55.2,43.7,55.4,43.8L55.4,43.8z
		 M56.2,27h12.4v15.1l-5.8-4.9c-0.1-0.1-0.2-0.1-0.3-0.1s-0.3,0-0.4,0.1L56.3,42L56.2,27z"/>
</g>
</svg>
