<svg xmlns="http://www.w3.org/2000/svg" width="23.979" height="23.979" viewBox="0 0 23.979 23.979"><g transform="translate(5.693 3.013)"><path d="M139.167,64.593a.9.9,0,0,0-1.278,0L127.048,75.4l-3.912-4.248a.9.9,0,1,0-1.33,1.224l4.549,4.94a.9.9,0,0,0,.646.291h.019a.9.9,0,0,0,.638-.264l11.507-11.477A.9.9,0,0,0,139.167,64.593Z" transform="translate(-121.568 -64.327)" fill="#d89a9e"/></g><path d="M23.075,11.086a.9.9,0,0,0-.9.9A10.182,10.182,0,1,1,11.989,1.807a.9.9,0,1,0,0-1.807A11.989,11.989,0,1,0,23.979,11.989.9.9,0,0,0,23.075,11.086Z" fill="#d89a9e"/></svg>