<svg xmlns="http://www.w3.org/2000/svg" width="29.83" height="28.747" viewBox="0 0 29.83 28.747"><g transform="translate(0 0)"><path d="M15.37,26.312c-8.032,0-16.736-2.206-16.736-10.239S.938-2.435,8.971-2.435,28.463-.524,28.463,7.508,23.4,26.312,15.37,26.312Z" transform="translate(1.366 2.435)" fill="#ede7e4"/><g transform="translate(6.025 4.571)"><path d="M16.313,18.093h2.1V12.375h-2.1Z" transform="translate(-8.96 -6.073)" fill="#b46063"/><path d="M19.54,10l1.347-1.347L19.4,7.168,18.054,8.515A8.4,8.4,0,1,0,19.54,10Zm-2,9.794a6.564,6.564,0,1,1,1.923-4.642A6.521,6.521,0,0,1,17.544,19.794Z" transform="translate(-4.5 -3.949)" fill="#b46063"/><path d="M13.5,2.25h5.6v2.1H13.5Z" transform="translate(-7.898 -2.25)" fill="#b46063"/></g></g></svg>