<svg xmlns="http://www.w3.org/2000/svg" width="33.959" height="33.059" viewBox="0 0 33.959 33.059"><g transform="translate(0 0)"><path d="M13.094,0c8.032,0,16.736,2.206,16.736,10.239s-2.3,18.508-10.337,18.508S0,26.836,0,18.8,5.061,0,13.094,0Z" transform="translate(4.497 0) rotate(9)" fill="#ede7e4"/><g transform="translate(9.957 7.908)"><path d="M20.213,27.83V26.053A3.553,3.553,0,0,0,16.66,22.5H9.553A3.553,3.553,0,0,0,6,26.053V27.83" transform="translate(-6 -11.84)" fill="none" stroke="#b46063" stroke-linecap="round" stroke-linejoin="round" stroke-width="2"/><path d="M19.106,8.053A3.553,3.553,0,1,1,15.553,4.5,3.553,3.553,0,0,1,19.106,8.053Z" transform="translate(-8.447 -4.5)" fill="none" stroke="#b46063" stroke-linecap="round" stroke-linejoin="round" stroke-width="2"/></g></g></svg>