<svg xmlns="http://www.w3.org/2000/svg" width="29.829" height="28.747" viewBox="0 0 29.829 28.747"><g transform="translate(0)"><path d="M11.727-2.435c8.032,0,16.736,2.206,16.736,10.239s-2.3,18.508-10.337,18.508S-1.367,24.4-1.367,16.368,3.695-2.435,11.727-2.435Z" transform="translate(1.366 2.435)" fill="#ede7e4"/><g transform="translate(6.915 6.977)"><path d="M17.859,6.75H16.318v.924a.309.309,0,0,1-.308.308h-.616a.309.309,0,0,1-.308-.308V6.75h-7.4v.924a.309.309,0,0,1-.308.308H6.765a.309.309,0,0,1-.308-.308V6.75H4.916A1.545,1.545,0,0,0,3.375,8.291V18.768a1.545,1.545,0,0,0,1.541,1.541H17.859A1.545,1.545,0,0,0,19.4,18.768V8.291A1.545,1.545,0,0,0,17.859,6.75Zm.308,11.556a.773.773,0,0,1-.77.77H5.378a.773.773,0,0,1-.77-.77V11.372a.309.309,0,0,1,.308-.308H17.859a.309.309,0,0,1,.308.308Z" transform="translate(-3.375 -5.517)" fill="#b46063"/><path d="M10.233,4.808A.309.309,0,0,0,9.924,4.5H9.308A.309.309,0,0,0,9,4.808v.924h1.233Z" transform="translate(-5.918 -4.5)" fill="#b46063"/><path d="M25.983,4.808a.309.309,0,0,0-.308-.308h-.616a.309.309,0,0,0-.308.308v.924h1.233Z" transform="translate(-13.04 -4.5)" fill="#b46063"/></g></g></svg>