<?xml version="1.0" encoding="utf-8"?>
<!-- Generator: Adobe Illustrator 25.0.0, SVG Export Plug-In . SVG Version: 6.00 Build 0)  -->
<svg version="1.1" id="Layer_1" xmlns="http://www.w3.org/2000/svg" xmlns:xlink="http://www.w3.org/1999/xlink" x="0px" y="0px"
	 viewBox="0 0 90.6 90.6" style="enable-background:new 0 0 90.6 90.6;" xml:space="preserve">
<style type="text/css">
	.st0{fill:#DB9E9E;}
</style>
<path class="st0" d="M71.8,66.7L50.4,45.3l21.4-21.4c1.4-1.4,1.4-3.6,0-5.1c-1.4-1.4-3.6-1.4-5.1,0l0,0L45.3,40.2L23.9,18.8
	c-1.4-1.4-3.6-1.4-5.1,0c-1.4,1.4-1.4,3.6,0,5.1l0,0l21.4,21.4L18.8,66.7c-1.4,1.4-1.4,3.6,0,5.1c1.4,1.4,3.6,1.4,5.1,0l0,0
	l21.4-21.4l21.4,21.4c1.4,1.4,3.6,1.4,5.1,0C73.1,70.4,73.1,68.1,71.8,66.7L71.8,66.7z"/>
</svg>
