<svg xmlns="http://www.w3.org/2000/svg" width="90.637" height="90.637" viewBox="0 0 90.637 90.637"><g transform="translate(21.521 11.388)"><path d="M188.093,65.331a3.415,3.415,0,0,0-4.83-.006L142.282,106.2,127.5,90.139a3.416,3.416,0,1,0-5.026,4.627l17.194,18.673a3.412,3.412,0,0,0,2.44,1.1h.073a3.419,3.419,0,0,0,2.412-1l43.5-43.383A3.415,3.415,0,0,0,188.093,65.331Z" transform="translate(-121.568 -64.327)" fill="#9ddcb0"/></g><path d="M87.221,41.9a3.416,3.416,0,0,0-3.416,3.416A38.487,38.487,0,1,1,45.319,6.832a3.416,3.416,0,1,0,0-6.832A45.319,45.319,0,1,0,90.637,45.319,3.416,3.416,0,0,0,87.221,41.9Z" fill="#9ddcb0"/></svg>