<svg xmlns="http://www.w3.org/2000/svg" width="62.036" height="59.784" viewBox="0 0 62.036 59.784"><g transform="translate(-142 -1577.777)"><path d="M25.864-2.435c16.7,0,34.805,4.588,34.805,21.293s-4.793,38.491-21.5,38.491S-1.367,53.375-1.367,36.67,9.159-2.435,25.864-2.435Z" transform="translate(143.367 1580.212)" fill="#b46063"/><g transform="translate(158.99 1591.935)"><path d="M48.052,15.433h2.192a.9.9,0,0,0,.9-.9V12.342a.9.9,0,0,0-.9-.9H48.052a.9.9,0,0,0-.9.9v2.192A.9.9,0,0,0,48.052,15.433Zm.022-3.069h2.148v2.148H48.074Zm-.022,8.9h2.192a.9.9,0,0,0,.9-.9V18.172a.9.9,0,0,0-.9-.9H48.052a.9.9,0,0,0-.9.9v2.192A.9.9,0,0,0,48.052,21.263Zm.022-3.069h2.148v2.148H48.074ZM41.8,15.433h2.192a.9.9,0,0,0,.9-.9V12.342a.9.9,0,0,0-.9-.9H41.8a.9.9,0,0,0-.9.9v2.192A.9.9,0,0,0,41.8,15.433Zm.022-3.069h2.148v2.148H41.819ZM31.479,22.831H29.287a.9.9,0,0,0-.9.9v2.192a.9.9,0,0,0,.9.9h2.192a.9.9,0,0,0,.9-.9V23.73A.9.9,0,0,0,31.479,22.831ZM31.457,25.9H29.309V23.752h2.148Zm.022-14.456H29.287a.9.9,0,0,0-.9.9v2.192a.9.9,0,0,0,.9.9h2.192a.9.9,0,0,0,.9-.9V12.342A.9.9,0,0,0,31.479,11.443Zm-.022,3.069H29.309V12.364h2.148ZM41.8,21.126h2.192a.9.9,0,0,0,.9-.9V18.036a.9.9,0,0,0-.9-.9H41.8a.9.9,0,0,0-.9.9v2.192A.9.9,0,0,0,41.8,21.126Zm.022-3.069h2.148v2.148H41.819ZM51.6,2.1H49.632V1.4a1.4,1.4,0,0,0-1.4-1.4h-.211a1.4,1.4,0,0,0-1.4,1.4v.7H32.91V1.4a1.4,1.4,0,0,0-1.4-1.4H31.3a1.4,1.4,0,0,0-1.4,1.4v.7H27.932a2.307,2.307,0,0,0-2.3,2.3V29.122a2.3,2.3,0,0,0,2.3,2.3H51.6a2.3,2.3,0,0,0,2.3-2.3V4.408a2.307,2.307,0,0,0-2.3-2.3Zm-4.058-.7a.48.48,0,0,1,.479-.479h.211a.48.48,0,0,1,.479.479v.7h-1.17ZM30.82,1.4A.48.48,0,0,1,31.3.921h.211a.48.48,0,0,1,.479.479v.7H30.82V1.4ZM52.984,29.122A1.382,1.382,0,0,1,51.6,30.5H27.928a1.382,1.382,0,0,1-1.381-1.381v0a2.293,2.293,0,0,0,1.384.463H46.594a2.289,2.289,0,0,0,1.63-.675l4.76-4.76Zm-5.23-1.047a1.969,1.969,0,0,0,.056-.464V24.538a1.052,1.052,0,0,1,1.051-1.051h3.073a1.969,1.969,0,0,0,.464-.056Zm5.23-19.393H33.371a.46.46,0,0,0,0,.921H52.984V21.516a1.052,1.052,0,0,1-1.051,1.051H48.861a1.974,1.974,0,0,0-1.971,1.971v3.073a1.052,1.052,0,0,1-1.051,1.051H27.932a1.386,1.386,0,0,1-1.384-1.384V9.6h4.982a.46.46,0,0,0,0-.921H26.548V4.408a1.386,1.386,0,0,1,1.384-1.384H29.9V4.378a1.4,1.4,0,0,0,1.4,1.4.46.46,0,0,0,0-.921.48.48,0,0,1-.479-.479V3.024h15.8V4.378a1.4,1.4,0,0,0,1.4,1.4.46.46,0,0,0,0-.921.48.48,0,0,1-.479-.479V3.024H51.6a1.386,1.386,0,0,1,1.384,1.384Zm-21.5,8.456H29.287a.9.9,0,0,0-.9.9v2.192a.9.9,0,0,0,.9.9h2.192a.9.9,0,0,0,.9-.9V18.036A.9.9,0,0,0,31.479,17.137Zm-.022,3.069H29.309V18.058h2.148Zm4.085-4.773h2.192a.9.9,0,0,0,.9-.9V12.342a.9.9,0,0,0-.9-.9H35.542a.9.9,0,0,0-.9.9v2.192A.9.9,0,0,0,35.542,15.433Zm.022-3.069h2.148v2.148H35.564ZM41.819,25.9a.46.46,0,0,0-.92.022.9.9,0,0,0,.9.9h2.192a.9.9,0,0,0,.9-.9V23.73a.9.9,0,0,0-.9-.9H41.8a.9.9,0,0,0-.9.9v.632a.46.46,0,0,0,.921,0v-.61h2.148V25.9Zm-6.276-4.773h2.192a.9.9,0,0,0,.9-.9V18.036a.9.9,0,0,0-.9-.9H35.542a.9.9,0,0,0-.9.9v2.192A.9.9,0,0,0,35.542,21.126Zm.022-3.069h2.148v2.148H35.564Zm-.022,8.762h2.192a.9.9,0,0,0,.9-.9V23.73a.9.9,0,0,0-.9-.9H35.542a.9.9,0,0,0-.9.9v2.192A.9.9,0,0,0,35.542,26.82Zm.022-3.069h2.148V25.9H35.564Z" transform="translate(-25.627 0)" fill="#fff"/></g></g></svg>