<svg xmlns="http://www.w3.org/2000/svg" width="62" height="59.749" viewBox="0 0 62 59.749"><g transform="translate(-138 -1525.001)"><path d="M25.848-2.435c16.695,0,34.785,4.586,34.785,21.28s-4.79,38.468-21.485,38.468S-1.367,53.342-1.367,36.647,9.153-2.435,25.848-2.435Z" transform="translate(139.367 1527.436)" fill="#b46063"/><g transform="translate(153.154 1538.885)"><path d="M31.407,11.68H30.044V2.1a2.117,2.117,0,0,0-2.1-2.1H12.992A2.107,2.107,0,0,0,10.9,2.1v9.58H9.788a.494.494,0,0,0-.509.5v.05a5.1,5.1,0,0,0-1.149-.135,5.021,5.021,0,0,0-5.016,5.018v3.071a5.1,5.1,0,0,0,1.446,3.587,4.665,4.665,0,0,0,.7.611v.729H3.592A3.568,3.568,0,0,0,0,28.672v2.717a.535.535,0,0,0,.519.537H15.907a.528.528,0,0,0,.51-.537V28.672a3.561,3.561,0,0,0-3.583-3.56H11.161v-.863c.13-.145.339-.3.508-.478a5.093,5.093,0,0,0,1.438-3.587V18.623a2.965,2.965,0,0,0,.661.084,2.658,2.658,0,0,0,.464-.041,2.546,2.546,0,0,0,1.66-1.05,2.5,2.5,0,0,0,.436-1.069H29.845a2.1,2.1,0,0,0,2.082-2.1V12.179a.5.5,0,0,0-.519-.5ZM11.94,2.1a1.067,1.067,0,0,1,1.052-1.062h14.95A1.077,1.077,0,0,1,29.006,2.1v9.58H23.072a.479.479,0,0,0-.49.5v.993H18.364v-.993a.488.488,0,0,0-.5-.5H11.94ZM13.008,16a4.966,4.966,0,0,0-.312-.932,1.589,1.589,0,0,1,1.883-.237Zm-.915.956a3.433,3.433,0,0,1-.881-1.42.519.519,0,0,0-.953-.134,4.641,4.641,0,0,1-3.9,2.26,8.662,8.662,0,0,1-2.208-.114v-.43a3.975,3.975,0,0,1,.086-.855,6.4,6.4,0,0,0,1.032.083,6.275,6.275,0,0,0,.888-.063,5.75,5.75,0,0,0,4.017-2.57,3.981,3.981,0,0,1,1.917,3.244ZM8.117,13.133a3.962,3.962,0,0,1,1.086.152,4.78,4.78,0,0,1-4.609,1.98,3.983,3.983,0,0,1,3.523-2.132ZM1.039,28.672A2.529,2.529,0,0,1,3.592,26.15H5.644l2.014,1.265v3.472H1.039Zm14.341,0v2.216H8.7V27.423l2.069-1.272h2.069a2.522,2.522,0,0,1,2.545,2.521ZM10.123,25.31,8.158,26.519l-1.863-1.2v-.372a5.005,5.005,0,0,0,3.828-.075Zm.79-2.263a3.857,3.857,0,0,1-5.6,0,4.076,4.076,0,0,1-1.159-2.863V18.6a9.774,9.774,0,0,0,1.553.125c.227,0,.461-.008.7-.028A5.864,5.864,0,0,0,10.59,16.71a4.487,4.487,0,0,0,1.48,1.549v1.925a4.073,4.073,0,0,1-1.157,2.863Zm4.131-6.035a1.55,1.55,0,0,1-1,.631,1.6,1.6,0,0,1-.936-.123V17.2l2.111-1.561a1.524,1.524,0,0,1-.175,1.377Zm15.844-2.567a1.061,1.061,0,0,1-1.044,1.063H16.274a2.6,2.6,0,0,0-1.016-1.47,2.63,2.63,0,0,0-3.091.129A4.7,4.7,0,0,0,10.5,12.718h6.823v1a.514.514,0,0,0,.537.494h5.209a.524.524,0,0,0,.548-.494v-1h7.268Zm0,0" transform="translate(-0.001 0)" fill="#fff"/><path d="M272.619,40.817v-1.4a3.222,3.222,0,0,0-2.572-3.125,2.122,2.122,0,1,0-1.448,0,3.245,3.245,0,0,0-2.6,3.125v1.4a.54.54,0,0,0,.55.513h5.574a.494.494,0,0,0,.5-.513Zm-4.378-6.481a1.1,1.1,0,1,1,1.1,1.036A1.069,1.069,0,0,1,268.24,34.336Zm3.34,5.955h-4.542v-.878a2.274,2.274,0,0,1,4.542,0Zm0,0" transform="translate(-248.74 -30.169)" fill="#fff"/><path d="M77.727,302.422a.519.519,0,0,0-.519.519.249.249,0,0,1-.5,0,.519.519,0,1,0-1.038,0,1.287,1.287,0,0,0,2.574,0,.519.519,0,0,0-.519-.519Zm0,0" transform="translate(-70.762 -282.798)" fill="#fff"/><path d="M136.891,302.422a.519.519,0,0,0-.519.519.249.249,0,0,1-.5,0,.519.519,0,1,0-1.038,0,1.287,1.287,0,0,0,2.574,0A.519.519,0,0,0,136.891,302.422Zm0,0" transform="translate(-126.087 -282.798)" fill="#fff"/></g></g></svg>