<svg xmlns="http://www.w3.org/2000/svg" width="62.251" height="59.991" viewBox="0 0 62.251 59.991"><g transform="translate(-652 -1931)"><path d="M25.958-2.435c16.762,0,34.926,4.6,34.926,21.367s-4.81,38.624-21.572,38.624S-1.367,53.568-1.367,36.806,9.2-2.435,25.958-2.435Z" transform="translate(653.367 1933.435)" fill="#ede7e4"/><g transform="translate(663 1942)"><g transform="translate(4.209 11.312)"><path d="M85.205,169.475l-4.341-6.7a1.811,1.811,0,0,0-1.526-.83H60.185a1.811,1.811,0,0,0-1.525.828l-4.355,6.7a1.822,1.822,0,0,0,.167,2.2L68.4,187.305a1.82,1.82,0,0,0,1.357.609h0a1.82,1.82,0,0,0,1.358-.609l13.925-15.632A1.822,1.822,0,0,0,85.205,169.475ZM78.459,163.5l-3.651,5.645L71.155,163.5Zm-5.083,6.3H66.132l3.622-5.6Zm-5.023-6.3-3.643,5.63-3.642-5.63Zm-8.726.642,3.66,5.659H55.952Zm-3.346,7.218h7.843l4.147,13.462Zm13.473,12.979-4-12.979h8Zm1.482.483,4.147-13.462h7.844Zm5-15.021,3.657-5.655,3.662,5.655Z" transform="translate(-54.014 -161.942)" fill="#937a69"/></g><g transform="translate(0 19.171)"><path d="M2.364,262.793H.779a.779.779,0,0,0,0,1.559H2.364a.779.779,0,0,0,0-1.559Z" transform="translate(0 -262.793)" fill="#937a69"/></g><g transform="translate(36.758 19.171)"><path d="M474.031,262.793h-1.585a.779.779,0,0,0,0,1.559h1.585a.779.779,0,0,0,0-1.559Z" transform="translate(-471.667 -262.793)" fill="#937a69"/></g><g transform="translate(30.149 5.619)"><path d="M390.776,89.125a.779.779,0,0,0-1.1,0l-2.589,2.589a.779.779,0,0,0,1.1,1.1l2.589-2.589A.779.779,0,0,0,390.776,89.125Z" transform="translate(-386.857 -88.897)" fill="#937a69"/></g><g transform="translate(5.639 5.605)"><path d="M76.277,91.535l-2.589-2.589a.779.779,0,1,0-1.1,1.1l2.589,2.589a.779.779,0,0,0,1.1-1.1Z" transform="translate(-72.358 -88.718)" fill="#937a69"/></g><g transform="translate(19.191 0)"><path d="M247.033,16.793a.779.779,0,0,0-.779.779v5.079a.779.779,0,1,0,1.559,0V17.572A.779.779,0,0,0,247.033,16.793Z" transform="translate(-246.254 -16.793)" fill="#937a69"/></g><g transform="translate(19.191 7.715)"><path d="M247.58,116.018a.779.779,0,1,0,.229.551A.784.784,0,0,0,247.58,116.018Z" transform="translate(-246.25 -115.79)" fill="#937a69"/></g></g></g></svg>