<svg xmlns="http://www.w3.org/2000/svg" width="62.251" height="59.991" viewBox="0 0 62.251 59.991"><g transform="translate(-651.875 -2028)"><path d="M25.958-2.435c16.762,0,34.926,4.6,34.926,21.367s-4.81,38.624-21.572,38.624S-1.367,53.568-1.367,36.806,9.2-2.435,25.958-2.435Z" transform="translate(653.242 2030.435)" fill="#ede7e4"/><g transform="translate(664.875 2034)"><g transform="translate(2 11)"><path d="M34.544,13.758a.552.552,0,0,0-.552.552V34.167H31a46.922,46.922,0,0,0-10.542,1.2,1.1,1.1,0,0,1-1.163-.459,12.539,12.539,0,0,1,6.542-1.845h6.5a.552.552,0,0,0,.552-.552V28.651a.552.552,0,1,0-1.1,0v3.31H25.835A13.64,13.64,0,0,0,19.1,33.732V18.722a.552.552,0,0,0-1.1,0v15.01a13.638,13.638,0,0,0-6.736-1.771H5.31V12.1H13.8A4.2,4.2,0,0,1,18,16.3a.552.552,0,1,0,1.1,0A4.2,4.2,0,0,1,23.292,12.1h8.495V26.445a.552.552,0,0,0,1.1,0V11.552A.552.552,0,0,0,32.338,11H23.292a5.3,5.3,0,0,0-4.744,2.941A5.3,5.3,0,0,0,13.8,11H4.758a.552.552,0,0,0-.552.552V32.512a.552.552,0,0,0,.552.552h6.5A12.537,12.537,0,0,1,17.8,34.907a1.1,1.1,0,0,1-1.156.461A46.924,46.924,0,0,0,6.1,34.167h-3V14.31a.552.552,0,0,0-1.1,0V34.719a.552.552,0,0,0,.552.552H6.1A45.832,45.832,0,0,1,16.39,36.442a2.2,2.2,0,0,0,2.158-.7,2.194,2.194,0,0,0,2.151.7A45.863,45.863,0,0,1,31,35.27h3.547a.552.552,0,0,0,.552-.552V14.31A.552.552,0,0,0,34.544,13.758Z" transform="translate(-2 -11)" fill="#937a69"/><path d="M20.776,18.89A5.284,5.284,0,0,0,17.84,18H11.552a.552.552,0,1,0,0,1.1H17.84a4.179,4.179,0,0,1,2.327.7.552.552,0,0,0,.612-.918Z" transform="translate(-6.036 -14.139)" fill="#937a69"/><path d="M44.3,18H38.011a5.285,5.285,0,0,0-2.939.89.552.552,0,1,0,.612.918,4.182,4.182,0,0,1,2.327-.7H44.3a.552.552,0,0,0,0-1.1Z" transform="translate(-16.72 -14.139)" fill="#937a69"/><path d="M20.776,23.89A5.284,5.284,0,0,0,17.84,23H11.552a.552.552,0,1,0,0,1.1H17.84a4.179,4.179,0,0,1,2.327.7.552.552,0,0,0,.612-.918Z" transform="translate(-6.036 -16.381)" fill="#937a69"/><path d="M44.3,23H38.011a5.285,5.285,0,0,0-2.939.89.552.552,0,0,0,.612.918,4.182,4.182,0,0,1,2.327-.7H44.3a.552.552,0,1,0,0-1.1Z" transform="translate(-16.72 -16.381)" fill="#937a69"/><path d="M20.776,28.89A5.284,5.284,0,0,0,17.84,28H11.552a.552.552,0,1,0,0,1.1H17.84a4.179,4.179,0,0,1,2.327.7.552.552,0,1,0,.612-.918Z" transform="translate(-6.036 -18.623)" fill="#937a69"/><path d="M44.3,28H38.011a5.285,5.285,0,0,0-2.939.89.552.552,0,1,0,.612.918,4.182,4.182,0,0,1,2.327-.7H44.3a.552.552,0,0,0,0-1.1Z" transform="translate(-16.72 -18.623)" fill="#937a69"/><path d="M20.776,33.89A5.284,5.284,0,0,0,17.84,33H11.552a.552.552,0,0,0,0,1.1H17.84a4.179,4.179,0,0,1,2.327.7.552.552,0,0,0,.612-.918Z" transform="translate(-6.036 -20.865)" fill="#937a69"/><path d="M44.3,33H38.011a5.285,5.285,0,0,0-2.939.89.552.552,0,1,0,.612.918,4.182,4.182,0,0,1,2.327-.7H44.3a.552.552,0,0,0,0-1.1Z" transform="translate(-16.72 -20.865)" fill="#937a69"/><path d="M20.776,38.89A5.284,5.284,0,0,0,17.84,38H11.552a.552.552,0,0,0,0,1.1H17.84a4.179,4.179,0,0,1,2.327.7.552.552,0,1,0,.612-.918Z" transform="translate(-6.036 -23.107)" fill="#937a69"/><path d="M44.3,38H38.011a5.285,5.285,0,0,0-2.939.89.552.552,0,0,0,.612.918,4.182,4.182,0,0,1,2.327-.7H44.3a.552.552,0,0,0,0-1.1Z" transform="translate(-16.72 -23.107)" fill="#937a69"/><path d="M17.84,43H11.552a.552.552,0,0,0,0,1.1H17.84a4.179,4.179,0,0,1,2.327.7.552.552,0,0,0,.612-.918A5.284,5.284,0,0,0,17.84,43Z" transform="translate(-6.036 -25.349)" fill="#937a69"/><path d="M44.3,43H38.011a5.285,5.285,0,0,0-2.939.89.552.552,0,0,0,.612.918,4.182,4.182,0,0,1,2.327-.7H44.3a.552.552,0,0,0,0-1.1Z" transform="translate(-16.72 -25.349)" fill="#937a69"/></g></g></g></svg>