<?xml version="1.0" encoding="utf-8"?>
<!-- Generator: Adobe Illustrator 25.0.0, SVG Export Plug-In . SVG Version: 6.00 Build 0)  -->
<svg version="1.1" id="Layer_1" xmlns="http://www.w3.org/2000/svg" xmlns:xlink="http://www.w3.org/1999/xlink" x="0px" y="0px"
	 viewBox="0 0 62 59.7" style="enable-background:new 0 0 62 59.7;" xml:space="preserve">
<style type="text/css">
	.st0{fill:#B46063;}
	.st1{fill:#FFFFFF;}
</style>
<g transform="translate(-722 -1578.251)">
	<path class="st0" d="M722,1617.3c0,16.7,23.8,20.7,40.5,20.7s21.5-21.8,21.5-38.5c0-16.7-18.1-21.3-34.8-21.3
		S722,1600.6,722,1617.3z"/>
	<g transform="translate(737.395 1592.374)">
		<circle class="st1" cx="14" cy="11.4" r="0.6"/>
		<circle class="st1" cx="17.6" cy="11.4" r="0.6"/>
		<path class="st1" d="M23.6,21.1V10.7c0-0.9-0.2-1.8-0.5-2.7c-1.5-4.1-6-6.2-10.1-4.7c-0.3,0.1-0.5,0.5-0.4,0.8
			c0.1,0.3,0.5,0.5,0.8,0.4C14,4.2,14.7,4,15.4,4c3.7-0.2,6.8,2.7,7,6.4c-0.4-0.2-0.8-0.3-1.2-0.3H21c-0.3-0.7-0.9-1.2-1.7-1.2h-1.2
			c-1,0-1.8-0.8-1.8-1.8c0-0.3-0.3-0.6-0.6-0.6c-0.3,0-0.6,0.3-0.6,0.6c0,1-0.8,1.8-1.8,1.8h-1.2c-0.8,0-1.5,0.5-1.7,1.2h-0.1
			c-0.4,0-0.8,0.1-1.2,0.3c0-0.9,0.3-1.9,0.7-2.7c0,0,0,0,0,0c0.1-0.3,0-0.7-0.3-0.8c-0.3-0.1-0.7,0-0.8,0.3
			c-0.6,1.1-0.8,2.3-0.8,3.6v10.4l-1.6,0.4C4.3,22,3,23.7,3,25.6v4.8c0,0,0,0,0,0C3,30.8,3.2,31,3.6,31h24.2l0,0
			c0.3,0,0.6-0.3,0.6-0.6v-4.8c0-1.9-1.3-3.6-3.2-4.1L23.6,21.1z M27.2,29.8h-3.6v-2.2c0-0.3-0.3-0.6-0.6-0.6
			c-0.3,0-0.6,0.3-0.6,0.6v2.2h-3.5l2.1-8.1l3.9,1c1.4,0.3,2.3,1.5,2.3,2.9L27.2,29.8z M19.8,21.4L19,24.6h-6.6l-0.8-3.2l1.8-0.5
			c0.3-0.1,0.5-0.3,0.5-0.6v-0.9c0.6,0.2,1.2,0.3,1.8,0.3c0.6,0,1.2-0.1,1.8-0.3v0.9c0,0.3,0.2,0.5,0.5,0.6L19.8,21.4z M13.7,29.8
			l-1-4h6l-1,4H13.7z M4.2,25.6c0-1.4,0.9-2.6,2.3-2.9l3.9-1l2.1,8.1H9v-2.2c0,0,0,0,0,0C9,27.3,8.8,27,8.4,27
			c-0.3,0-0.6,0.3-0.6,0.6v2.2H4.2L4.2,25.6L4.2,25.6z M9,20.8v-6.2c0.4,0.2,0.8,0.3,1.2,0.3h0c0.2,1.6,1.1,3,2.4,3.9v1.1L9,20.8z
			 M9,12.5c0-0.7,0.5-1.2,1.2-1.2v2.4C9.6,13.7,9,13.2,9,12.5C9,12.5,9,12.5,9,12.5z M19.3,10.1C19.3,10.1,19.3,10.1,19.3,10.1
			c0.3,0,0.6,0.3,0.6,0.6v3.4c0,0,0,0,0,0c0.1,2.4-1.8,4.4-4.2,4.4c-2.3,0-4.2-1.9-4.2-4.2v-3.6c0-0.3,0.3-0.6,0.6-0.6h1.2
			c1,0,1.9-0.4,2.4-1.2c0.6,0.8,1.5,1.2,2.4,1.2L19.3,10.1L19.3,10.1z M22.4,12.5c0,0.7-0.5,1.2-1.2,1.2v-2.4
			C21.8,11.3,22.4,11.8,22.4,12.5z M22.4,20.8l-3.6-0.9v-1.1c1.3-0.9,2.2-2.3,2.4-3.9h0.1c0.4,0,0.8-0.1,1.2-0.3V20.8z"/>
		<path class="st1" d="M18.7,14.3v-1.2l0,0c0-0.3-0.3-0.6-0.6-0.6h-4.8l0,0c-0.3,0-0.6,0.3-0.6,0.6v1.2c0,1.7,1.4,3,3,3
			C17.4,17.3,18.7,16,18.7,14.3z M17.5,14.3c0,1-0.8,1.8-1.8,1.8c-1,0-1.8-0.8-1.8-1.8v-0.6h3.6V14.3z"/>
		<path class="st1" d="M30.6,4.8c0.1,0,0.2,0,0.3-0.1c0.3-0.2,0.4-0.6,0.2-0.8l-2.4-3.6c0-0.1-0.1-0.1-0.2-0.2
			c-0.3-0.2-0.7-0.1-0.8,0.2l-2.4,3.6c-0.1,0.1-0.1,0.2-0.1,0.3c0,0.3,0.3,0.6,0.6,0.6h0.6v5.5c0,0.3,0.3,0.6,0.6,0.6h2.4
			c0.3,0,0.6-0.3,0.6-0.6V4.8H30.6L30.6,4.8z M29.5,3.6L29.5,3.6c-0.4,0-0.7,0.3-0.7,0.6v5.5h-1.2V4.2l0,0c0-0.3-0.3-0.6-0.6-0.6
			h-0.1l1.3-1.9L29.5,3.6z"/>
		<path class="st1" d="M5.6,4.8c0.1,0,0.2,0,0.3-0.1c0.3-0.2,0.4-0.6,0.2-0.8L3.7,0.3c0-0.1-0.1-0.1-0.2-0.2C3.3-0.1,2.9,0,2.7,0.3
			L0.3,3.9C0.2,4,0.2,4.1,0.2,4.2c0,0.3,0.3,0.6,0.6,0.6h0.6v5.5c0,0.3,0.3,0.6,0.6,0.6h2.4c0.3,0,0.6-0.3,0.6-0.6V4.8H5.6L5.6,4.8z
			 M4.5,3.6L4.5,3.6c-0.4,0-0.7,0.3-0.7,0.6v5.5H2.6V4.2c0-0.3-0.3-0.6-0.6-0.6H1.9l1.3-1.9L4.5,3.6z"/>
		<ellipse class="st1" cx="10.7" cy="5.1" rx="0.3" ry="0.9"/>
	</g>
</g>
</svg>
