<svg xmlns="http://www.w3.org/2000/svg" width="62" height="59.749" viewBox="0 0 62 59.749"><g transform="translate(-1014 -1578)"><g transform="translate(876 52.999)"><path d="M25.848-2.435c16.695,0,34.785,4.586,34.785,21.28s-4.79,38.468-21.485,38.468S-1.367,53.342-1.367,36.647,9.153-2.435,25.848-2.435Z" transform="translate(139.367 1527.436)" fill="#b46063"/></g><g transform="translate(1030 1594)"><g transform="translate(0)"><path d="M24.815,18.794a14.481,14.481,0,0,0-5.524-3.465,8.4,8.4,0,1,0-9.51,0A14.559,14.559,0,0,0,0,29.073H2.271a12.265,12.265,0,1,1,24.53,0h2.271A14.442,14.442,0,0,0,24.815,18.794ZM14.536,14.536A6.133,6.133,0,1,1,20.669,8.4,6.139,6.139,0,0,1,14.536,14.536Z" transform="translate(0)" fill="#fff" stroke="#b46063" stroke-width="1"/></g></g></g></svg>