<svg xmlns="http://www.w3.org/2000/svg" width="75.188" height="72.458" viewBox="0 0 75.188 72.458"><g transform="translate(-981 -76)"><path d="M31.637-2.435c20.246,0,42.185,5.561,42.185,25.807S68.012,70.023,47.766,70.023-1.367,65.207-1.367,44.961,11.391-2.435,31.637-2.435Z" transform="translate(982.367 78.435)" fill="#e2d9cc"/><g transform="translate(996.001 88.99)"><g transform="translate(-0.001 0.01)"><path d="M44.237,196.658,41.593,199.3a.894.894,0,0,0-.262.632,7.042,7.042,0,0,1-2.076,5.012L25.133,219.069a1.344,1.344,0,0,1-1.994-1.8l8.178-8.178a.894.894,0,0,0,0-1.264l0,0,0,0a.894.894,0,0,0-1.264,0L20.187,217.7a1.344,1.344,0,0,1-1.994-1.8l9.965-9.965a.894.894,0,1,0-1.264-1.264l-11.6,11.6a1.344,1.344,0,0,1-1.9-1.9L25,202.771a.894.894,0,0,0-1.264-1.264L13.375,211.858a1.344,1.344,0,0,1-1.8-1.994l3.391-3.391a.894.894,0,0,0-1.264-1.264l-1.735,1.735L8.524,203.5a17.3,17.3,0,0,1-4.5-7.853.894.894,0,0,0-.233-.406l-2.264-2.264a.894.894,0,0,0-1.264,1.264l2.1,2.1a19.089,19.089,0,0,0,4.9,8.429l3.446,3.446-.392.392a3.13,3.13,0,0,0,1.288,5.2,3.132,3.132,0,0,0,4.679,3.974,3.131,3.131,0,0,0,4.948,1.383,3.135,3.135,0,0,0,5.169,1.171l1.144-1.144.8.8a3.131,3.131,0,0,0,5.321-1.822,3.16,3.16,0,0,0,.531.046,3.129,3.129,0,0,0,3.132-3.13c0-.012,0-.024,0-.035h.034a3.129,3.129,0,0,0,3.132-3.13,3.171,3.171,0,0,0-.032-.449,3.132,3.132,0,0,0,1.882-5.328l-.945-.945a8.8,8.8,0,0,0,1.719-4.882l2.39-2.39a.894.894,0,0,0-1.264-1.264ZM31.5,218.725a1.346,1.346,0,0,1-1.9,0l-.791-.791,1.9-1.9.453.453.339.339a1.344,1.344,0,0,1,0,1.9Zm4.031-3.643a1.344,1.344,0,0,1-2.295.95l-.472-.472h0l-.791-.791,1.9-1.9,1.264,1.264A1.335,1.335,0,0,1,35.536,215.083Zm2.771-2.215a1.346,1.346,0,0,1-1.9,0L35.143,211.6l1.9-1.9,1.264,1.264a1.344,1.344,0,0,1,0,1.9Zm2.767-3.563a1.344,1.344,0,0,1-1.9,0l-.866-.866,1.9-1.9.866.866a1.344,1.344,0,0,1,0,1.9Z" transform="translate(0 -175.488)" fill="#b46063"/><path d="M10.605,11.88a.894.894,0,0,0,.632.262H15.85a14.614,14.614,0,0,1,9.186,3.26L32.3,21.3a5.854,5.854,0,0,1-6.107.356L21.251,18.98a.894.894,0,0,0-.684-.069,16.585,16.585,0,0,1-9.55.024l-.088-.026a.894.894,0,1,0-.508,1.714l.087.026a18.365,18.365,0,0,0,10.215.078l1.288.7-2.62,2.62a.894.894,0,0,0,1.264,1.264l3-3,1.691.916a7.538,7.538,0,0,0,3.6.918,7.711,7.711,0,0,0,1.109-.081,7.544,7.544,0,0,0,4.279-2.146.894.894,0,0,0-.069-1.326l-7.214-5.858A13.716,13.716,0,0,1,34.2,12.675a.894.894,0,0,0,.626-.262L45.5,1.74A.894.894,0,0,0,44.237.476L33.819,10.894a15.5,15.5,0,0,0-8.242,2.666,16.413,16.413,0,0,0-9.726-3.206H11.607L1.525.272A.894.894,0,0,0,.261,1.536Z" transform="translate(0.001 -0.01)" fill="#b46063"/><path d="M182.462,298.061a.894.894,0,1,0,.633-.262A.9.9,0,0,0,182.462,298.061Z" transform="translate(-165.916 -271.182)" fill="#b46063"/></g></g></g></svg>