<svg xmlns="http://www.w3.org/2000/svg" width="75.188" height="72.458" viewBox="0 0 75.188 72.458"><g transform="translate(-676 -76)"><path d="M31.637-2.435c20.246,0,42.185,5.561,42.185,25.807S68.012,70.023,47.766,70.023-1.367,65.207-1.367,44.961,11.391-2.435,31.637-2.435Z" transform="translate(677.367 78.435)" fill="#e2d9cc"/><g transform="translate(669.213 90.134)"><path d="M56.958,21.562h3.062a1.257,1.257,0,0,0,1.256-1.256V17.244a1.257,1.257,0,0,0-1.256-1.256H56.958A1.257,1.257,0,0,0,55.7,17.244v3.062A1.257,1.257,0,0,0,56.958,21.562Zm.031-4.287h3v3h-3Zm-.031,12.433h3.062a1.257,1.257,0,0,0,1.256-1.256V25.39a1.257,1.257,0,0,0-1.256-1.256H56.958A1.257,1.257,0,0,0,55.7,25.39v3.062A1.257,1.257,0,0,0,56.958,29.708Zm.031-4.287h3v3h-3Zm-8.77-3.859h3.062a1.257,1.257,0,0,0,1.256-1.256V17.244a1.257,1.257,0,0,0-1.256-1.256H48.219a1.257,1.257,0,0,0-1.256,1.256v3.062A1.257,1.257,0,0,0,48.219,21.562Zm.031-4.287h3v3h-3ZM33.8,31.9H30.741a1.257,1.257,0,0,0-1.256,1.256v3.062a1.257,1.257,0,0,0,1.256,1.256H33.8a1.257,1.257,0,0,0,1.256-1.256V33.154A1.257,1.257,0,0,0,33.8,31.9Zm-.031,4.287h-3v-3h3Zm.031-20.2H30.741a1.257,1.257,0,0,0-1.256,1.256v3.062a1.257,1.257,0,0,0,1.256,1.256H33.8a1.257,1.257,0,0,0,1.256-1.256V17.244A1.257,1.257,0,0,0,33.8,15.988Zm-.031,4.287h-3v-3h3Zm14.446,9.241h3.062a1.257,1.257,0,0,0,1.256-1.256V25.2a1.257,1.257,0,0,0-1.256-1.256H48.219A1.257,1.257,0,0,0,46.964,25.2v3.062A1.257,1.257,0,0,0,48.219,29.517Zm.031-4.287h3v3h-3ZM61.915,2.939h-2.75V1.956A1.958,1.958,0,0,0,57.21,0h-.3a1.958,1.958,0,0,0-1.956,1.956v.983H35.8V1.956A1.958,1.958,0,0,0,33.847,0h-.3A1.958,1.958,0,0,0,31.6,1.956v.983h-2.75a3.223,3.223,0,0,0-3.22,3.22V40.687A3.219,3.219,0,0,0,28.843,43.9H61.919a3.219,3.219,0,0,0,3.216-3.216V6.159a3.224,3.224,0,0,0-3.22-3.22Zm-5.67-.983a.67.67,0,0,1,.669-.669h.3a.67.67,0,0,1,.669.669v.983H56.245Zm-23.363,0a.67.67,0,0,1,.669-.669h.3a.67.67,0,0,1,.669.669v.983H32.883V1.956ZM63.849,40.687a1.931,1.931,0,0,1-1.929,1.929H28.842a1.931,1.931,0,0,1-1.929-1.929v0a3.2,3.2,0,0,0,1.934.647H54.921a3.2,3.2,0,0,0,2.277-.943l6.651-6.651Zm-7.307-1.463a2.751,2.751,0,0,0,.078-.649V34.283a1.47,1.47,0,0,1,1.468-1.468h4.293a2.75,2.75,0,0,0,.649-.078Zm7.307-27.1h-27.4a.643.643,0,0,0,0,1.286h27.4V30.061a1.47,1.47,0,0,1-1.468,1.468H58.088a2.758,2.758,0,0,0-2.754,2.754v4.293a1.47,1.47,0,0,1-1.468,1.468H28.847a1.936,1.936,0,0,1-1.934-1.934V13.416h6.96a.643.643,0,0,0,0-1.286h-6.96V6.159a1.936,1.936,0,0,1,1.934-1.934H31.6V6.116a1.958,1.958,0,0,0,1.956,1.956.643.643,0,0,0,0-1.286.67.67,0,0,1-.669-.669V4.225H54.959V6.116a1.958,1.958,0,0,0,1.956,1.956.643.643,0,1,0,0-1.286.67.67,0,0,1-.669-.669V4.225h5.67a1.936,1.936,0,0,1,1.934,1.934ZM33.8,23.943H30.741A1.257,1.257,0,0,0,29.486,25.2v3.062a1.257,1.257,0,0,0,1.256,1.256H33.8a1.257,1.257,0,0,0,1.256-1.256V25.2A1.257,1.257,0,0,0,33.8,23.943Zm-.031,4.287h-3v-3h3Zm5.707-6.669h3.062A1.257,1.257,0,0,0,43.8,20.306V17.244a1.257,1.257,0,0,0-1.256-1.256H39.48a1.257,1.257,0,0,0-1.256,1.256v3.062A1.257,1.257,0,0,0,39.48,21.562Zm.031-4.287h3v3h-3Zm8.738,18.911a.643.643,0,0,0-1.286.031,1.257,1.257,0,0,0,1.256,1.256h3.062a1.257,1.257,0,0,0,1.256-1.256V33.154A1.257,1.257,0,0,0,51.282,31.9H48.219a1.257,1.257,0,0,0-1.256,1.256v.883a.643.643,0,0,0,1.286,0v-.853h3v3ZM39.48,29.517h3.062A1.257,1.257,0,0,0,43.8,28.261V25.2a1.257,1.257,0,0,0-1.256-1.256H39.48A1.257,1.257,0,0,0,38.225,25.2v3.062A1.257,1.257,0,0,0,39.48,29.517Zm.031-4.287h3v3h-3ZM39.48,37.472h3.062A1.257,1.257,0,0,0,43.8,36.216V33.154A1.257,1.257,0,0,0,42.543,31.9H39.48a1.257,1.257,0,0,0-1.256,1.256v3.062A1.257,1.257,0,0,0,39.48,37.472Zm.031-4.287h3v3h-3Z" transform="translate(-1 -2)" fill="#b46063"/></g></g></svg>