<svg xmlns="http://www.w3.org/2000/svg" width="75.188" height="72.458" viewBox="0 0 75.188 72.458"><g transform="translate(-676 -76)"><path d="M31.637-2.435c20.246,0,42.185,5.561,42.185,25.807S68.012,70.023,47.766,70.023-1.367,65.207-1.367,44.961,11.391-2.435,31.637-2.435Z" transform="translate(677.367 78.435)" fill="#e2d9cc"/><g transform="translate(696.606 95.134)"><g transform="translate(0)"><path d="M29.325,22.21A17.113,17.113,0,0,0,22.8,18.115a9.931,9.931,0,1,0-11.238,0A17.206,17.206,0,0,0,0,34.357H2.684a14.494,14.494,0,1,1,28.989,0h2.684A17.066,17.066,0,0,0,29.325,22.21ZM17.178,17.178a7.247,7.247,0,1,1,7.247-7.247A7.255,7.255,0,0,1,17.178,17.178Z" transform="translate(0)" fill="#b46063" stroke="#e2d9cc" stroke-width="1"/></g></g></g></svg>