<svg xmlns="http://www.w3.org/2000/svg" width="74.869" height="72.151" viewBox="0 0 74.869 72.151"><g transform="translate(-1254 -64)"><g transform="translate(869 14.308)"><path d="M31.5-2.435c20.16,0,42.006,5.537,42.006,25.7S67.717,69.716,47.557,69.716-1.367,64.92-1.367,44.76,11.336-2.435,31.5-2.435Z" transform="translate(386.366 52.127)" fill="#e2d9cc"/></g><g transform="translate(1248.919 81.5)"><g transform="translate(27.522)"><g transform="translate(0)"><path d="M57.067,18.626v14.13H53.213a.642.642,0,0,0-.642.642v3.854H28.807V1.285h28.26v8.35h1.285V.642A.642.642,0,0,0,57.709,0H28.164a.642.642,0,0,0-.642.642V37.894a.642.642,0,0,0,.642.642H53.213a.645.645,0,0,0,.454-.188l4.5-4.5a.642.642,0,0,0,.128-.188c.009-.02.014-.039.021-.06a.644.644,0,0,0,.033-.167c0-.013.008-.026.008-.039V18.626ZM53.855,36.344v-2.3h2.3Z" transform="translate(-27.522)" fill="#b46063"/></g></g><g transform="translate(46.79 10.217)"><path d="M281.785,127.831a2.051,2.051,0,0,0-2.835,0l-11.24,11.24a.642.642,0,0,0-.188.454v1.927a.642.642,0,0,0,.642.642h1.927a.642.642,0,0,0,.454-.188l11.24-11.24A2.007,2.007,0,0,0,281.785,127.831Zm-11.96,12.978h-1.019v-1.019l8.028-8.028,1.019,1.019Zm8.937-8.937-1.019-1.019.7-.7,1.019,1.019Zm2.115-2.115-.509.509-1.019-1.019.509-.509a.737.737,0,0,1,1.019,0A.723.723,0,0,1,280.877,129.758Z" transform="translate(-267.522 -127.262)" fill="#b46063"/></g><g transform="translate(30.733 8.35)"><g transform="translate(0)"><path d="M70.091,104a2.569,2.569,0,1,0,2.569,2.569A2.569,2.569,0,0,0,70.091,104Zm0,3.854a1.285,1.285,0,1,1,1.285-1.285A1.285,1.285,0,0,1,70.091,107.854Z" transform="translate(-67.522 -104)" fill="#b46063"/></g></g><g transform="translate(40.556 2.115)"><path d="M194.628,27.252l-.908-.908-1.473,1.473-1.473-1.473-.908.908,1.473,1.473L189.866,30.2l.908.908,1.473-1.473,1.473,1.473.908-.908-1.473-1.473Z" transform="translate(-189.866 -26.344)" fill="#b46063"/></g><g transform="translate(48.717 7.707)"><path d="M294.091,96a2.569,2.569,0,1,0,2.569,2.569A2.569,2.569,0,0,0,294.091,96Zm0,3.854a1.285,1.285,0,1,1,1.285-1.285A1.284,1.284,0,0,1,294.091,99.854Z" transform="translate(-291.522 -96)" fill="#b46063"/></g><g transform="translate(32.66 26.333)"><g transform="translate(0)"><path d="M94.091,328a2.569,2.569,0,1,0,2.569,2.569A2.569,2.569,0,0,0,94.091,328Zm0,3.854a1.285,1.285,0,1,1,1.285-1.285A1.284,1.284,0,0,1,94.091,331.854Z" transform="translate(-91.522 -328)" fill="#b46063"/></g></g><g transform="translate(33.491 16.887)"><path d="M106.628,211.252l-.908-.908-1.473,1.473-1.473-1.473-.908.908,1.473,1.473-1.473,1.473.908.908,1.473-1.473,1.473,1.473.908-.908-1.473-1.473Z" transform="translate(-101.866 -210.344)" fill="#b46063"/></g><g transform="translate(49.547 25.879)"><g transform="translate(0)"><path d="M306.628,323.252l-.908-.908-1.473,1.473-1.473-1.473-.908.908,1.473,1.473-1.473,1.473.908.908,1.473-1.473,1.473,1.473.908-.908-1.473-1.473Z" transform="translate(-301.866 -322.344)" fill="#b46063"/></g></g><g transform="translate(37.121 11.561)"><path d="M149.209,145.285H150.3V144h-2.569a.642.642,0,0,0-.642.642v2.569h1.285v-.9a9.352,9.352,0,0,1-.475,12.028l.951.865A10.643,10.643,0,0,0,149.209,145.285Z" transform="translate(-147.09 -144)" fill="#b46063"/></g><g transform="translate(40.367 29.545)"><path d="M190.091,368a2.569,2.569,0,1,0,2.569,2.569A2.569,2.569,0,0,0,190.091,368Zm0,3.854a1.285,1.285,0,1,1,1.285-1.285A1.285,1.285,0,0,1,190.091,371.854Z" transform="translate(-187.522 -368)" fill="#b46063"/></g><g transform="translate(37.156 7.253)"><path d="M157.61,92.271l-1.927-1.927-.908.908.83.83h-8.084v1.285h8.084l-.83.83.908.908,1.927-1.927A.642.642,0,0,0,157.61,92.271Z" transform="translate(-147.522 -90.344)" fill="#b46063"/></g><g transform="translate(42.294 12.845)"><g transform="translate(0)"><path d="M217.944,160h-2.569v1.285h1.04a18.052,18.052,0,0,0-4.894,12.4v1.726h1.285v-1.726a16.782,16.782,0,0,1,4.5-11.474v1h1.285v-2.569A.642.642,0,0,0,217.944,160Z" transform="translate(-211.521 -160)" fill="#b46063"/></g></g></g></g></svg>