<svg xmlns="http://www.w3.org/2000/svg" width="75.188" height="72.458" viewBox="0 0 75.188 72.458"><g transform="translate(-981 -76)"><path d="M31.637-2.435c20.246,0,42.185,5.561,42.185,25.807S68.012,70.023,47.766,70.023-1.367,65.207-1.367,44.961,11.391-2.435,31.637-2.435Z" transform="translate(982.367 78.435)" fill="#e2d9cc"/><g transform="translate(999 92.926)"><path d="M38.11,132.313c-3.487-4.248-10.87-9.206-18.927-9.206-8.086,0-15.469,4.992-18.927,9.206a1.128,1.128,0,0,0,0,1.431c3.57,4.351,10.97,9.206,18.927,9.206,8.24,0,15.592-5.142,18.927-9.206A1.128,1.128,0,0,0,38.11,132.313Zm-11.262.716a7.665,7.665,0,1,1-7.665-7.665A7.674,7.674,0,0,1,26.848,133.029Zm-24.2,0a27.255,27.255,0,0,1,8.631-6,9.9,9.9,0,0,0,0,11.992,26.758,26.758,0,0,1-8.63-6Zm24.43,6a9.9,9.9,0,0,0,0-11.992,26.762,26.762,0,0,1,8.63,5.995A27.254,27.254,0,0,1,27.082,139.026Z" transform="translate(0 -113.846)" fill="#b46063" stroke="#e2d9cc" stroke-width="0.5"/><path d="M204,207.837A3.837,3.837,0,1,0,207.837,204,3.841,3.841,0,0,0,204,207.837Zm5.416,0a1.58,1.58,0,1,1-1.58-1.58A1.582,1.582,0,0,1,209.416,207.837Z" transform="translate(-188.654 -188.653)" fill="#b46063" stroke="#e2d9cc" stroke-width="0.5"/><path d="M241.128,4.89a1.128,1.128,0,0,0,1.128-1.128V1.128a1.128,1.128,0,0,0-2.257,0V3.761A1.128,1.128,0,0,0,241.128,4.89Z" transform="translate(-221.945)" fill="#b46063" stroke="#e2d9cc" stroke-width="0.5"/><path d="M337.5,26.771a1.128,1.128,0,0,0,1.539-.421l1.5-2.633a1.128,1.128,0,1,0-1.96-1.118l-1.5,2.633A1.129,1.129,0,0,0,337.5,26.771Z" transform="translate(-311.583 -20.372)" fill="#b46063" stroke="#e2d9cc" stroke-width="0.5"/><path d="M124.754,26.35a1.128,1.128,0,1,0,1.96-1.118l-1.5-2.633a1.128,1.128,0,0,0-1.96,1.118Z" transform="translate(-113.844 -20.372)" fill="#b46063" stroke="#e2d9cc" stroke-width="0.5"/><path d="M241.128,445A1.128,1.128,0,0,0,240,446.128v2.633a1.128,1.128,0,0,0,2.257,0v-2.633A1.128,1.128,0,0,0,241.128,445Z" transform="translate(-221.945 -411.523)" fill="#b46063" stroke="#e2d9cc" stroke-width="0.5"/><path d="M126.294,423.115a1.129,1.129,0,0,0-1.539.421l-1.5,2.633a1.128,1.128,0,1,0,1.96,1.118l1.5-2.633A1.128,1.128,0,0,0,126.294,423.115Z" transform="translate(-113.844 -391.148)" fill="#b46063" stroke="#e2d9cc" stroke-width="0.5"/><path d="M339.038,423.536a1.128,1.128,0,1,0-1.96,1.118l1.5,2.633a1.128,1.128,0,1,0,1.96-1.118Z" transform="translate(-311.583 -391.147)" fill="#b46063" stroke="#e2d9cc" stroke-width="0.5"/></g></g></svg>