<svg xmlns="http://www.w3.org/2000/svg" width="74.869" height="72.151" viewBox="0 0 74.869 72.151"><g transform="translate(-385 -49.692)"><path d="M31.5-2.435c20.16,0,42.006,5.537,42.006,25.7S67.717,69.716,47.557,69.716-1.367,64.92-1.367,44.76,11.336-2.435,31.5-2.435Z" transform="translate(386.366 52.127)" fill="#e2d9cc"/><g transform="translate(400.116 68.971)"><g transform="translate(10.558 0)"><g transform="translate(0 0)"><path d="M140.582,55.467a3.019,3.019,0,0,0-3.016,3.016v.545l-17.625,7.049a.756.756,0,0,0-.474.7V77.336a.754.754,0,0,0,.474.7l17.625,7.049v.546a3.016,3.016,0,0,0,6.033,0V58.483A3.019,3.019,0,0,0,140.582,55.467Zm1.508,30.164a1.508,1.508,0,1,1-3.016,0V84.575a.754.754,0,0,0-.474-.7l-17.624-7.049V67.289L138.6,60.24a.755.755,0,0,0,.474-.7V58.483a1.508,1.508,0,1,1,3.016,0Z" transform="translate(-119.467 -55.467)" fill="#b46063"/></g></g><g transform="translate(0 10.557)"><g transform="translate(0 0)"><path d="M11.312,174.933H6.033a6.033,6.033,0,0,0,0,12.066h5.279a.754.754,0,0,0,.754-.754V175.687A.754.754,0,0,0,11.312,174.933Zm-.754,10.558H6.033a4.525,4.525,0,0,1,0-9.049h4.525v9.049Z" transform="translate(0 -174.933)" fill="#b46063"/></g></g><g transform="translate(33.181 12.066)"><g transform="translate(0 0)"><path d="M380.984,193.547l-4.525-1.508a.754.754,0,0,0-.992.716V200.3a.752.752,0,0,0,.754.754.74.74,0,0,0,.238-.039l4.525-1.508a.752.752,0,0,0,.516-.715v-4.525A.754.754,0,0,0,380.984,193.547Zm-.992,4.7-3.016,1.005V193.8l3.016,1.005Z" transform="translate(-375.467 -192.001)" fill="#b46063"/></g></g><g transform="translate(4.524 21.115)"><g transform="translate(0 0)"><path d="M61.683,304.575l-.757-.758-2.212-8.846a.754.754,0,0,0-.731-.572H51.949a.754.754,0,0,0-.734.927l3.016,12.82a.755.755,0,0,0,.734.581.72.72,0,0,0,.143-.014l5.663-1.093.023,0a1.817,1.817,0,0,0,.876-.478,1.81,1.81,0,0,0,.012-2.563Zm-1.072,1.489a.3.3,0,0,1-.14.078l-4.937.954L52.9,295.908h4.492l2.121,8.478a.755.755,0,0,0,.2.351l.9.9a.3.3,0,0,1,.087.213A.3.3,0,0,1,60.611,306.064Z" transform="translate(-51.195 -294.4)" fill="#b46063"/></g></g><g transform="translate(40.722 15.836)"><g transform="translate(0 0)"><rect width="4.525" height="1.508" fill="#b46063"/></g></g><g transform="translate(40.332 6.896)"><g transform="translate(0 0)"><rect width="4.397" height="1.508" transform="translate(0 2.263) rotate(-30.972)" fill="#b46063"/></g></g><g transform="translate(40.339 22.73)"><g transform="translate(0 0)"><rect width="1.508" height="4.397" transform="translate(0 1.293) rotate(-59.036)" fill="#b46063"/></g></g><g transform="translate(28.656 3.77)"><g transform="translate(0 0)"><rect width="1.508" height="25.64" fill="#b46063"/></g></g><g transform="translate(7.541 13.574)"><g transform="translate(0 0)"><rect width="1.508" height="3.016" fill="#b46063"/></g></g><g transform="translate(4.525 13.574)"><g transform="translate(0 0)"><rect width="1.508" height="3.016" fill="#b46063"/></g></g></g></g></svg>