<svg xmlns="http://www.w3.org/2000/svg" width="74.15" height="71.458" viewBox="0 0 74.15 71.458"><g transform="translate(-94 -49)"><path d="M31.181-2.435c19.967,0,41.6,5.484,41.6,25.451s-5.729,46.007-25.7,46.007S-1.367,64.273-1.367,44.307,11.215-2.435,31.181-2.435Z" transform="translate(95.367 51.435)" fill="#e2d9cc"/><g transform="translate(110.693 64.231)"><path d="M167.111,143.968H166.1a8.515,8.515,0,0,1,.3-1.358,9.492,9.492,0,0,1,.572-1.42c.07-.142.145-.285.223-.425a2.879,2.879,0,0,0,.362-1.394v-9.594a2.465,2.465,0,0,0-4-1.928,2.465,2.465,0,0,0-3.909-.565c-.038.037-.073.076-.108.116a2.464,2.464,0,0,0-3.085-.507v-7.33a2.491,2.491,0,0,0-4.982,0v1.274a.615.615,0,1,0,1.23,0v-1.274a1.26,1.26,0,0,1,2.521,0V130.7a.615.615,0,0,0,1.231,0v-1.675a1.235,1.235,0,0,1,2.471,0V130.7a.615.615,0,0,0,1.23,0v-1.675a1.235,1.235,0,0,1,2.471,0V130.7a.615.615,0,0,0,1.23,0v-.925a1.235,1.235,0,1,1,2.471,0v9.594a1.646,1.646,0,0,1-.207.8c-.087.157-.171.317-.249.475a10.706,10.706,0,0,0-.645,1.6,9.728,9.728,0,0,0-.37,1.723h-2.423a.615.615,0,0,0,0,1.23H166.5v3.041H150.809V145.2h8.943a.615.615,0,1,0,0-1.23H152.43a8.716,8.716,0,0,0-2.608-4.443,1.64,1.64,0,0,1-.379-.572c-1.5-3.766-2.721-7.214-3.428-9.709a.677.677,0,0,1,.2-.695.687.687,0,0,1,.719-.138c1.292.484,2.673,1.89,3.993,4.066a.961.961,0,0,0,1.782-.5v-8.458a.615.615,0,0,0-1.231,0v7.533a9.334,9.334,0,0,0-4.112-3.793,1.922,1.922,0,0,0-2.53,2.321c.719,2.534,1.951,6.025,3.469,9.83a2.865,2.865,0,0,0,.664,1,7.553,7.553,0,0,1,2.2,3.56h-.975a.615.615,0,0,0-.615.615v4.271a.615.615,0,0,0,.615.615h16.917a.615.615,0,0,0,.615-.615v-4.271A.615.615,0,0,0,167.111,143.968Z" transform="translate(-132.883 -107.47)" fill="#b46063"/><path d="M205.124,5.323l-.26,1.513a1.169,1.169,0,0,0,1.7,1.234l1.359-.714,1.359.714a1.171,1.171,0,0,0,1.7-1.234l-.26-1.513,1.1-1.072a1.171,1.171,0,0,0-.649-2l-1.519-.221L208.972.657a1.171,1.171,0,0,0-2.1,0l-.679,1.377-1.519.221a1.171,1.171,0,0,0-.649,2ZM206.4,3.246a1.17,1.17,0,0,0,.882-.641l.64-1.3.64,1.3a1.17,1.17,0,0,0,.882.641l1.431.208-1.035,1.009A1.171,1.171,0,0,0,209.5,5.5l.244,1.425-1.28-.673a1.17,1.17,0,0,0-1.09,0l-1.28.673.244-1.425a1.171,1.171,0,0,0-.337-1.036L204.97,3.454Z" transform="translate(-186.963 -0.004)" fill="#b46063"/><path d="M7.5,76.83l-1.519-.221L5.3,75.233a1.171,1.171,0,0,0-2.1,0l-.679,1.377L1,76.83a1.171,1.171,0,0,0-.649,2l1.1,1.072-.26,1.513a1.171,1.171,0,0,0,1.7,1.234l1.359-.715,1.359.715a1.171,1.171,0,0,0,1.7-1.234L7.051,79.9l1.1-1.072a1.171,1.171,0,0,0-.649-2ZM6.169,79.039a1.17,1.17,0,0,0-.337,1.036L6.077,81.5,4.8,80.828a1.171,1.171,0,0,0-1.09,0l-1.28.673.244-1.425a1.171,1.171,0,0,0-.337-1.036L1.3,78.03l1.431-.208a1.171,1.171,0,0,0,.882-.641l.64-1.3.64,1.3a1.171,1.171,0,0,0,.882.64L7.2,78.03Z" transform="translate(0 -68.462)" fill="#b46063"/><path d="M416.784,77.626a1.164,1.164,0,0,0-.945-.8l-1.519-.221-.679-1.377a1.171,1.171,0,0,0-2.1,0l-.679,1.377-1.52.221a1.171,1.171,0,0,0-.649,2l1.1,1.072-.26,1.513a1.171,1.171,0,0,0,1.7,1.234l1.359-.714,1.359.714a1.171,1.171,0,0,0,1.7-1.234l-.26-1.513,1.1-1.072A1.164,1.164,0,0,0,416.784,77.626Zm-2.277,1.413a1.171,1.171,0,0,0-.337,1.036l.244,1.425-1.28-.673a1.171,1.171,0,0,0-1.09,0l-1.28.673.244-1.425a1.17,1.17,0,0,0-.337-1.036l-1.035-1.009,1.431-.208a1.171,1.171,0,0,0,.882-.641l.64-1.3.64,1.3a1.171,1.171,0,0,0,.882.64l1.431.208Z" transform="translate(-374.841 -68.461)" fill="#b46063"/><path d="M101.649,34.3a1.171,1.171,0,0,0,1.7-1.234l-.26-1.513,1.1-1.072a1.171,1.171,0,0,0-.649-2l-1.519-.221-.679-1.377a1.171,1.171,0,0,0-2.1,0l-.679,1.377-1.519.221a1.171,1.171,0,0,0-.649,2l1.1,1.072-.26,1.513a1.169,1.169,0,0,0,1.7,1.234l1.359-.714Zm-3.183-1.145.244-1.425a1.171,1.171,0,0,0-.337-1.036l-1.035-1.009,1.431-.208a1.171,1.171,0,0,0,.882-.641l.64-1.3.64,1.3a1.171,1.171,0,0,0,.882.64l1.431.208-1.035,1.009a1.171,1.171,0,0,0-.337,1.036l.244,1.425-1.28-.673a1.17,1.17,0,0,0-1.09,0Z" transform="translate(-88.16 -24.083)" fill="#b46063"/><path d="M312.751,31.549l-.26,1.513a1.17,1.17,0,0,0,1.7,1.234l1.358-.714,1.359.714a1.17,1.17,0,0,0,1.7-1.234l-.065-.377a.615.615,0,0,0-1.213.208l.044.258-1.279-.671a1.168,1.168,0,0,0-1.09,0l-1.28.672.245-1.427a1.169,1.169,0,0,0-.337-1.034L312.6,29.68l1.431-.207a1.172,1.172,0,0,0,.881-.641l.64-1.3.639,1.295a1.169,1.169,0,0,0,.882.643l1.431.207a.615.615,0,0,0,.874.867l.071-.07a1.171,1.171,0,0,0-.648-2l-1.519-.22-.68-1.377a1.164,1.164,0,0,0-1.05-.653h0a1.163,1.163,0,0,0-1.049.653l-.68,1.377-1.519.22a1.171,1.171,0,0,0-.649,2Z" transform="translate(-285.761 -24.078)" fill="#b46063"/></g></g></svg>