<svg xmlns="http://www.w3.org/2000/svg" width="70.359" height="67.805" viewBox="0 0 70.359 67.805"><g transform="translate(-330 746)"><g transform="translate(1692.821 -2718)"><path d="M29.517-2.435c18.946,0,39.475,5.2,39.475,24.15S63.556,65.37,44.61,65.37-1.367,60.863-1.367,41.917,10.571-2.435,29.517-2.435Z" transform="translate(-1361.454 1974.435)" fill="#ede7e4"/></g><g transform="translate(346 -731.974)"><path d="M3.174,7.258V37.215H6.7V24.886H18.439v.587A1.761,1.761,0,0,0,20.2,27.234H36.638a.587.587,0,0,0,.528-.85L33.772,19.6l3.395-6.783a.587.587,0,0,0-.528-.85h-13.5v-.587a1.761,1.761,0,0,0-1.761-1.761H6.7V7.258a2.935,2.935,0,1,0-3.523,0ZM5.522,36.041H4.348V7.8a2.936,2.936,0,0,0,1.174,0ZM23.135,24.3V13.144H35.688l-3.1,6.2a.587.587,0,0,0,0,.525l1.924,3.847H29.006v1.174h6.1l.587,1.174H20.2a.587.587,0,0,1-.587-.587v-.587h2.935A.587.587,0,0,0,23.135,24.3ZM21.374,10.8a.587.587,0,0,1,.587.587V23.712H6.7V13.144h6.458V11.97H6.7V10.8ZM4.935,3.163A1.761,1.761,0,1,1,3.174,4.925,1.761,1.761,0,0,1,4.935,3.163Z" transform="translate(0)" fill="#b46063"/><rect width="1.174" height="1.174" transform="translate(26.658 23.712)" fill="#b46063"/></g></g></svg>