<svg xmlns="http://www.w3.org/2000/svg" width="70.359" height="67.805" viewBox="0 0 70.359 67.805"><g transform="translate(-451 746)"><g transform="translate(1813.821 -2718)"><path d="M29.517-2.435c18.946,0,39.475,5.2,39.475,24.15S63.556,65.37,44.61,65.37-1.367,60.863-1.367,41.917,10.571-2.435,29.517-2.435Z" transform="translate(-1361.454 1974.435)" fill="#ede7e4"/></g><g transform="translate(-188.663 190.581)"><g transform="translate(658.663 -919.581)"><path d="M330.964,42.758a.554.554,0,0,0,.783,0L335.6,38.9a2.835,2.835,0,0,0-4.009-4.009l-.24.239-.239-.239a2.834,2.834,0,1,0-4.009,4.008Zm-3.074-7.083a1.73,1.73,0,0,1,2.443,0l.631.631a.554.554,0,0,0,.783,0l.631-.631a1.727,1.727,0,0,1,2.443,2.443l-3.466,3.465-3.465-3.465a1.727,1.727,0,0,1,0-2.443Zm0,0" transform="translate(-305.052 -31.848)" fill="#b46063"/><path d="M31.495,32.113a15.539,15.539,0,0,1-8.523-1.591.552.552,0,0,0-.42-.053c-.06.016-6.012,1.612-10.807.547-2.989-.664-5.808-2.77-7.866-4.307-.276-.206-.538-.4-.784-.582a6.289,6.289,0,0,0-1.341-.63c-.211-.081-.5-.192-.563-.231a.217.217,0,0,1-.083-.175V23.807c.027-1.015,4.284-16.64,4.944-18.628a.428.428,0,0,1,.127-.091L14.6,1.24l2.724,3.546a.488.488,0,0,1-.03.61L14.605,8.413a.48.48,0,0,1-.657.066l-1.088-1a.558.558,0,0,0-.479-.125.581.581,0,0,0-.4.306,3.02,3.02,0,0,1-1.756.405L9.95,8.034a.547.547,0,0,0-.54.282.554.554,0,0,0,.046.608c.234.3.416.545.519.684l.539,9.157A4.03,4.03,0,0,1,9.8,20.509a.554.554,0,0,0,.166,1.082c.628,0,1.162-.825,1.59-2.436a6.774,6.774,0,0,1,8.548.071A4.377,4.377,0,0,1,21.59,21.6a.554.554,0,0,0,1.107-.012,4.626,4.626,0,0,0-1.479-2.8A7.063,7.063,0,0,1,25.8,15.966a8.033,8.033,0,0,1,5.4,1.625.554.554,0,0,0,.7-.857,9.031,9.031,0,0,0-6.227-1.867,8.091,8.091,0,0,0-5.3,3.191,7.87,7.87,0,0,0-8.813-.257l-.5-8.421a.55.55,0,0,0-.081-.257,3.638,3.638,0,0,0,1.513-.47l.713.657a1.587,1.587,0,0,0,2.214-.159l2.692-3.018a1.6,1.6,0,0,0,.09-2.011l-3-3.906A.554.554,0,0,0,14.543.05L5.724,4.078a1.346,1.346,0,0,0-.714.729C4.7,5.748,0,22.5,0,23.805V25.09a1.321,1.321,0,0,0,.508,1.047,3.517,3.517,0,0,0,.851.393,6,6,0,0,1,1.083.49c.243.178.5.371.776.576,2.139,1.6,5.068,3.785,8.289,4.5,4.585,1.019,9.968-.213,11.122-.5a16.592,16.592,0,0,0,7.3,1.714,15.236,15.236,0,0,0,1.692-.093.554.554,0,1,0-.122-1.1Zm0,0" transform="translate(0 0)" fill="#b46063"/><path d="M426.615,383.457a.554.554,0,0,0-1.1.061c0,.37.273,1.622,3.784,2.207a.554.554,0,1,0,.182-1.092C427.022,384.224,426.648,383.531,426.615,383.457Zm0,0" transform="translate(-397.831 -358.052)" fill="#b46063"/><path d="M113.632,378.344c-7.251,1.553-10.354-3.408-10.482-3.62a.554.554,0,0,0-.949.571,9.5,9.5,0,0,0,2.8,2.739,10.739,10.739,0,0,0,5.954,1.713,13.868,13.868,0,0,0,2.907-.32.554.554,0,0,0-.232-1.083Zm0,0" transform="translate(-95.478 -350.098)" fill="#b46063"/></g></g></g></svg>