<svg xmlns="http://www.w3.org/2000/svg" width="70.359" height="67.805" viewBox="0 0 70.359 67.805"><g transform="translate(-575 729)"><g transform="translate(1937.821 -2701)"><path d="M29.517-2.435c18.946,0,39.475,5.2,39.475,24.15S63.556,65.37,44.61,65.37-1.367,60.863-1.367,41.917,10.571-2.435,29.517-2.435Z" transform="translate(-1361.454 1974.435)" fill="#ede7e4"/></g><g transform="translate(589 -718.555)"><path d="M47.171,20.806a5.4,5.4,0,0,1-1.5-.212c-1.43-.413-3.233-1.573-3.707-4.756a4.93,4.93,0,0,1,1-3.792C46.064,7.9,55.05,6.613,55.431,6.56a.557.557,0,0,1,.61.712l-2.023,6.712A18.1,18.1,0,0,1,52.483,17.6,6.18,6.18,0,0,1,47.171,20.806Zm7.545-13c-2.308.427-8.568,1.837-10.864,4.906a3.8,3.8,0,0,0-.789,2.96c.31,2.085,1.29,3.38,2.914,3.849a4.916,4.916,0,0,0,5.533-2.464,16.968,16.968,0,0,0,1.441-3.4Z" transform="translate(-17.689)" fill="#b46063"/><path d="M29.033,27.679a4.263,4.263,0,0,1-2.755-1.063c-2.92-2.433-5.345-8.741-5.446-9.009a.557.557,0,0,1,.624-.745l8.038,1.515a5.084,5.084,0,0,1,2.819,1.489,4.408,4.408,0,0,1,1.2,3.278,4.742,4.742,0,0,1-3.432,4.4,4.176,4.176,0,0,1-1.046.138Zm-6.779-9.534c.784,1.837,2.672,5.9,4.737,7.615a3.024,3.024,0,0,0,2.81.7,3.619,3.619,0,0,0,2.6-3.373,3.274,3.274,0,0,0-.9-2.467,3.981,3.981,0,0,0-2.211-1.154Z" transform="translate(-8.332 -4.564)" fill="#b46063"/><path d="M37.751,36.124h-.037a.557.557,0,0,1-.519-.59h0c0-.056.223-5.673-7.961-12.558a.557.557,0,1,1,.716-.852c8.664,7.285,8.373,13.23,8.357,13.48A.557.557,0,0,1,37.751,36.124Z" transform="translate(-11.979 -6.84)" fill="#b46063"/><path d="M44.039,30.835a.557.557,0,0,1-.557-.542c-.069-2.554.586-9.343,8.141-17.2a.557.557,0,0,1,.8.772c-7.266,7.558-7.9,13.989-7.83,16.4a.557.557,0,0,1-.542.572Z" transform="translate(-18.386 -2.822)" fill="#b46063"/><path d="M30.878,48.863H21.158a.557.557,0,1,1,0-1.113h9.719a1.706,1.706,0,0,0,1.657-1.709,1.658,1.658,0,0,0-1.657-1.657H28.046a7.064,7.064,0,0,1-4.265-1.442,5.949,5.949,0,0,0-3.592-1.213H12.568a.557.557,0,1,1,0-1.113h7.621a7.07,7.07,0,0,1,4.265,1.442,5.944,5.944,0,0,0,3.589,1.214h2.835a2.8,2.8,0,1,1,0,5.593Z" transform="translate(-4.438 -15.098)" fill="#b46063"/><path d="M26.461,58.147a12.758,12.758,0,0,1-3.569-.512L12.388,54.1a.558.558,0,0,1,.356-1.058L23.225,56.57a11.323,11.323,0,0,0,7.857-.533l12.762-6.28a.806.806,0,0,0,.127-1.367,4.059,4.059,0,0,0-3.889-.552l-7.716,3.148a.557.557,0,0,1-.421-1.031l7.727-3.15a5.17,5.17,0,0,1,4.964.7,1.918,1.918,0,0,1-.3,3.257L31.559,57.046A12.256,12.256,0,0,1,26.461,58.147Z" transform="translate(-4.436 -17.69)" fill="#b46063"/><path d="M7.567,51.792H3.12A1.121,1.121,0,0,1,2,50.673V39.55a1.121,1.121,0,0,1,1.12-1.119H7.567a1.121,1.121,0,0,1,1.12,1.119V50.673a1.121,1.121,0,0,1-1.12,1.12ZM3.12,39.544,3.113,50.673l4.454.006.006-11.129a.006.006,0,0,0-.006-.006Z" transform="translate(0 -14.13)" fill="#b46063"/></g></g></svg>