<svg xmlns="http://www.w3.org/2000/svg" width="30" height="30" viewBox="0 0 30 30"><g transform="translate(-101 -1055)"><path d="M15,0A15,15,0,1,1,0,15,15,15,0,0,1,15,0Z" transform="translate(101 1055)" fill="#b46063"/><path d="M6.7,13.247l-.578.578a.622.622,0,0,1-.882,0L.18,8.77a.622.622,0,0,1,0-.882L5.237,2.831a.622.622,0,0,1,.882,0l.578.578a.625.625,0,0,1-.01.892L3.551,7.287h7.477a.623.623,0,0,1,.624.624v.832a.623.623,0,0,1-.624.624H3.551l3.135,2.986A.621.621,0,0,1,6.7,13.247Z" transform="translate(110.004 1061.353)" fill="#fff"/></g></svg>