<svg xmlns="http://www.w3.org/2000/svg" width="43.814" height="42.223" viewBox="0 0 43.814 42.223"><g transform="translate(-817 -1641)"><path d="M17.865-2.435c11.8,0,24.582,3.241,24.582,15.038S39.062,39.788,27.264,39.788s-28.631-2.807-28.631-14.6S6.067-2.435,17.865-2.435Z" transform="translate(818.367 1643.435)" fill="#fff"/><g transform="translate(827 1650)"><g transform="translate(7.846 5.605)"><g transform="translate(0 0)"><rect width="5" height="1" transform="translate(0.153 0.395)" fill="#b46063"/></g></g><g transform="translate(13.451 5.605)"><g transform="translate(0 0)"><rect width="3" height="1" transform="translate(-0.451 0.395)" fill="#b46063"/></g></g><path d="M21.771,0H20.98a.4.4,0,0,0-.4.4V3.167H.4a.4.4,0,0,0-.4.4V20.188a.4.4,0,0,0,.4.4H21.771A1.979,1.979,0,0,0,23.75,18.6V1.979A1.979,1.979,0,0,0,21.771,0Zm0,19.792H.792V3.958H20.584V17.021a.4.4,0,0,0,.4.4h.792a1.188,1.188,0,0,1,0,2.375Zm1.188-2.771a1.979,1.979,0,0,0-1.188-.4h-.4V.792h.4a1.188,1.188,0,0,1,1.188,1.188Z" fill="#b46063"/><g transform="translate(3.958 7.125)"><path d="M95.438,149.542H93.459v-1.188a.4.4,0,0,0-.4-.4h-4.75v-.792h1.979a.4.4,0,0,0,.4-.4V144.4a.4.4,0,0,0-.4-.4h-4.75a.4.4,0,0,0-.4.4v2.375a.4.4,0,0,0,.4.4h1.979v.792h-4.75a.4.4,0,0,0-.4.4v1.188H80.4a.4.4,0,0,0-.4.4v2.375a.4.4,0,0,0,.4.4h4.75a.4.4,0,0,0,.4-.4v-2.375a.4.4,0,0,0-.4-.4H83.167v-.792h9.5v.792H90.688a.4.4,0,0,0-.4.4v2.375a.4.4,0,0,0,.4.4h4.75a.4.4,0,0,0,.4-.4v-2.375A.4.4,0,0,0,95.438,149.542Zm-10.688.792v1.583H80.792v-1.583Zm1.188-3.958v-1.583H89.9v1.583Zm9.1,5.542H91.084v-1.583h3.958Z" transform="translate(-80 -144)" fill="#b46063"/></g><g transform="translate(3.363 16.814)"><g transform="translate(0 0)"><rect width="3" transform="translate(-0.363 0.186)" fill="#b46063"/></g></g><g transform="translate(6.726 16.814)"><g transform="translate(0 0)"><rect width="2" transform="translate(0.274 0.186)" fill="#b46063"/></g></g><g transform="translate(8.712 21.375)"><path d="M186.746,432h-9.1a.4.4,0,0,0-.218.067l-1.188.792a.4.4,0,0,0,0,.657l1.188.792a.4.4,0,0,0,.218.067h9.1a.4.4,0,0,0,.4-.4V432.4A.4.4,0,0,0,186.746,432Zm-1.979,1.583H177.76l-.594-.4.594-.4h7.006Zm1.583,0h-.792v-.792h.792Z" transform="translate(-176.061 -432)" fill="#b46063"/></g><g transform="translate(14.572 16.814)"><g transform="translate(0 0)"><rect width="2" transform="translate(0.428 0.186)" fill="#b46063"/></g></g><g transform="translate(17.934 16.814)"><g transform="translate(0 0)"><rect width="2" transform="translate(0.065 0.186)" fill="#b46063"/></g></g></g></g></svg>