<svg xmlns="http://www.w3.org/2000/svg" width="43.814" height="42.223" viewBox="0 0 43.814 42.223"><g transform="translate(-815 -1757)"><path d="M17.865-2.435c11.8,0,24.582,3.241,24.582,15.038S39.062,39.788,27.264,39.788s-28.631-2.807-28.631-14.6S6.067-2.435,17.865-2.435Z" transform="translate(816.367 1759.435)" fill="#fff"/><g transform="translate(825 1767)"><path d="M22.734,128.6a15.7,15.7,0,0,0-11.291-5.492A15.7,15.7,0,0,0,.152,128.6a.673.673,0,0,0,0,.854,15.683,15.683,0,0,0,11.291,5.492,15.714,15.714,0,0,0,11.291-5.492A.673.673,0,0,0,22.734,128.6Zm-6.718.427a4.573,4.573,0,1,1-4.573-4.573A4.578,4.578,0,0,1,16.015,129.026Zm-14.433,0a16.258,16.258,0,0,1,5.149-3.578,5.9,5.9,0,0,0,0,7.154,15.962,15.962,0,0,1-5.148-3.576ZM16.155,132.6a5.9,5.9,0,0,0,0-7.154,15.964,15.964,0,0,1,5.148,3.576A16.257,16.257,0,0,1,16.155,132.6Z" transform="translate(0 -117.582)" fill="#b46063" stroke="#fff" stroke-width="0.5"/><path d="M204,206.289A2.289,2.289,0,1,0,206.289,204,2.291,2.291,0,0,0,204,206.289Zm3.231,0a.942.942,0,1,1-.942-.942A.943.943,0,0,1,207.231,206.289Z" transform="translate(-194.846 -194.845)" fill="#b46063" stroke="#fff" stroke-width="0.5"/><path d="M240.673,2.917a.673.673,0,0,0,.673-.673V.673a.673.673,0,0,0-1.346,0V2.244A.673.673,0,0,0,240.673,2.917Z" transform="translate(-229.23)" fill="#b46063" stroke="#fff" stroke-width="0.5"/><path d="M337.269,24.858a.673.673,0,0,0,.918-.251l.9-1.571a.673.673,0,1,0-1.169-.667l-.9,1.571A.673.673,0,0,0,337.269,24.858Z" transform="translate(-321.81 -21.04)" fill="#b46063" stroke="#fff" stroke-width="0.5"/><path d="M124.089,24.607a.673.673,0,1,0,1.169-.667l-.9-1.571a.673.673,0,1,0-1.169.667Z" transform="translate(-117.58 -21.041)" fill="#b46063" stroke="#fff" stroke-width="0.5"/><path d="M240.673,445a.673.673,0,0,0-.673.673v1.571a.673.673,0,0,0,1.346,0v-1.571A.673.673,0,0,0,240.673,445Z" transform="translate(-229.23 -425.03)" fill="#b46063" stroke="#fff" stroke-width="0.5"/><path d="M125.007,423.055a.673.673,0,0,0-.918.251l-.9,1.571a.673.673,0,1,0,1.169.667l.9-1.571A.673.673,0,0,0,125.007,423.055Z" transform="translate(-117.58 -403.986)" fill="#b46063" stroke="#fff" stroke-width="0.5"/><path d="M338.187,423.306a.673.673,0,1,0-1.169.667l.9,1.571a.673.673,0,1,0,1.169-.667Z" transform="translate(-321.81 -403.985)" fill="#b46063" stroke="#fff" stroke-width="0.5"/></g></g></svg>