<svg xmlns="http://www.w3.org/2000/svg" width="43.814" height="42.223" viewBox="0 0 43.814 42.223"><g transform="translate(-817 -1517)"><path d="M17.865-2.435c11.8,0,24.582,3.241,24.582,15.038S39.062,39.788,27.264,39.788s-28.631-2.807-28.631-14.6S6.067-2.435,17.865-2.435Z" transform="translate(818.367 1519.435)" fill="#fff"/><g transform="translate(826 1526)"><g transform="translate(2.743 7.371)"><path d="M74.339,166.851l-2.829-4.368a1.18,1.18,0,0,0-.994-.541H58.035a1.18,1.18,0,0,0-.993.539L54.2,166.85a1.187,1.187,0,0,0,.109,1.433l9.073,10.186a1.186,1.186,0,0,0,.885.4h0a1.186,1.186,0,0,0,.885-.4l9.074-10.187A1.187,1.187,0,0,0,74.339,166.851Zm-4.4-3.893-2.379,3.679-2.38-3.679Zm-3.312,4.106h-4.72l2.36-3.647Zm-3.273-4.106-2.374,3.669-2.373-3.669Zm-5.686.418,2.385,3.688h-4.78Zm-2.181,4.7H60.6l2.7,8.772Zm8.779,8.458-2.606-8.458h5.211Zm.966.315,2.7-8.772h5.111Zm3.261-9.788,2.383-3.685,2.386,3.685Z" transform="translate(-54.014 -161.942)" fill="#b46063" stroke="#fff" stroke-width="0.2"/></g><g transform="translate(0 12.493)"><path d="M1.54,262.793H.508a.508.508,0,0,0,0,1.016H1.54a.508.508,0,0,0,0-1.016Z" transform="translate(0 -262.793)" fill="#b46063" stroke="#fff" stroke-width="0.2"/></g><g transform="translate(23.953 12.493)"><path d="M473.207,262.793h-1.033a.508.508,0,0,0,0,1.016h1.033a.508.508,0,0,0,0-1.016Z" transform="translate(-471.667 -262.793)" fill="#b46063" stroke="#fff" stroke-width="0.2"/></g><g transform="translate(19.646 3.662)"><path d="M389.411,89.046a.508.508,0,0,0-.718,0l-1.687,1.687a.508.508,0,0,0,.718.718l1.687-1.687A.508.508,0,0,0,389.411,89.046Z" transform="translate(-386.857 -88.897)" fill="#b46063" stroke="#fff" stroke-width="0.2"/></g><g transform="translate(3.675 3.653)"><path d="M74.912,90.554l-1.687-1.687a.508.508,0,0,0-.718.718l1.687,1.687a.508.508,0,0,0,.718-.718Z" transform="translate(-72.358 -88.718)" fill="#b46063" stroke="#fff" stroke-width="0.2"/></g><g transform="translate(12.505 0)"><path d="M246.762,16.793a.508.508,0,0,0-.508.508V20.61a.508.508,0,1,0,1.016,0V17.3A.508.508,0,0,0,246.762,16.793Z" transform="translate(-246.254 -16.793)" fill="#b46063" stroke="#fff" stroke-width="0.2"/></g><g transform="translate(12.505 5.027)"><path d="M247.117,115.939a.507.507,0,1,0,.149.359A.511.511,0,0,0,247.117,115.939Z" transform="translate(-246.25 -115.79)" fill="#b46063" stroke="#fff" stroke-width="0.2"/></g></g></g></svg>