<svg xmlns="http://www.w3.org/2000/svg" width="43.814" height="42.223" viewBox="0 0 43.814 42.223"><g transform="translate(-817 -1577)"><path d="M17.865-2.435c11.8,0,24.582,3.241,24.582,15.038S39.062,39.788,27.264,39.788s-28.631-2.807-28.631-14.6S6.067-2.435,17.865-2.435Z" transform="translate(818.367 1579.435)" fill="#fff"/><g transform="translate(826 1586)"><path d="M157.966,132.965h-.6a5.032,5.032,0,0,1,.179-.8,5.608,5.608,0,0,1,.338-.839c.041-.084.086-.168.132-.251a1.7,1.7,0,0,0,.214-.823V124.58a1.457,1.457,0,0,0-2.365-1.139,1.457,1.457,0,0,0-2.31-.334c-.022.022-.043.045-.064.068a1.456,1.456,0,0,0-1.823-.3v-4.331a1.472,1.472,0,0,0-2.944,0v.753a.364.364,0,1,0,.727,0v-.753a.745.745,0,0,1,1.49,0v6.582a.364.364,0,0,0,.727,0v-.99a.73.73,0,0,1,1.46,0v.99a.364.364,0,0,0,.727,0v-.99a.73.73,0,0,1,1.46,0v.99a.364.364,0,1,0,.727,0v-.547a.73.73,0,1,1,1.46,0v5.669a.973.973,0,0,1-.122.471c-.051.093-.1.187-.147.28a6.328,6.328,0,0,0-.381.946,5.749,5.749,0,0,0-.219,1.018H155.2a.364.364,0,1,0,0,.727h2.4v1.8h-9.269v-1.8h5.284a.364.364,0,1,0,0-.727h-4.326a5.15,5.15,0,0,0-1.541-2.625.97.97,0,0,1-.224-.338c-.888-2.225-1.608-4.263-2.026-5.737a.4.4,0,0,1,.115-.41.406.406,0,0,1,.425-.082,5.483,5.483,0,0,1,2.359,2.4.568.568,0,0,0,1.053-.3v-5a.364.364,0,0,0-.727,0v4.451a5.515,5.515,0,0,0-2.43-2.241,1.136,1.136,0,0,0-1.495,1.371c.425,1.5,1.153,3.56,2.05,5.808a1.692,1.692,0,0,0,.392.59,4.463,4.463,0,0,1,1.3,2.1h-.576a.364.364,0,0,0-.364.364v2.524a.364.364,0,0,0,.364.364h10a.363.363,0,0,0,.364-.364v-2.524A.364.364,0,0,0,157.966,132.965Z" transform="translate(-137.741 -111.399)" fill="#b46063"/><path d="M204.529,3.147l-.153.894a.691.691,0,0,0,1,.729l.8-.422.8.422a.692.692,0,0,0,1-.729l-.153-.894.65-.633a.692.692,0,0,0-.383-1.18l-.9-.13L206.8.39a.692.692,0,0,0-1.241,0l-.4.813-.9.13a.692.692,0,0,0-.383,1.18Zm.754-1.227a.692.692,0,0,0,.521-.378l.378-.766.378.766a.692.692,0,0,0,.521.379l.845.123-.612.6a.692.692,0,0,0-.2.612l.144.842-.756-.4a.692.692,0,0,0-.644,0l-.756.4.144-.842a.692.692,0,0,0-.2-.612l-.612-.6Z" transform="translate(-193.798 -0.004)" fill="#b46063"/><path d="M4.432,75.91l-.9-.13-.4-.813a.692.692,0,0,0-1.241,0l-.4.813-.9.13A.692.692,0,0,0,.21,77.09l.65.633-.153.894a.692.692,0,0,0,1,.729l.8-.422.8.422a.692.692,0,0,0,1-.729l-.153-.894.65-.633a.692.692,0,0,0-.383-1.18Zm-.787,1.305a.692.692,0,0,0-.2.612l.144.842-.756-.4a.692.692,0,0,0-.644,0l-.756.4.144-.842a.692.692,0,0,0-.2-.612l-.612-.6.845-.123a.692.692,0,0,0,.521-.378l.378-.766.378.766a.692.692,0,0,0,.521.378l.845.123Z" transform="translate(0 -70.965)" fill="#b46063"/><path d="M413.328,76.379a.688.688,0,0,0-.559-.471l-.9-.13-.4-.813a.692.692,0,0,0-1.241,0l-.4.813-.9.13a.692.692,0,0,0-.383,1.18l.65.633-.153.894a.692.692,0,0,0,1,.729l.8-.422.8.422a.692.692,0,0,0,1-.729l-.153-.894.65-.633A.688.688,0,0,0,413.328,76.379Zm-1.346.835a.692.692,0,0,0-.2.612l.144.842-.756-.4a.692.692,0,0,0-.644,0l-.756.4.144-.842a.692.692,0,0,0-.2-.612l-.612-.6.845-.123a.692.692,0,0,0,.521-.378l.378-.766.378.766a.692.692,0,0,0,.521.378l.845.123Z" transform="translate(-388.545 -70.964)" fill="#b46063"/><path d="M99.353,31a.692.692,0,0,0,1-.729l-.153-.894.65-.633a.692.692,0,0,0-.383-1.18l-.9-.13-.4-.814a.692.692,0,0,0-1.241,0l-.4.813-.9.13a.692.692,0,0,0-.383,1.18l.65.633-.153.894a.691.691,0,0,0,1,.729l.8-.422Zm-1.881-.677.144-.842a.692.692,0,0,0-.2-.612l-.612-.6.845-.123a.692.692,0,0,0,.521-.378l.378-.766.378.766a.692.692,0,0,0,.521.378l.845.123-.612.6a.692.692,0,0,0-.2.612l.144.842-.756-.4a.692.692,0,0,0-.644,0Z" transform="translate(-91.383 -24.964)" fill="#b46063"/><path d="M312.156,29.372l-.153.894a.691.691,0,0,0,1,.729l.8-.422.8.422a.691.691,0,0,0,1-.729l-.038-.223a.364.364,0,0,0-.717.123l.026.152-.755-.4a.69.69,0,0,0-.644,0l-.756.4.145-.843a.691.691,0,0,0-.2-.611l-.612-.6.846-.123a.692.692,0,0,0,.521-.379L313.81,27l.378.765a.691.691,0,0,0,.521.38l.845.123a.364.364,0,0,0,.516.512l.042-.041a.692.692,0,0,0-.383-1.18l-.9-.13-.4-.814a.688.688,0,0,0-.621-.386h0a.687.687,0,0,0-.62.386l-.4.813-.9.13a.692.692,0,0,0-.384,1.18Z" transform="translate(-296.208 -24.958)" fill="#b46063"/></g></g></svg>