<svg xmlns="http://www.w3.org/2000/svg" width="43.814" height="42.223" viewBox="0 0 43.814 42.223"><g transform="translate(-817 -1764)"><path d="M17.865-2.435c11.8,0,24.582,3.241,24.582,15.038S39.062,39.788,27.264,39.788s-28.631-2.807-28.631-14.6S6.067-2.435,17.865-2.435Z" transform="translate(818.367 1766.435)" fill="#fff"/><g transform="translate(804.373 1776)"><path d="M41.465,10.9h1.548a.635.635,0,0,0,.635-.635V8.717a.635.635,0,0,0-.635-.635H41.465a.635.635,0,0,0-.635.635v1.548A.635.635,0,0,0,41.465,10.9Zm.015-2.167H43v1.517H41.481Zm-.015,6.285h1.548a.635.635,0,0,0,.635-.635V12.835a.635.635,0,0,0-.635-.635H41.465a.635.635,0,0,0-.635.635v1.548A.635.635,0,0,0,41.465,15.017Zm.015-2.167H43v1.517H41.481ZM37.048,10.9H38.6a.635.635,0,0,0,.635-.635V8.717a.635.635,0,0,0-.635-.635H37.048a.635.635,0,0,0-.635.635v1.548A.635.635,0,0,0,37.048,10.9Zm.015-2.167H38.58v1.517H37.063Zm-7.3,7.393H28.212a.635.635,0,0,0-.635.635v1.548a.635.635,0,0,0,.635.635H29.76a.635.635,0,0,0,.635-.635V16.759A.635.635,0,0,0,29.76,16.125Zm-.015,2.167H28.228V16.775h1.517Zm.015-10.21H28.212a.635.635,0,0,0-.635.635v1.548a.635.635,0,0,0,.635.635H29.76a.635.635,0,0,0,.635-.635V8.717A.635.635,0,0,0,29.76,8.082Zm-.015,2.167H28.228V8.732h1.517Zm7.3,4.672H38.6a.635.635,0,0,0,.635-.635V12.738A.635.635,0,0,0,38.6,12.1H37.048a.635.635,0,0,0-.635.635v1.548A.635.635,0,0,0,37.048,14.921Zm.015-2.167H38.58v1.517H37.063ZM43.971,1.486h-1.39v-.5A.99.99,0,0,0,41.592,0h-.149a.99.99,0,0,0-.989.989v.5H30.771v-.5A.99.99,0,0,0,29.782,0h-.149a.99.99,0,0,0-.989.989v.5h-1.39a1.629,1.629,0,0,0-1.628,1.628V20.568a1.627,1.627,0,0,0,1.625,1.625H43.973A1.627,1.627,0,0,0,45.6,20.568V3.113a1.63,1.63,0,0,0-1.628-1.628ZM41.1.989A.339.339,0,0,1,41.443.65h.149a.339.339,0,0,1,.338.338v.5H41.1Zm-11.81,0A.339.339,0,0,1,29.633.65h.149a.339.339,0,0,1,.338.338v.5h-.826v-.5ZM44.948,20.568a.976.976,0,0,1-.975.975H27.252a.976.976,0,0,1-.975-.975v0a1.619,1.619,0,0,0,.978.327H40.435a1.617,1.617,0,0,0,1.151-.477l3.362-3.362Zm-3.694-.739a1.391,1.391,0,0,0,.039-.328V17.33a.743.743,0,0,1,.742-.742h2.17a1.39,1.39,0,0,0,.328-.039Zm3.694-13.7H31.1a.325.325,0,1,0,0,.65H44.948V15.2a.743.743,0,0,1-.742.742h-2.17a1.394,1.394,0,0,0-1.392,1.392V19.5a.743.743,0,0,1-.742.742H27.255a.979.979,0,0,1-.977-.977V6.782H29.8a.325.325,0,1,0,0-.65H26.277V3.113a.979.979,0,0,1,.977-.977h1.39v.956a.99.99,0,0,0,.989.989.325.325,0,1,0,0-.65.339.339,0,0,1-.338-.338V2.136h11.16v.956a.99.99,0,0,0,.989.989.325.325,0,1,0,0-.65.339.339,0,0,1-.338-.338V2.136h2.866a.979.979,0,0,1,.977.977ZM29.76,12.1H28.212a.635.635,0,0,0-.635.635v1.548a.635.635,0,0,0,.635.635H29.76a.635.635,0,0,0,.635-.635V12.738A.635.635,0,0,0,29.76,12.1Zm-.015,2.167H28.228V12.754h1.517ZM32.63,10.9h1.548a.635.635,0,0,0,.635-.635V8.717a.635.635,0,0,0-.635-.635H32.63A.635.635,0,0,0,32,8.717v1.548A.635.635,0,0,0,32.63,10.9Zm.015-2.167h1.517v1.517H32.645Zm4.417,9.56a.325.325,0,0,0-.65.015.635.635,0,0,0,.635.635H38.6a.635.635,0,0,0,.635-.635V16.759a.635.635,0,0,0-.635-.635H37.048a.635.635,0,0,0-.635.635v.446a.325.325,0,0,0,.65,0v-.431H38.58v1.517ZM32.63,14.921h1.548a.635.635,0,0,0,.635-.635V12.738a.635.635,0,0,0-.635-.635H32.63a.635.635,0,0,0-.635.635v1.548A.635.635,0,0,0,32.63,14.921Zm.015-2.167h1.517v1.517H32.645Zm-.015,6.189h1.548a.635.635,0,0,0,.635-.635V16.759a.635.635,0,0,0-.635-.635H32.63a.635.635,0,0,0-.635.635v1.548A.635.635,0,0,0,32.63,18.942Zm.015-2.167h1.517v1.517H32.645Z" transform="translate(-1 -2)" fill="#b46063"/></g></g></svg>