<svg xmlns="http://www.w3.org/2000/svg" width="62.251" height="59.991" viewBox="0 0 62.251 59.991"><g transform="translate(-1.596 -839.083)"><path d="M25.958-2.435c16.762,0,34.926,4.6,34.926,21.367s-4.81,38.624-21.572,38.624S-1.367,53.568-1.367,36.806,9.2-2.435,25.958-2.435Z" transform="translate(2.963 841.518)" fill="#ede7e4"/><g transform="translate(16.155 852.349)"><g transform="translate(7.918 9.258)"><path d="M122.335,142.457a.655.655,0,1,1,.643-.527A.661.661,0,0,1,122.335,142.457Z" transform="translate(-121.681 -141.147)" fill="#b46063"/><g transform="translate(11.986 13.469)"><g transform="translate(0 0)"><path d="M305.083,347.8a.655.655,0,1,1,.648-.553A.662.662,0,0,1,305.083,347.8Z" transform="translate(-304.427 -346.494)" fill="#b46063"/></g></g></g><g transform="translate(0 0)"><path d="M34.372,4.876a.656.656,0,0,0-.566-.426L30.23,4.183,29.962.608A.656.656,0,0,0,28.845.193L25.986,3.051a2.633,2.633,0,0,0-.772,1.772q0,.018,0,.036l.039,2.19a14.941,14.941,0,1,0,2.139,2.116l2.164.035h.035a2.634,2.634,0,0,0,1.772-.772L34.22,5.568a.656.656,0,0,0,.151-.692Zm-7.458-.9,1.847-1.847.181,2.413L26.563,6.927l-.037-2.072a1.325,1.325,0,0,1,.388-.876ZM15.882,32.271A13.614,13.614,0,1,1,24.966,8.525l-1.519,1.519A11.458,11.458,0,0,0,12,7.867.656.656,0,0,0,12.441,9.1a10.148,10.148,0,0,1,10.077,1.873L21,12.5a8.009,8.009,0,1,0-1.474,13.3.656.656,0,1,0-.6-1.168,6.613,6.613,0,0,1-3.042.731,6.7,6.7,0,1,1,4.181-11.929l-1.53,1.53a4.559,4.559,0,1,0,.945.91L21,14.343a6.692,6.692,0,0,1,1.239,6.421.656.656,0,0,0,1.245.414,8,8,0,0,0-1.554-7.765l1.519-1.519a10.157,10.157,0,1,1-15.778.787.656.656,0,0,0-1.059-.774,11.469,11.469,0,1,0,17.766-.942L25.9,9.447A13.607,13.607,0,0,1,15.882,32.271Zm3.242-13.614A3.244,3.244,0,1,1,17.589,15.9L15.5,17.994a.656.656,0,1,0,.928.928L18.541,16.8A3.223,3.223,0,0,1,19.124,18.657ZM30.435,7.5a1.326,1.326,0,0,1-.876.388l-2.065-.033,1.26-1.26c.014-.014.027-.029.04-.044l1.077-1.078,2.412.181Z" transform="translate(-0.956 -0.001)" fill="#b46063"/></g></g></g></svg>