<svg xmlns="http://www.w3.org/2000/svg" width="62.251" height="59.991" viewBox="0 0 62.251 59.991"><g transform="translate(-487 0)"><g transform="translate(485.404 -839.083)"><path d="M25.958-2.435c16.762,0,34.926,4.6,34.926,21.367s-4.81,38.624-21.572,38.624S-1.367,53.568-1.367,36.806,9.2-2.435,25.958-2.435Z" transform="translate(2.963 841.518)" fill="#ede7e4"/></g><g transform="translate(506 18)"><path d="M21.5,24H2.5A2.5,2.5,0,0,1,0,21.5V2.5A2.5,2.5,0,0,1,2.5,0h19A2.5,2.5,0,0,1,24,2.5v19A2.5,2.5,0,0,1,21.5,24ZM2.5,1A1.5,1.5,0,0,0,1,2.5v19A1.5,1.5,0,0,0,2.5,23h19A1.5,1.5,0,0,0,23,21.5V2.5A1.5,1.5,0,0,0,21.5,1Z" fill="#b46063" stroke="#b46063" stroke-width="0.25"/><path d="M23.5,18H.5a.5.5,0,0,1,0-1h23a.5.5,0,0,1,0,1Z" fill="#b46063" stroke="#b46063" stroke-width="0.25"/><path d="M20.5,21H3.5a.5.5,0,0,1,0-1h17a.5.5,0,0,1,0,1Z" fill="#b46063" stroke="#b46063" stroke-width="0.25"/><path d="M8.5,22a.5.5,0,0,1-.5-.5v-2a.5.5,0,0,1,1,0v2A.5.5,0,0,1,8.5,22Z" fill="#b46063" stroke="#b46063" stroke-width="0.25"/><path d="M12,9a3,3,0,1,1,3-3A3,3,0,0,1,12,9Zm0-5a2,2,0,1,0,2,2A2,2,0,0,0,12,4Z" fill="#b46063" stroke="#b46063" stroke-width="0.25"/><path d="M16.5,15h-9a.5.5,0,0,1-.5-.5v-2A2.5,2.5,0,0,1,9.5,10h5A2.5,2.5,0,0,1,17,12.5v2A.5.5,0,0,1,16.5,15ZM8,14h8V12.5A1.5,1.5,0,0,0,14.5,11h-5A1.5,1.5,0,0,0,8,12.5Z" fill="#b46063" stroke="#b46063" stroke-width="0.25"/></g></g></svg>