<svg xmlns="http://www.w3.org/2000/svg" width="62.251" height="59.991" viewBox="0 0 62.251 59.991"><g transform="translate(-487 0)"><g transform="translate(485.404 -839.083)"><path d="M25.958-2.435c16.762,0,34.926,4.6,34.926,21.367s-4.81,38.624-21.572,38.624S-1.367,53.568-1.367,36.806,9.2-2.435,25.958-2.435Z" transform="translate(2.963 841.518)" fill="#ede7e4"/><g transform="translate(10.596 850.083)"><path d="M34.495,2H10.57a.57.57,0,0,0-.57.57V29.912a.57.57,0,0,0,.57.57H17.1L15.5,33.923a.57.57,0,0,0,.712.775l1.737-.632.632,1.737a.574.574,0,0,0,.513.376h.023a.57.57,0,0,0,.518-.33l2.244-4.831a6.3,6.3,0,0,0,1.31,0l2.244,4.831a.57.57,0,0,0,.518.33h.023a.574.574,0,0,0,.513-.376l.632-1.737,1.737.632a.57.57,0,0,0,.712-.775l-1.606-3.441h6.534a.57.57,0,0,0,.57-.57V2.57a.57.57,0,0,0-.57-.57ZM17.872,32.88l-.758.279,1.51-3.236c.16.1.325.2.49.285Zm1.3,1.242-.273-.758,1.259-2.706c.182.057.365.114.553.159Zm3.355-4.21A6.266,6.266,0,1,1,28.8,23.646,6.266,6.266,0,0,1,22.532,29.912Zm3.355,4.21-1.538-3.3c.188-.046.37-.1.553-.159l1.259,2.706Zm1.3-1.242L25.95,30.209c.165-.085.33-.182.49-.285l1.51,3.236Zm6.733-3.537h-6.5l-.051-.108a7.405,7.405,0,1,0-9.684,0l-.051.108h-6.5V3.139H33.925Z" fill="#b46063"/><path d="M32.522,34.432a1.949,1.949,0,0,1-.422-.439,1.89,1.89,0,0,1-.017-.638,1.9,1.9,0,0,0-.353-1.521,1.884,1.884,0,0,0-1.515-.353,1.918,1.918,0,0,1-.644-.017,2.087,2.087,0,0,1-.439-.422,1.874,1.874,0,0,0-1.35-.843,1.874,1.874,0,0,0-1.35.843,2.087,2.087,0,0,1-.439.422,1.918,1.918,0,0,1-.644.017,1.884,1.884,0,0,0-1.515.353,1.9,1.9,0,0,0-.353,1.521,1.89,1.89,0,0,1-.017.638,1.949,1.949,0,0,1-.422.439,1.874,1.874,0,0,0-.843,1.35,1.874,1.874,0,0,0,.843,1.35,1.949,1.949,0,0,1,.422.439,1.89,1.89,0,0,1,.017.638,1.9,1.9,0,0,0,.353,1.521,1.884,1.884,0,0,0,1.515.353,1.918,1.918,0,0,1,.644.017,2.087,2.087,0,0,1,.439.422,1.874,1.874,0,0,0,1.35.843,1.874,1.874,0,0,0,1.35-.843,2.087,2.087,0,0,1,.439-.422,1.918,1.918,0,0,1,.644-.017,1.884,1.884,0,0,0,1.515-.353,1.9,1.9,0,0,0,.353-1.521,1.89,1.89,0,0,1,.017-.638,1.949,1.949,0,0,1,.422-.439,1.874,1.874,0,0,0,.843-1.35A1.874,1.874,0,0,0,32.522,34.432Zm-.752,1.846a2.43,2.43,0,0,0-.723.854,2.555,2.555,0,0,0-.1,1.151,2.044,2.044,0,0,1-.017.638,1.9,1.9,0,0,1-.644.023,2.637,2.637,0,0,0-1.151.1,2.43,2.43,0,0,0-.854.723c-.12.137-.4.456-.5.456s-.376-.319-.5-.456a2.43,2.43,0,0,0-.854-.723,1.841,1.841,0,0,0-.723-.12q-.222,0-.427.017a2.044,2.044,0,0,1-.638-.017,1.9,1.9,0,0,1-.023-.644,2.555,2.555,0,0,0-.1-1.151,2.43,2.43,0,0,0-.723-.854c-.137-.12-.456-.4-.456-.5s.319-.376.456-.5a2.43,2.43,0,0,0,.723-.854,2.555,2.555,0,0,0,.1-1.151,2.044,2.044,0,0,1,.017-.638,1.9,1.9,0,0,1,.644-.023,2.555,2.555,0,0,0,1.151-.1,2.43,2.43,0,0,0,.854-.723c.12-.137.4-.456.5-.456s.376.319.5.456a2.43,2.43,0,0,0,.854.723,2.555,2.555,0,0,0,1.151.1,2.044,2.044,0,0,1,.638.017,1.9,1.9,0,0,1,.023.644,2.555,2.555,0,0,0,.1,1.151,2.43,2.43,0,0,0,.723.854c.137.12.456.4.456.5S31.907,36.158,31.77,36.278Z" transform="translate(-5.25 -12.136)" fill="#b46063"/><path d="M27,7h5.7V8.139H27Z" transform="translate(-7.316 -2.152)" fill="#b46063"/><path d="M16,13H34.229v1.139H16Z" transform="translate(-2.582 -4.734)" fill="#b46063"/><path d="M16,19H34.229v1.139H16Z" transform="translate(-2.582 -7.316)" fill="#b46063"/></g></g></g></svg>