<svg xmlns="http://www.w3.org/2000/svg" width="62.251" height="59.991" viewBox="0 0 62.251 59.991"><g transform="translate(-487 0)"><g transform="translate(485.404 -839.083)"><path d="M25.958-2.435c16.762,0,34.926,4.6,34.926,21.367s-4.81,38.624-21.572,38.624S-1.367,53.568-1.367,36.806,9.2-2.435,25.958-2.435Z" transform="translate(2.963 841.518)" fill="#ede7e4"/></g><g transform="translate(501 -7)"><circle cx="0.681" cy="0.681" r="0.681" transform="translate(33.49 32.4)" fill="#b46063"/><path d="M34.054,21.8a2.7,2.7,0,0,0-1.925-.8H13.75a2.724,2.724,0,0,0-2.723,2.723V34.614h-8.3A2.726,2.726,0,0,0,0,37.337V52.312a.681.681,0,0,0,1.116.523l3.895-3.246H21.1a2.726,2.726,0,0,0,2.723-2.723v-8.3H29.84l3.895,3.246a.68.68,0,0,0,1.116-.523V36.143a.681.681,0,1,0-1.361,0v3.688l-2.968-2.473a.671.671,0,0,0-.436-.158H23.821A2.726,2.726,0,0,0,21.1,34.614H12.389V23.723a1.366,1.366,0,0,1,1.361-1.361H32.129a1.366,1.366,0,0,1,1.361,1.361v6.294a.681.681,0,0,0,1.361,0V23.723A2.7,2.7,0,0,0,34.054,21.8ZM21.1,35.975a1.363,1.363,0,0,1,1.361,1.361v9.53A1.363,1.363,0,0,1,21.1,48.228H4.765a.681.681,0,0,0-.436.158L1.361,50.859V37.337a1.363,1.363,0,0,1,1.361-1.361Z" fill="#b46063"/><path d="M212.681,172.361h7.147a.681.681,0,1,0,0-1.361h-7.147a.681.681,0,1,0,0,1.361Z" transform="translate(-197.569 -139.79)" fill="#b46063"/><path d="M372.22,101.3l-2.646,3.941-1.337-1.909a.681.681,0,0,0-1.115.781l1.906,2.723a.681.681,0,0,0,.558.29h.007a.681.681,0,0,0,.559-.3l3.2-4.765a.681.681,0,0,0-1.13-.759Z" transform="translate(-342.017 -74.555)" fill="#b46063"/><path d="M212.681,122.361h4.084a.681.681,0,0,0,0-1.361h-4.084a.681.681,0,1,0,0,1.361Z" transform="translate(-197.569 -93.193)" fill="#b46063"/><circle cx="0.892" cy="0.892" r="0.892" transform="translate(21.419 27.545)" fill="#b46063"/><path d="M60.681,322.361h4.084a.681.681,0,1,0,0-1.361H60.681a.681.681,0,1,0,0,1.361Z" transform="translate(-55.916 -279.579)" fill="#b46063"/><path d="M214.765,321h-4.084a.681.681,0,1,0,0,1.361h4.084a.681.681,0,1,0,0-1.361Z" transform="translate(-195.705 -279.579)" fill="#b46063"/><ellipse cx="0.595" cy="0.892" rx="0.595" ry="0.892" transform="translate(11.305 41.229)" fill="#b46063"/><path d="M110.681,272.361h10.891a.681.681,0,1,0,0-1.361H110.681a.681.681,0,1,0,0,1.361Z" transform="translate(-102.512 -232.983)" fill="#b46063"/></g></g></svg>