<svg xmlns="http://www.w3.org/2000/svg" width="74.15" height="71.458" viewBox="0 0 74.15 71.458"><g transform="translate(-108 -76)"><g transform="translate(14 27)"><path d="M31.181-2.435c19.967,0,41.6,5.484,41.6,25.451s-5.729,46.007-25.7,46.007S-1.367,64.273-1.367,44.307,11.215-2.435,31.181-2.435Z" transform="translate(95.367 51.435)" fill="#e2d9cc"/></g><g transform="translate(125 91)"><path d="M209.513,202.669l-6.978-6.978,3.422-3.422a1.21,1.21,0,0,0-.473-2l-20.532-6.844a1.21,1.21,0,0,0-1.53,1.53l6.844,20.532a1.21,1.21,0,0,0,2,.473l3.422-3.422,6.978,6.977a1.21,1.21,0,0,0,1.711,0l5.133-5.133A1.21,1.21,0,0,0,209.513,202.669Zm-5.989,4.278-6.978-6.977a1.21,1.21,0,0,0-1.711,0l-2.893,2.893-5.46-16.379,16.379,5.46-2.893,2.893a1.21,1.21,0,0,0,0,1.711l6.978,6.978Z" transform="translate(-168.57 -168.57)" fill="#b46063"/><path d="M181.21,9.679a1.21,1.21,0,0,0,1.21-1.21V1.21a1.21,1.21,0,0,0-2.42,0V8.469A1.21,1.21,0,0,0,181.21,9.679Z" transform="translate(-165.482)" fill="#b46063"/><path d="M54.786,53.075a1.21,1.21,0,0,0-1.711,1.711l5.133,5.133a1.21,1.21,0,0,0,1.711-1.711Z" transform="translate(-48.468 -48.468)" fill="#b46063"/><path d="M58.208,243.994l-5.133,5.133a1.21,1.21,0,0,0,1.711,1.711l5.133-5.133a1.21,1.21,0,0,0-1.711-1.711Z" transform="translate(-48.468 -223.988)" fill="#b46063"/><path d="M245.7,59.919l5.133-5.133a1.21,1.21,0,0,0-1.711-1.711l-5.133,5.133a1.21,1.21,0,0,0,1.711,1.711Z" transform="translate(-223.988 -48.468)" fill="#b46063"/><path d="M9.679,181.21A1.21,1.21,0,0,0,8.469,180H1.21a1.21,1.21,0,0,0,0,2.42H8.469A1.21,1.21,0,0,0,9.679,181.21Z" transform="translate(0 -165.482)" fill="#b46063"/></g></g></svg>