<svg xmlns="http://www.w3.org/2000/svg" width="75.188" height="72.458" viewBox="0 0 75.188 72.458"><g transform="translate(-981 -76)"><path d="M31.637-2.435c20.246,0,42.185,5.561,42.185,25.807S68.012,70.023,47.766,70.023-1.367,65.207-1.367,44.961,11.391-2.435,31.637-2.435Z" transform="translate(982.367 78.435)" fill="#e2d9cc"/><g transform="translate(996.708 52.7)"><g transform="translate(0 43.8)"><path d="M45.151,44.3a1.651,1.651,0,0,0-1.2-.5H1.694a1.74,1.74,0,0,0-1.2.5,1.651,1.651,0,0,0-.5,1.2V76.841a1.691,1.691,0,0,0,.548,1.2,1.74,1.74,0,0,0,1.2.5H43.955a1.74,1.74,0,0,0,1.2-.5,1.651,1.651,0,0,0,.5-1.2V45.494A1.74,1.74,0,0,0,45.151,44.3ZM44.1,76.841c0,.05,0,.05-.05.1a.174.174,0,0,1-.1.05H1.694c-.05,0-.05,0-.1-.05a.174.174,0,0,1-.05-.1V45.494h.05c0-.05,0-.05.05-.1a.174.174,0,0,1,.1-.05H43.955c.05,0,.05,0,.1.05a.174.174,0,0,1,.05.1V76.841Z" transform="translate(0 -43.8)" fill="#b46063"/></g><g transform="translate(4.575 48.684)"><path d="M72.814,83.4a1.391,1.391,0,0,0-1-.4H38.129a1.363,1.363,0,0,0-1.4,1.4v22.276a1.183,1.183,0,0,0,.4,1,1.391,1.391,0,0,0,1,.4H71.818a1.363,1.363,0,0,0,1.4-1.4V84.4A1.391,1.391,0,0,0,72.814,83.4ZM60.356,106.572v-.05H39.624l3.488-6.03,3.488-6.03,3.488,6.03v.05l1.2,2.093a.846.846,0,0,0,.3.3.756.756,0,0,0,1.047-.3L55.372,97.9l4.984-8.671,4.984,8.622v.05l4.984,8.671Zm11.362-.8L66.685,97.1v-.05L61,87.286a.8.8,0,0,0-1.047-.3.846.846,0,0,0-.3.3L54.026,97.1l-2.043,3.538-.548-.947v-.05L47.3,92.469a.8.8,0,0,0-1.047-.3.846.846,0,0,0-.3.3l-4.136,7.226-3.488,6.08V84.5h33.39Z" transform="translate(-36.724 -83)" fill="#b46063"/></g><g transform="translate(16.794 52.023)"><g transform="translate(0 0)"><path d="M139.734,110.647a2.889,2.889,0,0,0-4.037-.05l-.05.05a2.942,2.942,0,0,0-.847,2.043,3.038,3.038,0,0,0,.847,2.043,2.943,2.943,0,0,0,2.043.847,2.823,2.823,0,0,0,2.043-.847,2.943,2.943,0,0,0,.847-2.043A2.823,2.823,0,0,0,139.734,110.647Zm-1.1,2.99a1.346,1.346,0,0,1-2.292-.947,1.276,1.276,0,0,1,.4-.947,1.339,1.339,0,1,1,1.894,1.894Z" transform="translate(-134.8 -109.8)" fill="#b46063"/></g></g></g></g></svg>