<svg xmlns="http://www.w3.org/2000/svg" width="75.188" height="72.458" viewBox="0 0 75.188 72.458"><g transform="translate(-982.206 -76)"><g transform="translate(-20.795)"><g transform="translate(22)"><path d="M31.637-2.435c20.246,0,42.185,5.561,42.185,25.807S68.012,70.023,47.766,70.023-1.367,65.207-1.367,44.961,11.391-2.435,31.637-2.435Z" transform="translate(982.367 78.435)" fill="#e2d9cc"/></g></g><g transform="translate(994.723 36.579)"><g transform="translate(11.703 55.467)"><g transform="translate(0 0)"><path d="M142.872,55.467a3.347,3.347,0,0,0-3.344,3.344v.6l-19.537,7.814a.838.838,0,0,0-.525.777v11.7a.836.836,0,0,0,.525.776L139.529,88.3V88.9a3.344,3.344,0,0,0,6.687,0V58.811A3.347,3.347,0,0,0,142.872,55.467ZM144.544,88.9a1.672,1.672,0,1,1-3.344,0v-1.17a.836.836,0,0,0-.526-.777l-19.536-7.814V68.572l19.536-7.814a.837.837,0,0,0,.526-.777v-1.17a1.672,1.672,0,1,1,3.344,0Z" transform="translate(-119.467 -55.467)" fill="#b46063"/></g></g><g transform="translate(0 67.17)"><g transform="translate(0 0)"><path d="M12.539,174.933H6.687a6.687,6.687,0,0,0,0,13.375h5.851a.836.836,0,0,0,.836-.836v-11.7A.836.836,0,0,0,12.539,174.933Zm-.836,11.7H6.687a5.015,5.015,0,0,1,0-10.031H11.7v10.031Z" transform="translate(0 -174.933)" fill="#b46063"/></g></g><g transform="translate(36.78 68.842)"><g transform="translate(0 0)"><path d="M381.582,193.715l-5.015-1.672a.836.836,0,0,0-1.1.793V201.2a.834.834,0,0,0,.836.836.821.821,0,0,0,.264-.043l5.015-1.672a.833.833,0,0,0,.572-.793v-5.015A.836.836,0,0,0,381.582,193.715Zm-1.1,5.206-3.344,1.114V194l3.344,1.114Z" transform="translate(-375.467 -192.001)" fill="#b46063"/></g></g><g transform="translate(5.015 78.872)"><g transform="translate(0 0)"><path d="M62.82,305.679l-.839-.84-2.452-9.805a.836.836,0,0,0-.811-.634H52.031a.836.836,0,0,0-.814,1.027l3.344,14.211a.837.837,0,0,0,.813.644.8.8,0,0,0,.159-.016l6.278-1.212.025-.005a2.014,2.014,0,0,0,.971-.53,2.006,2.006,0,0,0,.013-2.841Zm-1.188,1.65a.335.335,0,0,1-.155.087l-5.473,1.058-2.918-12.4h4.979l2.351,9.4a.837.837,0,0,0,.22.389l1,1a.33.33,0,0,1,.1.237A.336.336,0,0,1,61.633,307.329Z" transform="translate(-51.195 -294.4)" fill="#b46063"/></g></g><g transform="translate(45.139 73.021)"><g transform="translate(0 0)"><rect width="5.015" height="1.672" fill="#b46063"/></g></g><g transform="translate(44.707 63.111)"><g transform="translate(0 0)"><rect width="4.874" height="1.672" transform="translate(0 2.508) rotate(-30.972)" fill="#b46063"/></g></g><g transform="translate(44.715 80.663)"><g transform="translate(0 0)"><rect width="1.672" height="4.874" transform="translate(0 1.434) rotate(-59.036)" fill="#b46063"/></g></g><g transform="translate(31.765 59.646)"><g transform="translate(0 0)"><rect width="1.672" height="28.421" fill="#b46063"/></g></g><g transform="translate(8.359 70.513)"><g transform="translate(0 0)"><rect width="1.672" height="3.344" fill="#b46063"/></g></g><g transform="translate(5.015 70.513)"><g transform="translate(0 0)"><rect width="1.672" height="3.344" fill="#b46063"/></g></g></g></g></svg>