<svg xmlns="http://www.w3.org/2000/svg" width="75.188" height="72.458" viewBox="0 0 75.188 72.458"><g transform="translate(-676 -76)"><path d="M31.637-2.435c20.246,0,42.185,5.561,42.185,25.807S68.012,70.023,47.766,70.023-1.367,65.207-1.367,44.961,11.391-2.435,31.637-2.435Z" transform="translate(677.367 78.435)" fill="#e2d9cc"/><g transform="translate(688 90)"><path d="M49.861,5.729V3.364A2.367,2.367,0,0,0,47.5,1H3.364A2.367,2.367,0,0,0,1,3.364V5.729H2.576V29.371H1v2.364A2.367,2.367,0,0,0,3.364,34.1h19.7v4.743L17.1,46.3l-.09.14a2.366,2.366,0,0,0,1.058,3.173,2.382,2.382,0,0,0,1.056.249A2.35,2.35,0,0,0,21.2,48.635L23.066,46.3v1.2a2.364,2.364,0,1,0,4.729,0V46.3l1.869,2.335a2.351,2.351,0,0,0,2.073,1.225,2.388,2.388,0,0,0,1.057-.249A2.366,2.366,0,0,0,33.85,46.44l-6.055-7.6V34.1H47.5a2.367,2.367,0,0,0,2.364-2.364V29.371H48.285V5.729ZM2.576,3.364a.789.789,0,0,1,.788-.788H47.5a.789.789,0,0,1,.788.788v.788H2.576ZM19.92,47.71l-.09.14a.806.806,0,0,1-1.058.352.79.79,0,0,1-.381-.995l4.674-5.842v2.412Zm12.549-.5a.79.79,0,0,1-.379.994.806.806,0,0,1-1.059-.351l-3.236-4.071V41.366Zm-6.25.289a.788.788,0,0,1-1.576,0V34.1h1.576ZM48.285,31.735a.789.789,0,0,1-.788.788H3.364a.789.789,0,0,1-.788-.788v-.788H48.285Zm-1.576-2.364H4.152V5.729H46.709Z" fill="#b46063"/><path d="M18.033,9H7v9.457H18.033Zm-1.576,7.881H8.576v-6.3h7.881Z" transform="translate(-1.271 -1.695)" fill="#b46063"/><path d="M36.033,9H25v9.457H36.033Zm-1.576,7.881H26.576v-6.3h7.881Z" transform="translate(-5.086 -1.695)" fill="#b46063"/><path d="M54.033,9H43v9.457H54.033Zm-1.576,7.881H44.576v-6.3h7.881Z" transform="translate(-8.9 -1.695)" fill="#b46063"/><path d="M18.033,32.457V23H7v9.457ZM8.576,24.576h7.881v6.3H8.576Z" transform="translate(-1.271 -4.662)" fill="#b46063"/><path d="M36.033,23H25v9.457H36.033Zm-1.576,7.881H26.576v-6.3h7.881Z" transform="translate(-5.086 -4.662)" fill="#b46063"/><path d="M54.033,23H43v9.457H54.033Zm-1.576,7.881H44.576v-6.3h7.881Z" transform="translate(-8.9 -4.662)" fill="#b46063"/></g></g></svg>