<svg xmlns="http://www.w3.org/2000/svg" width="75.188" height="72.458" viewBox="0 0 75.188 72.458"><g transform="translate(-2691 -64)"><g transform="translate(2015 -12)"><path d="M31.637-2.435c20.246,0,42.185,5.561,42.185,25.807S68.012,70.023,47.766,70.023-1.367,65.207-1.367,44.961,11.391-2.435,31.637-2.435Z" transform="translate(677.367 78.435)" fill="#e2d9cc"/></g><g transform="translate(2060.338 985.581)"><g transform="translate(646.663 -907.581)"><path d="M330.964,42.758a.554.554,0,0,0,.783,0L335.6,38.9a2.835,2.835,0,0,0-4.009-4.009l-.24.239-.239-.239a2.834,2.834,0,1,0-4.009,4.008Zm-3.074-7.083a1.73,1.73,0,0,1,2.443,0l.631.631a.554.554,0,0,0,.783,0l.631-.631a1.727,1.727,0,0,1,2.443,2.443l-3.466,3.465-3.465-3.465a1.727,1.727,0,0,1,0-2.443Zm0,0" transform="translate(-294.918 -31.848)" fill="#b46063" stroke="#b46063" stroke-width="0.25"/><path d="M41.435,42.248a20.443,20.443,0,0,1-11.213-2.094.726.726,0,0,0-.552-.07c-.079.021-7.91,2.12-14.217.72C11.52,39.93,7.811,37.16,5.1,35.138c-.364-.271-.708-.529-1.032-.766a8.274,8.274,0,0,0-1.764-.829c-.278-.106-.659-.252-.741-.3a.285.285,0,0,1-.11-.23V31.321c.035-1.336,5.636-21.892,6.5-24.507a.563.563,0,0,1,.166-.12L19.212,1.631,22.8,6.3a.642.642,0,0,1-.039.8l-3.541,3.97a.631.631,0,0,1-.864.086l-1.432-1.32a.733.733,0,0,0-.63-.164.764.764,0,0,0-.529.4,3.973,3.973,0,0,1-2.31.533l-.36-.036a.72.72,0,0,0-.71.371.728.728,0,0,0,.06.8c.308.4.547.717.683.9l.709,12.048a5.3,5.3,0,0,1-.942,2.294A.728.728,0,0,0,13.11,28.4c.826,0,1.528-1.086,2.092-3.2a8.912,8.912,0,0,1,11.245.093c1.84,1.847,1.954,3.073,1.958,3.128a.729.729,0,0,0,1.457-.016c0-.167-.061-1.6-1.946-3.681A9.292,9.292,0,0,1,33.947,21a10.568,10.568,0,0,1,7.107,2.137.728.728,0,0,0,.922-1.128,11.881,11.881,0,0,0-8.192-2.457,10.645,10.645,0,0,0-6.972,4.2,10.354,10.354,0,0,0-11.595-.338l-.652-11.079A.724.724,0,0,0,14.459,12a4.786,4.786,0,0,0,1.991-.618l.938.865a2.088,2.088,0,0,0,2.913-.209l3.541-3.97a2.111,2.111,0,0,0,.118-2.645L20.013.284a.728.728,0,0,0-.88-.219l-11.6,5.3a1.771,1.771,0,0,0-.939.959C6.179,7.563,0,29.6,0,31.318v1.691a1.738,1.738,0,0,0,.668,1.377,4.627,4.627,0,0,0,1.119.517,7.9,7.9,0,0,1,1.425.645c.32.234.661.488,1.02.757,2.814,2.1,6.667,4.979,10.905,5.921,6.033,1.341,13.114-.28,14.632-.663a21.828,21.828,0,0,0,9.6,2.255A20.045,20.045,0,0,0,41.6,43.7a.728.728,0,1,0-.161-1.448Zm0,0" transform="translate(0 0)" fill="#b46063" stroke="#b46063" stroke-width="0.25"/><path d="M426.615,383.457a.554.554,0,0,0-1.1.061c0,.37.273,1.622,3.784,2.207a.554.554,0,1,0,.182-1.092C427.022,384.224,426.648,383.531,426.615,383.457Zm0,0" transform="translate(-387.697 -349.477)" fill="#b46063" stroke="#b46063" stroke-width="0.25"/><path d="M113.632,378.344c-7.251,1.553-10.354-3.408-10.482-3.62a.554.554,0,0,0-.949.571,9.5,9.5,0,0,0,2.8,2.739,10.739,10.739,0,0,0,5.954,1.713,13.868,13.868,0,0,0,2.907-.32.554.554,0,0,0-.232-1.083Zm0,0" transform="translate(-92.1 -339.586)" fill="#b46063" stroke="#b46063" stroke-width="0.25"/></g></g></g></svg>