<svg xmlns="http://www.w3.org/2000/svg" width="74.869" height="72.151" viewBox="0 0 74.869 72.151"><g transform="translate(-399 -76)"><g transform="translate(14 26.308)"><path d="M31.5-2.435c20.16,0,42.006,5.537,42.006,25.7S67.717,69.716,47.557,69.716-1.367,64.92-1.367,44.76,11.336-2.435,31.5-2.435Z" transform="translate(386.366 52.127)" fill="#e2d9cc"/></g><g transform="translate(420.553 97)"><path d="M30.9,8.977a11.157,11.157,0,0,0-.71-3.7A7.821,7.821,0,0,0,25.72.805a11.185,11.185,0,0,0-3.7-.71c-1.634-.078-2.153-.1-6.3-.1S11.054.018,9.425.09a11.16,11.16,0,0,0-3.7.71A7.45,7.45,0,0,0,3.013,2.565a7.517,7.517,0,0,0-1.76,2.7,11.187,11.187,0,0,0-.71,3.7c-.078,1.634-.1,2.153-.1,6.3s.018,4.664.089,6.293a11.156,11.156,0,0,0,.71,3.7,7.82,7.82,0,0,0,4.467,4.467,11.187,11.187,0,0,0,3.7.71c1.628.072,2.147.089,6.293.089s4.664-.018,6.293-.089a11.154,11.154,0,0,0,3.7-.71,7.81,7.81,0,0,0,4.468-4.467,11.194,11.194,0,0,0,.71-3.7c.072-1.628.089-2.147.089-6.293s-.006-4.664-.078-6.293Zm-2.75,12.466a8.369,8.369,0,0,1-.525,2.833,5.065,5.065,0,0,1-2.9,2.9,8.4,8.4,0,0,1-2.833.525c-1.61.072-2.093.089-6.167.089s-4.563-.018-6.167-.089a8.364,8.364,0,0,1-2.833-.525A4.7,4.7,0,0,1,4.97,26.035,4.747,4.747,0,0,1,3.83,24.282a8.4,8.4,0,0,1-.525-2.833c-.072-1.61-.089-2.094-.089-6.167s.018-4.563.089-6.167A8.364,8.364,0,0,1,3.83,6.281,4.641,4.641,0,0,1,4.976,4.527,4.74,4.74,0,0,1,6.729,3.388a8.4,8.4,0,0,1,2.833-.525c1.61-.072,2.094-.089,6.167-.089s4.563.018,6.167.089a8.369,8.369,0,0,1,2.833.525,4.7,4.7,0,0,1,1.753,1.139,4.746,4.746,0,0,1,1.139,1.754,8.4,8.4,0,0,1,.525,2.833c.072,1.61.089,2.093.089,6.167s-.018,4.551-.089,6.161Zm0,0" fill="#b46063" stroke="#e2d9cc" stroke-width="1"/><path d="M131.422,124.5a6.472,6.472,0,1,0,6.473,6.472A6.474,6.474,0,0,0,131.422,124.5Zm0,10.671a4.2,4.2,0,1,1,4.2-4.2A4.2,4.2,0,0,1,131.422,135.171Zm0,0" transform="translate(-115.703 -115.703)" fill="#b46063" stroke="#e2d9cc" stroke-width="1"/><path d="M366.789,90.771a2.169,2.169,0,1,1-2.17-2.169A2.169,2.169,0,0,1,366.789,90.771Zm0,0" transform="translate(-340.954 -83.45)" fill="#b46063" stroke="#e2d9cc" stroke-width="1"/></g></g></svg>