<svg xmlns="http://www.w3.org/2000/svg" width="74.869" height="72.151" viewBox="0 0 74.869 72.151"><g transform="translate(-401 -76.349)"><g transform="translate(16.001 26.657)"><path d="M31.5-2.435c20.16,0,42.006,5.537,42.006,25.7S67.717,69.716,47.557,69.716-1.367,64.92-1.367,44.76,11.336-2.435,31.5-2.435Z" transform="translate(386.366 52.127)" fill="#e2d9cc"/></g><g transform="translate(425 90.695)"><path d="M40.5,52.732A12.732,12.732,0,1,0,53.232,40,12.746,12.746,0,0,0,40.5,52.732ZM53.232,41.7A11.034,11.034,0,1,1,42.2,52.732,11.047,11.047,0,0,1,53.232,41.7Zm0,0" transform="translate(-37.105 -36.605)" fill="#b46063"/><path d="M95.162,99.592l3.29,3.242-.757,4.556a.849.849,0,0,0,1.228.893l4.1-2.129,4.1,2.129a.849.849,0,0,0,1.228-.893l-.757-4.556,3.29-3.242a.849.849,0,0,0-.469-1.444l-4.566-.687-2.066-4.132a.849.849,0,0,0-1.518,0L100.2,97.46l-4.566.687a.849.849,0,0,0-.469,1.444Zm5.724-.518a.849.849,0,0,0,.633-.46l1.5-3.008,1.5,3.008a.849.849,0,0,0,.633.46l3.323.5-2.395,2.359a.85.85,0,0,0-.242.744l.551,3.316-2.983-1.549a.849.849,0,0,0-.782,0l-2.983,1.549.551-3.316a.848.848,0,0,0-.242-.744l-2.395-2.359Zm0,0" transform="translate(-86.895 -84.978)" fill="#b46063"/><path d="M182.2.849A.849.849,0,1,1,181.349,0,.849.849,0,0,1,182.2.849Zm0,0" transform="translate(-165.222)" fill="#b46063"/><path d="M12.627,5.608A16.128,16.128,0,0,0,5.809,33.193L.7,42.2a.849.849,0,0,0,.911,1.25l5.807-1.206L9.454,48a.848.848,0,0,0,1.537.136l5.635-9.907,5.635,9.907a.848.848,0,0,0,.737.429l.075,0A.85.85,0,0,0,23.8,48l2.041-5.752,5.807,1.206a.849.849,0,0,0,.911-1.25l-5.114-9.012A16.129,16.129,0,0,0,20.627,5.608a.849.849,0,0,0-.42,1.645,14.429,14.429,0,1,1-7.161,0,.849.849,0,1,0-.42-1.645ZM10.434,45.684l-1.668-4.7a.849.849,0,0,0-.972-.547l-4.7.975,4.047-7.133A16.161,16.161,0,0,0,15.2,37.3ZM25.46,40.436a.849.849,0,0,0-.972.547l-1.668,4.7L18.05,37.3a16.162,16.162,0,0,0,8.06-3.019l4.047,7.133Zm0,0" transform="translate(-0.5 -5.107)" fill="#b46063"/></g></g></svg>