<svg xmlns="http://www.w3.org/2000/svg" width="82.074" height="79.095" viewBox="0 0 82.074 79.095"><g transform="translate(1401 -5197)"><g transform="translate(-1401 5197)"><path d="M34.659-2.435c22.1,0,46.048,6.07,46.048,28.171S74.366,76.66,52.266,76.66-1.367,71.4-1.367,49.3,12.559-2.435,34.659-2.435Z" transform="translate(1.367 2.435)" fill="#b46063"/><g transform="translate(25.475 15.054)"><path d="M253.095,29.9a.583.583,0,1,0,.407-1.092,3.873,3.873,0,0,1-2.339-2.691.583.583,0,0,0-1.143.228A5.055,5.055,0,0,0,253.095,29.9Z" transform="translate(-234.762 -23.482)" fill="#fff"/><path d="M169.583,432.165h.777a.583.583,0,1,0,0-1.165h-.777a.583.583,0,1,0,0,1.165Z" transform="translate(-161.619 -389.452)" fill="#fff"/><path d="M197.583,432.165H203.9a.583.583,0,1,0,0-1.165h-6.313a.583.583,0,1,0,0,1.165Z" transform="translate(-186.899 -389.452)" fill="#fff"/><path d="M93.583,40.1h.777V51.726a.648.648,0,0,0,.631.608h27a.566.566,0,0,0,.534-.608V40.1h1.554a.58.58,0,0,0,.583-.58v-3.4a.585.585,0,0,0-.583-.586h-2.524l.014-10.116a5.192,5.192,0,0,0-3.6-4.567l-4.216-1.43a2.741,2.741,0,0,0,2.367-2.7v-.661a.614.614,0,0,0-.547-.578c-.015,0-1.4-.2-1.784-1.044v-.785a2.208,2.208,0,0,0,.619.107h.073a3.229,3.229,0,0,0,2.045-.9.581.581,0,0,0-.516-.987.3.3,0,0,1-.247-.027.669.669,0,0,1-.227-.441V9.912a6.7,6.7,0,1,0-13.4,0v.823a4.757,4.757,0,0,0,.268,1.536,1.458,1.458,0,0,0-.342.949,1.475,1.475,0,0,0,.927,1.364c-.247.738-1.272.894-1.32.9a.58.58,0,0,0-.5.578v.661a2.724,2.724,0,0,0,2.7,2.722l-4.154,1.4a5.107,5.107,0,0,0-3.61,4.57l.014,10.116H93.583a.585.585,0,0,0-.583.586v3.4a.58.58,0,0,0,.583.58Zm24.281,11.072H99.022V43.4h18.842Zm3.5,0h-2.331v-8.33a.563.563,0,0,0-.534-.606H98.487a.646.646,0,0,0-.631.606v8.33H95.525V40.1H121.36Zm-1.171-26.7a3.081,3.081,0,0,1,.2,1.026V35.532h-2.331V26.156a5.641,5.641,0,0,1,1.061-3.314,3.964,3.964,0,0,1,1.07,1.622Zm-2.032-2.281a6.806,6.806,0,0,0-1.264,3.972v9.376h-4.468V32.659l3.221-6.246a.583.583,0,0,0-.146-.714l-1-.835.788-1.164a.583.583,0,0,0-.042-.709L113,20.4Zm-4.082,1.232-.834,1.229a.583.583,0,0,0,.107.774l1.049.874-1.972,3.825V21.51Zm-1.65-5.011v-.273a3.757,3.757,0,0,0,.66-.892.582.582,0,0,0-.042.152,1.426,1.426,0,0,1-.574.979c-.014.009-.024.018-.037.028S112.424,18.4,112.424,18.405Zm2.525-1.869v.188a1.571,1.571,0,0,1-.878,1.392,2.6,2.6,0,0,0,.134-.582.586.586,0,0,0-1.047-.424,5.33,5.33,0,0,0,.486-1.151A3.949,3.949,0,0,0,114.95,16.536ZM103.295,9.912a5.536,5.536,0,0,1,11.072,0v1.535c0,.023,0,.066.006.089a2.138,2.138,0,0,0,.447,1.009,1.213,1.213,0,0,1-.37.051,1,1,0,0,1-.646-.281,2.012,2.012,0,0,0-1.8-1.749,5.771,5.771,0,0,1-4.918-3.959,3.75,3.75,0,0,1-.128-.487.583.583,0,0,0-1.151.178,4.631,4.631,0,0,0,.17.666,6.859,6.859,0,0,0,.633,1.4,6.34,6.34,0,0,0-1.733.807,3.79,3.79,0,0,0-1.539,2.039,3.64,3.64,0,0,1-.046-.479Zm.256,6.972a.583.583,0,0,0-.508.649,2.58,2.58,0,0,0,.142.581,1.556,1.556,0,0,1-.861-1.391v-.2a2.837,2.837,0,0,0,1.06-.558,5.278,5.278,0,0,0,.355.924.583.583,0,0,0-.188-.008Zm.218-3.4h-.237a.291.291,0,0,1,0-.583h.237a.577.577,0,0,0,.583-.576,2.606,2.606,0,0,1,1.171-2.182,5.1,5.1,0,0,1,1.829-.759,6.922,6.922,0,0,0,4.519,2.341.837.837,0,0,1,.749.851v1.957a4.128,4.128,0,0,1-8.255,0v-.426a.629.629,0,0,0-.594-.623Zm2.828,17.87V29.9h4.468v1.457Zm2.719,1.165v3.011h-.971V32.521Zm-2.137,0v3.011H106.4V32.521Zm-.151-4.586a1.8,1.8,0,1,1,3.6,0,1.941,1.941,0,0,1-.186.8h-3.231a1.941,1.941,0,0,1-.186-.8Zm3.453,4.586h.777v3.011h-.777Zm-1.655-7.554a3.048,3.048,0,0,0-2.424,1.244V22.531a5.812,5.812,0,0,0,4.856,0v3.693a3.049,3.049,0,0,0-2.432-1.255ZM106.4,21.21V19.425a5.486,5.486,0,0,0,2.1.427,5.257,5.257,0,0,0,2.758-.766V21.21a4.637,4.637,0,0,1-4.856,0Zm-1.981,3.435-.839-1.228,1.654-1.9v8.621l-1.975-3.84,1.049-.874a.583.583,0,0,0,.11-.774Zm.507-6.178a1.435,1.435,0,0,1-.613-.66,5.36,5.36,0,0,0,.613.66ZM104.68,20.4l-2.261,2.591a.583.583,0,0,0-.044.71l.788,1.164-1,.835a.585.585,0,0,0-.151.715l3.224,6.262v2.858h-4.37V26.156a6.829,6.829,0,0,0-1.3-3.99ZM97.273,25.49a2.792,2.792,0,0,1,.115-.735,4.036,4.036,0,0,1,1.217-1.94,5.657,5.657,0,0,1,1.1,3.341v9.377H97.273ZM94.165,36.7H123.5v2.234H94.165Z" transform="translate(-93 -3.211)" fill="#fff"/></g></g></g></svg>