<svg xmlns="http://www.w3.org/2000/svg" width="104.602" height="100.805" viewBox="0 0 104.602 100.805"><g transform="translate(-126 -33)"><path d="M44.548-2.435c28.167,0,58.688,7.737,58.688,35.9s-8.082,64.9-36.249,64.9S-1.367,91.669-1.367,63.5,16.381-2.435,44.548-2.435Z" transform="translate(127.367 35.435)" fill="#ede7e4"/><g transform="translate(158.468 52.186)"><path d="M253.941,31.063a.743.743,0,1,0,.519-1.392,4.937,4.937,0,0,1-2.981-3.43.743.743,0,0,0-1.456.29A6.442,6.442,0,0,0,253.941,31.063Z" transform="translate(-230.577 -22.884)" fill="#b46063"/><path d="M169.743,432.485h.99a.743.743,0,0,0,0-1.485h-.99a.743.743,0,0,0,0,1.485Z" transform="translate(-159.593 -378.048)" fill="#b46063"/><path d="M197.743,432.485h8.046a.743.743,0,1,0,0-1.485h-8.046a.743.743,0,1,0,0,1.485Z" transform="translate(-184.127 -378.048)" fill="#b46063"/><path d="M93.743,50.221h.99V65.042a.826.826,0,0,0,.8.775h34.411a.721.721,0,0,0,.681-.775V50.221h1.98a.739.739,0,0,0,.743-.739V45.15a.746.746,0,0,0-.743-.747h-3.217l.018-12.892a6.617,6.617,0,0,0-4.594-5.821l-5.373-1.822a3.494,3.494,0,0,0,3.016-3.436V19.59a.783.783,0,0,0-.7-.737c-.019,0-1.778-.253-2.273-1.331v-1a2.814,2.814,0,0,0,.789.137h.094a4.116,4.116,0,0,0,2.607-1.151.741.741,0,0,0-.657-1.258.381.381,0,0,1-.315-.034.853.853,0,0,1-.289-.562v-1.9a8.541,8.541,0,0,0-17.082,0V12.8a6.063,6.063,0,0,0,.341,1.958,1.858,1.858,0,0,0-.436,1.209,1.88,1.88,0,0,0,1.181,1.739c-.314.941-1.622,1.139-1.682,1.147a.74.74,0,0,0-.642.736v.843a3.472,3.472,0,0,0,3.44,3.469l-5.295,1.786a6.509,6.509,0,0,0-4.6,5.824L96.96,44.4H93.743A.746.746,0,0,0,93,45.15v4.332a.739.739,0,0,0,.743.739Zm30.945,14.111H100.674v-9.9h24.013Zm4.456,0h-2.971V53.716a.718.718,0,0,0-.681-.772h-25.5a.823.823,0,0,0-.8.772V64.332H96.218V50.221h32.926ZM127.651,30.3a3.927,3.927,0,0,1,.255,1.307V44.4h-2.971V32.454a7.19,7.19,0,0,1,1.352-4.224,5.052,5.052,0,0,1,1.364,2.068Zm-2.59-2.906a8.674,8.674,0,0,0-1.611,5.063V44.4h-5.694V40.741l4.105-7.961a.743.743,0,0,0-.186-.91L120.4,30.806l1-1.483a.743.743,0,0,0-.054-.9l-2.863-3.3Zm-5.2,1.571L118.8,30.528a.743.743,0,0,0,.136.986l1.337,1.114L117.756,37.5V26.532Zm-2.1-6.386v-.348a4.788,4.788,0,0,0,.842-1.137.742.742,0,0,0-.054.193,1.817,1.817,0,0,1-.732,1.247c-.018.011-.03.023-.047.035S117.756,22.573,117.756,22.576Zm3.218-2.382v.239a2,2,0,0,1-1.12,1.774,3.312,3.312,0,0,0,.171-.742.747.747,0,0,0-1.335-.54,6.793,6.793,0,0,0,.62-1.467A5.034,5.034,0,0,0,120.974,20.194Zm-14.854-8.442a7.055,7.055,0,0,1,14.111,0v1.957c0,.029,0,.085.008.114a2.725,2.725,0,0,0,.569,1.285,1.547,1.547,0,0,1-.472.065,1.28,1.28,0,0,1-.824-.358,2.565,2.565,0,0,0-2.289-2.229,7.355,7.355,0,0,1-6.268-5.046,4.779,4.779,0,0,1-.163-.62.743.743,0,0,0-1.467.227,5.9,5.9,0,0,0,.217.848,8.741,8.741,0,0,0,.806,1.789,8.08,8.08,0,0,0-2.209,1.029,4.831,4.831,0,0,0-1.962,2.6,4.639,4.639,0,0,1-.058-.61Zm.326,8.886a.743.743,0,0,0-.647.827,3.289,3.289,0,0,0,.181.741,1.983,1.983,0,0,1-1.1-1.773v-.252a3.616,3.616,0,0,0,1.352-.711,6.727,6.727,0,0,0,.452,1.177.743.743,0,0,0-.24-.01Zm.278-4.332h-.3a.371.371,0,1,1,0-.743h.3a.736.736,0,0,0,.743-.735,3.321,3.321,0,0,1,1.493-2.781,6.5,6.5,0,0,1,2.331-.968,8.822,8.822,0,0,0,5.759,2.983A1.066,1.066,0,0,1,118,15.148v2.495a5.261,5.261,0,0,1-10.521,0V17.1a.8.8,0,0,0-.758-.794Zm3.6,22.776V37.224h5.694v1.857Zm3.466,1.485V44.4h-1.238V40.566Zm-2.723,0V44.4h-.99V40.566Zm-.192-5.845a2.3,2.3,0,1,1,4.593,0,2.474,2.474,0,0,1-.238,1.017h-4.118a2.474,2.474,0,0,1-.238-1.017Zm4.4,5.845h.99V44.4h-.99Zm-2.109-9.627a3.885,3.885,0,0,0-3.09,1.585V27.833a7.408,7.408,0,0,0,6.189,0v4.706a3.886,3.886,0,0,0-3.1-1.6Zm-3.09-4.789V23.876a6.991,6.991,0,0,0,2.674.545,6.7,6.7,0,0,0,3.515-.977V26.15a5.91,5.91,0,0,1-6.189,0Zm-2.525,4.378-1.069-1.565,2.108-2.427V37.523l-2.517-4.894,1.337-1.114a.743.743,0,0,0,.141-.987Zm.646-7.874a1.829,1.829,0,0,1-.781-.841,6.831,6.831,0,0,0,.781.841Zm-.317,2.462L105,28.418a.743.743,0,0,0-.056.9l1,1.483-1.274,1.065a.745.745,0,0,0-.192.911l4.109,7.98V44.4h-5.57V32.454a8.7,8.7,0,0,0-1.659-5.085ZM98.446,31.6a3.558,3.558,0,0,1,.147-.937,5.144,5.144,0,0,1,1.552-2.473,7.21,7.21,0,0,1,1.4,4.258V44.4H98.446ZM94.485,45.889h37.382v2.847H94.485Z" transform="translate(-93 -3.211)" fill="#b46063"/></g></g></svg>