<svg xmlns="http://www.w3.org/2000/svg" width="82.972" height="79.959" viewBox="0 0 82.972 79.959"><g transform="translate(2238 -5369)"><path d="M35.053-2.435C57.4-2.435,81.6,3.7,81.6,26.044S75.194,77.524,52.852,77.524-1.367,72.209-1.367,49.867,12.711-2.435,35.053-2.435Z" transform="translate(-2236.633 5371.435)" fill="#b46063"/><g transform="translate(-2217.72 5387.582)"><path d="M42.03,15.631H40.207V2.81A2.833,2.833,0,0,0,37.394,0H17.387a2.82,2.82,0,0,0-2.8,2.81V15.631H13.1a.661.661,0,0,0-.681.669v.067a6.824,6.824,0,0,0-1.538-.181A6.72,6.72,0,0,0,4.169,22.9v4.11a6.826,6.826,0,0,0,1.935,4.8,6.244,6.244,0,0,0,.931.818v.976H4.807A4.775,4.775,0,0,0,0,38.37v3.636a.716.716,0,0,0,.695.719H21.288a.706.706,0,0,0,.683-.719V38.37a4.765,4.765,0,0,0-4.8-4.764H14.937V32.452c.174-.195.454-.407.68-.64a6.816,6.816,0,0,0,1.925-4.8v-2.09a3.967,3.967,0,0,0,.885.112,3.556,3.556,0,0,0,.62-.055,3.407,3.407,0,0,0,2.221-1.406,3.344,3.344,0,0,0,.583-1.43H39.94a2.811,2.811,0,0,0,2.786-2.811V16.3a.673.673,0,0,0-.695-.669ZM15.979,2.81a1.428,1.428,0,0,1,1.408-1.421H37.394A1.441,1.441,0,0,1,38.817,2.81V15.631H30.876a.641.641,0,0,0-.656.669v1.329H24.576V16.3a.653.653,0,0,0-.671-.669H15.979Zm1.43,18.6a6.646,6.646,0,0,0-.418-1.247,2.126,2.126,0,0,1,2.52-.317Zm-1.225,1.279A4.594,4.594,0,0,1,15,20.784.695.695,0,0,0,13.73,20.6a6.211,6.211,0,0,1-5.217,3.024,11.592,11.592,0,0,1-2.955-.152V22.9a5.319,5.319,0,0,1,.115-1.145,8.558,8.558,0,0,0,1.381.112,8.4,8.4,0,0,0,1.189-.084,7.7,7.7,0,0,0,5.376-3.44,5.327,5.327,0,0,1,2.565,4.341Zm-5.321-5.11a5.3,5.3,0,0,1,1.453.2,6.4,6.4,0,0,1-6.168,2.65,5.33,5.33,0,0,1,4.715-2.853ZM1.39,38.37A3.385,3.385,0,0,1,4.807,35H7.553l2.695,1.693v4.646H1.39Zm19.191,0v2.965H11.637V36.7L14.406,35h2.769a3.374,3.374,0,0,1,3.406,3.374Zm-7.034-4.5-2.63,1.617L8.424,33.882v-.5a6.7,6.7,0,0,0,5.123-.1ZM14.6,30.843a5.162,5.162,0,0,1-7.495,0,5.454,5.454,0,0,1-1.551-3.832V24.887a13.08,13.08,0,0,0,2.078.167c.3,0,.617-.011.943-.037a7.848,7.848,0,0,0,5.593-2.655,6,6,0,0,0,1.98,2.073v2.576A5.451,5.451,0,0,1,14.6,30.843Zm5.528-8.076a2.074,2.074,0,0,1-1.339.845,2.144,2.144,0,0,1-1.252-.164v-.436l2.825-2.089a2.04,2.04,0,0,1-.235,1.843Zm21.2-3.435a1.42,1.42,0,0,1-1.4,1.422H21.778a3.477,3.477,0,0,0-1.36-1.967,3.519,3.519,0,0,0-4.136.172,6.292,6.292,0,0,0-2.226-1.94h9.131v1.336a.688.688,0,0,0,.718.661h6.972a.7.7,0,0,0,.733-.661V17.02h9.726Zm0,0" transform="translate(0 0)" fill="#fff"/><path d="M274.858,43.711V41.832a4.311,4.311,0,0,0-3.442-4.182,2.84,2.84,0,1,0-1.937,0A4.343,4.343,0,0,0,266,41.832v1.879a.723.723,0,0,0,.735.686h7.459a.661.661,0,0,0,.663-.686ZM269,35.038a1.469,1.469,0,1,1,1.467,1.387A1.43,1.43,0,0,1,269,35.038Zm4.47,7.97h-6.079V41.832a3.043,3.043,0,0,1,6.079,0Zm0,0" transform="translate(-242.901 -29.461)" fill="#fff"/><path d="M78.422,302.422a.7.7,0,0,0-.695.695.333.333,0,0,1-.666,0,.695.695,0,1,0-1.389,0,1.722,1.722,0,0,0,3.445,0A.7.7,0,0,0,78.422,302.422Zm0,0" transform="translate(-69.101 -276.16)" fill="#fff"/><path d="M137.586,302.422a.7.7,0,0,0-.695.695.333.333,0,1,1-.666,0,.695.695,0,1,0-1.389,0,1.722,1.722,0,0,0,3.444,0A.7.7,0,0,0,137.586,302.422Zm0,0" transform="translate(-123.127 -276.16)" fill="#fff"/></g></g></svg>