<svg xmlns="http://www.w3.org/2000/svg" width="156" height="27.305" viewBox="0 0 156 27.305"><path d="M681.091,458.594h0a1.156,1.156,0,0,0-.2-.082,1.7,1.7,0,0,0,.335-.922.267.267,0,0,0-.011-.076.838.838,0,0,0,0-.568,1.312,1.312,0,0,0-.68-.725,3.259,3.259,0,0,0-.742-.211,3.591,3.591,0,0,1-.519-.129,3.54,3.54,0,0,1-.907-.562,5.719,5.719,0,0,0-.7-.482,1.04,1.04,0,0,0-.631-.158c-.474.06-.7.531-.788.745a.924.924,0,0,0-.467-.307.876.876,0,0,0-.888.353,1.909,1.909,0,0,0-.31.748c-.032.133-.061.266-.091.4-.073.33-.142.641-.242.946s-.238.622-.37.924a4.332,4.332,0,0,0-.562,2.625,1.823,1.823,0,0,0,.184.807,1.367,1.367,0,0,0,.529.5,2.106,2.106,0,0,0,.927.265c-.052.159-.1.318-.139.475-.036.131-.073.263-.113.393a10.929,10.929,0,0,1-2.117,3.492l-.089.109a11.474,11.474,0,0,0-.846,1.125,6.031,6.031,0,0,0,.1,6.433.266.266,0,0,0,.44-.3,5.507,5.507,0,0,1-.553-4.911,1.292,1.292,0,0,0,.5.1c.047,0,.092,0,.131.009a5.336,5.336,0,0,0,.578.034,3.417,3.417,0,0,0,.552-.042,2.109,2.109,0,0,0,1.612-1.1,2.215,2.215,0,0,0,.165-1.171.266.266,0,0,0-.358-.225c-.272.1-.562.186-.842.268a9.841,9.841,0,0,0-1.081.361c-.1.04-.2.087-.3.137.1-.129.2-.256.307-.381l.09-.11a11.377,11.377,0,0,0,2.212-3.669c.043-.135.081-.273.118-.41.021-.077.042-.152.064-.227a1.444,1.444,0,0,0,.091.132,1.828,1.828,0,0,0,1.059.613,2.918,2.918,0,0,0,.643.071,4.878,4.878,0,0,0,3.134-1.5,2.977,2.977,0,0,0,.448-.512,3.4,3.4,0,0,0,.369-.882c.03-.1.076-.213.126-.341C681.5,460.051,681.9,459.036,681.091,458.594Zm-7.985,9.63a9.228,9.228,0,0,1,1.023-.34c.175-.051.354-.1.531-.16a1.431,1.431,0,0,1-.125.55,1.626,1.626,0,0,1-1.217.8,3.657,3.657,0,0,1-.988,0c-.047-.005-.1-.008-.16-.011s-.143-.008-.209-.017A2.34,2.34,0,0,1,673.106,468.224Zm7.012-9.781c-.71.029-1.424.075-2.137.128a4.949,4.949,0,0,0-.208-.661,2.933,2.933,0,0,0,.626.243,3.618,3.618,0,0,0,.915.112,5.156,5.156,0,0,0,.9-.084,2.467,2.467,0,0,0,.316-.077,1.194,1.194,0,0,1-.3.334Zm-2.234-1.111c-.135-.067-.188-.286-.193-.469,0-.143.027-.176.027-.176s.031-.019.147,0a2.372,2.372,0,0,1,1.055.524.759.759,0,0,1,.178.171.121.121,0,0,1,.022.08.2.2,0,0,1-.088.062.7.7,0,0,1-.618-.021.262.262,0,0,0-.257,0q-.092-.041-.178-.089A.26.26,0,0,0,677.884,457.332Zm-1.166-1.659c.119-.293.248-.451.384-.468a.588.588,0,0,1,.307.1,5.3,5.3,0,0,1,.636.439,3.089,3.089,0,0,0,1.644.791,2.818,2.818,0,0,1,.624.173.785.785,0,0,1,.4.417.309.309,0,0,1-.006.248c-.07.138-.262.233-.587.29a4.926,4.926,0,0,1-.539.063c.008-.015.018-.028.025-.043a.62.62,0,0,0-.055-.576,1.2,1.2,0,0,0-.3-.313,2.867,2.867,0,0,0-1.3-.628.716.716,0,0,0-.555.1.625.625,0,0,0-.225.438.263.263,0,0,0-.033-.012c-.121-.192-.246-.377-.372-.558a.263.263,0,0,0-.084-.3A.456.456,0,0,1,676.718,455.674Zm-2.755,5.984a1.4,1.4,0,0,1-.116-.578,5.278,5.278,0,0,1-.014-.664,5.2,5.2,0,0,1,.533-1.714c.137-.314.28-.638.389-.973s.183-.669.255-1c.029-.13.058-.261.089-.39a1.446,1.446,0,0,1,.213-.547.374.374,0,0,1,.339-.162c.116.029.222.165.329.314a8.661,8.661,0,0,1,1.465,2.67c-.317.027-.635.049-.949.08a1.472,1.472,0,0,0-.538.128,1.216,1.216,0,0,0-.492.509,4.367,4.367,0,0,0-.387,2.543c.007.091.016.185.028.281a1.578,1.578,0,0,1-.814-.2A.847.847,0,0,1,673.963,461.657Zm6.806-1.193c-.056.141-.106.271-.14.379a2.943,2.943,0,0,1-.305.747,2.426,2.426,0,0,1-.371.418,3.914,3.914,0,0,1-3.293,1.293,1.337,1.337,0,0,1-.758-.424,1.131,1.131,0,0,1-.186-.375.252.252,0,0,0-.071-.329c-.016-.113-.028-.227-.036-.337a3.9,3.9,0,0,1,.317-2.235.735.735,0,0,1,.272-.3,1.042,1.042,0,0,1,.35-.073c.385-.038.774-.067,1.162-.1a.26.26,0,0,0,.117.007.255.255,0,0,0,.054-.021c.745-.058,1.492-.107,2.235-.138a.269.269,0,0,0,.132.035.265.265,0,0,0,.133-.035l.007,0a.966.966,0,0,1,.448.09C681.206,459.262,681.024,459.815,680.769,460.464Z" transform="translate(-557.347 -450.423)" fill="#fff"/><g transform="translate(105.401 1.84)"><path d="M632.89,454.8c.6-3.481,2.562-9.515,8.985-10.828,4.426-.9,9.391.338,12.349,3.093a9.788,9.788,0,0,1,2.7,4.748c.036.025.069.043.105.07a.832.832,0,0,1,.092.079,3.537,3.537,0,0,1,.655.957,10.743,10.743,0,0,0-3.136-6.3,14.976,14.976,0,0,0-12.891-3.245c-4.953,1.012-8.4,5.14-9.467,11.326a14.064,14.064,0,0,0-.2,2.1c.207-.033.415-.073.624-.124A13.152,13.152,0,0,1,632.89,454.8Z" transform="translate(-632.089 -443.06)" fill="#fff"/><path d="M742.779,515.726c-.064.079-.131.158-.2.236a12,12,0,0,1-2.325,4.5c.006.384.01.694.014.947a12.614,12.614,0,0,0,2.989-5.67l-.473-.015Z" transform="translate(-717.816 -500.647)" fill="#fff"/><path d="M642.229,530.746q-.562-.131-1.125-.309a10.508,10.508,0,0,1-5.642-4.067,9.54,9.54,0,0,1-1.3-3.118c-.219.041-.42.073-.617.1a10.165,10.165,0,0,0,1.4,3.355,11.125,11.125,0,0,0,5.969,4.313q.587.186,1.171.322h0a14.958,14.958,0,0,0,3.4.394,14.2,14.2,0,0,0,7-1.815v-.718A13.806,13.806,0,0,1,642.229,530.746Z" transform="translate(-633.244 -506.617)" fill="#fff"/></g><path d="M759.39,446.723c-.008-.178-.115-.4-.576-.476a.89.89,0,0,0-.53.241l-.7.6a23.216,23.216,0,0,1-1.918,1.322c-.208.122-.564.321-1.049.59a3.88,3.88,0,0,0-.6.244,6.44,6.44,0,0,1-1.938.427,5.342,5.342,0,0,1-.6-.05,3.167,3.167,0,0,1-1.4-.62c-.58-.533-.657-.687-.667-.721a.135.135,0,0,0-.021-.043l-.218-.29a3.619,3.619,0,0,0-.314-.543,9.758,9.758,0,0,1-.511-1.477v-.038a14.962,14.962,0,0,0,.677-2.747,36.741,36.741,0,0,0,.34-4.952c-.017-1.37-.052-2.548-.1-3.5a.325.325,0,0,0-.042-.142c-.129-.236-.283-.356-.456-.356h-.182c-.225,0-.475.2-.8.646a4.635,4.635,0,0,0-.4.868,14.277,14.277,0,0,0-.6,2.485,22.822,22.822,0,0,0-.185,2.762v.97a15.12,15.12,0,0,0,.315,3.042,6.154,6.154,0,0,0,.18.912c.058.173-.269.66-.34.807a9.147,9.147,0,0,0-3.367-.823,3.261,3.261,0,0,0-1.4.263,4.163,4.163,0,0,0-.762.493,13.714,13.714,0,0,1-2.364,1.815,7.68,7.68,0,0,1-1.493.506,14.879,14.879,0,0,1-1.729.181h-1.123c-.035,0-.162-.006-.612-.041a5.9,5.9,0,0,0,.087-2.371,2.814,2.814,0,0,0-.7-1.19,1.615,1.615,0,0,0-.888-.391h-.261a.121.121,0,0,0-.029,0c-.163.036-.271.064-.332.084a1.231,1.231,0,0,0-.508.31,2.733,2.733,0,0,0-.55.607,5.2,5.2,0,0,0-.525,1.268l.015-1.773c0-.522-.271-.685-.524-.733h-.209a.134.134,0,0,0-.043.007.349.349,0,0,0-.1.052c-.156.034-.264.19-.323.463a.142.142,0,0,0,0,.03c.036,2.72.088,4.838.157,6.288l0,.205.023.135a54.8,54.8,0,0,0-.286,5.846v1.7a.851.851,0,0,0,.027.275,3.212,3.212,0,0,0,.245,1.239.144.144,0,0,0,.028.042c.222.222.393.326.538.326h.052c.114,0,.233-.078.387-.254a.13.13,0,0,0,.024-.041,5.225,5.225,0,0,0,.269-1.795v-1.931c0-.235-.028-2.09-.078-5.22l0-.213.207-1.27c.261-1.113.53-2.253.8-3.4.381-.862.67-1.043.844-1.043a.571.571,0,0,1,.422.285,4.092,4.092,0,0,1-.015,2.388l-.12-.016h-.052a2.624,2.624,0,0,0-.514.053c-.721.1-.872.467-.872.758v.078a1.545,1.545,0,0,0,.528,1c.24.281.439.412.623.412.239,0,.512-.2.867-.633a3.669,3.669,0,0,1,.285-.388.31.31,0,0,0,.049,0h.047c.453.017,1.009.035,1.676.052q.455,0,1.4-.054a8.583,8.583,0,0,0,2.3-.557,3.569,3.569,0,0,0,.906-.437,1.155,1.155,0,0,0,.49-.3.788.788,0,0,0,.167-.1,2.873,2.873,0,0,0,.423.979,2.2,2.2,0,0,1,.157.192.136.136,0,0,0,.022.039,3.957,3.957,0,0,0,.651.545.128.128,0,0,0,.033.018,3.472,3.472,0,0,0,1.064.269l.491,0a3.659,3.659,0,0,0,.69-.138,4.337,4.337,0,0,0,1.643-.829c.356-.289.432-.342.446-.35a.129.129,0,0,0,.038-.028c.235-.253.306-.319.328-.337a.138.138,0,0,0,.041-.032c.2-.235.312-.363.346-.4a4.129,4.129,0,0,1,.264-.343c.255-.377.446-.678.569-.9a2.346,2.346,0,0,0,.26.547,3.241,3.241,0,0,0,.416.674,4.863,4.863,0,0,0,.642.8,3.611,3.611,0,0,0,.44.384,4.053,4.053,0,0,0,2.6.9,6.67,6.67,0,0,0,3.155-.844,15.4,15.4,0,0,0,2.486-1.48c.75-.579,1.248-.984,1.52-1.234.141-.043.207-.235.25-.4a.128.128,0,0,0,0-.032A.526.526,0,0,0,759.39,446.723Zm-11.227-9.634v1.957a3.675,3.675,0,0,1-.011.383.132.132,0,0,0-.015.061,23.228,23.228,0,0,1-.3,3.5c-.032-.5-.053-1.045-.064-1.642,0-.829.079-1.992.233-3.452q.073-.5.152-.936C748.163,437,748.163,437.045,748.163,437.089ZM741.757,447.8a1.667,1.667,0,0,1,1.607-.767c.1,0,.31.009.6.023a8.522,8.522,0,0,1,2.126.663.135.135,0,0,0,.026.012l.015.005a7.853,7.853,0,0,1-.742.842,3.733,3.733,0,0,1-1.172.841,2.66,2.66,0,0,1-1.243.3,1.381,1.381,0,0,1-.732-.185,1.346,1.346,0,0,1-.648-1.144A1.249,1.249,0,0,1,741.757,447.8Z" transform="translate(-603.417 -434.189)" fill="#fff"/><path d="M413.192,478.905l.022,0,.026,0a12.174,12.174,0,0,0,1.285-.355c1.009-.459,1.459-.815,1.459-1.157V477.2a.287.287,0,0,0-.038-.158c-.055-.272-.452-.4-.589-.439a.137.137,0,0,0-.059,0c-.132.019-.21.029-.232.03a.133.133,0,0,0-.1.043,3.565,3.565,0,0,1-1.334.743,2.081,2.081,0,0,0-.755.193c-.193.04-.292.3-.358.53a.133.133,0,0,0,0,.036v.031C412.516,478.475,412.633,478.812,413.192,478.905Z" transform="translate(-352.664 -467.803)" fill="#fff"/><path d="M237.276,479.894a.137.137,0,0,0-.03,0,.784.784,0,0,0-.6.3.132.132,0,0,0-.022.036,4.209,4.209,0,0,1-.906,1.081c-.163.143-.439.367-.839.683a13.944,13.944,0,0,1-2.144,1.274,10.819,10.819,0,0,1-1.8.716,8.38,8.38,0,0,1-2.6.433,4.337,4.337,0,0,1-1.443-.184,4.006,4.006,0,0,1-1.191-.532.4.4,0,0,0-.253-.188,6.135,6.135,0,0,1-.692-.831,4.732,4.732,0,0,0-.288-.68,3.761,3.761,0,0,0-.439-1.058,1.583,1.583,0,0,0-1.5-.952h-.031a1.393,1.393,0,0,0-.965.377,4.441,4.441,0,0,0-.844,1.007,5.219,5.219,0,0,1-.348.539,3.908,3.908,0,0,1-.384.658.136.136,0,0,0-.025.035c-.061.121-.112.222-.156.3,0-.405.088-2.129.024-2.228,0-.14,0-.283.007-.432a.136.136,0,0,0-.006-.042c-.124-.395-.325-.6-.6-.6h-.22a.132.132,0,0,0-.045.008.7.7,0,0,0-.527.69v.636a8.2,8.2,0,0,1-.872.839,14.768,14.768,0,0,1-1.761,1.453,3.365,3.365,0,0,0-.5.283,7.871,7.871,0,0,1-1.549.744l-.668.245c-.579.1-1.1.177-1.546.218h-.189a10.629,10.629,0,0,1-1.37-.15,7.145,7.145,0,0,1-1.752-.766.126.126,0,0,0-.024-.014,3.83,3.83,0,0,1-.734-.46,7.023,7.023,0,0,1-1.528-1.495c-.237-.4-.48-.6-.742-.6-.138,0-.393.074-1.137.647a3.722,3.722,0,0,0-.544.382,2.056,2.056,0,0,0-.41.285c-.653.4-.8.5-.84.529a8.044,8.044,0,0,0-.809.529,4.431,4.431,0,0,0-.676.37,3.171,3.171,0,0,0-.688.357,3.613,3.613,0,0,1-1.235.353c-.179,0-.245-.062-.275-.117V484.4l.029-.264a7.663,7.663,0,0,1,1.013-1.776,8.822,8.822,0,0,1,2.007-2.071,2.7,2.7,0,0,1,1.338-.573.569.569,0,0,1,.357.1.134.134,0,0,0,.05.025c.073.018.233.116.473.546a.657.657,0,0,0,.638.493h0a.67.67,0,0,0,.683-.7v-.126a.14.14,0,0,0-.007-.042,1.963,1.963,0,0,0-.388-.72,1.155,1.155,0,0,0-.332-.427,1.775,1.775,0,0,0-1.352-.544c-.039,0-.165.011-.7.069a3.923,3.923,0,0,0-.832.351,3.568,3.568,0,0,0-.7.412,9.962,9.962,0,0,0-1.8,1.636l-.093.122a1.21,1.21,0,0,0-.285.164l-1.378.94c-.708.458-1.434.89-2.166,1.287a4.059,4.059,0,0,1-.807.434c-.6.323-.726.384-.753.4l-.023.008a14.237,14.237,0,0,1-2.026.748,8.435,8.435,0,0,1-1.78.339h-.647l-.331-.029a2.562,2.562,0,0,1-1.045-.384,3.683,3.683,0,0,1-1.2-3.126,15.056,15.056,0,0,1,.094-1.569v-.031a.136.136,0,0,0,0-.031c-.124-.526-.429-.636-.663-.636h-.063a.132.132,0,0,0-.033,0,1.078,1.078,0,0,0-.334.126c-.13.027-.249.189-.326.948a.821.821,0,0,0-.1.135c-.371.487-.471.6-.5.626a.133.133,0,0,0-.028.023,5.672,5.672,0,0,1-.4.41.132.132,0,0,0-.04.03c-.292.314-.377.391-.4.409a.136.136,0,0,0-.025.016,4.461,4.461,0,0,1-.6.425.145.145,0,0,0-.023.014,8.531,8.531,0,0,1-2.242,1.2,9.911,9.911,0,0,1-2.007.372h-.91a6.514,6.514,0,0,1-1.587-.306,4.268,4.268,0,0,1-1.609-1,8.247,8.247,0,0,1-.73-1.093,5.78,5.78,0,0,0-.476-.987c-.139-.341-.64-.507-1.53-.507h-.737a1.5,1.5,0,0,0,.09-.131,2.738,2.738,0,0,0,.906-1.839v-.031a1.428,1.428,0,0,0-.727-1.214,2.538,2.538,0,0,0-1.258-.3,3.011,3.011,0,0,0-1.645.463,2.077,2.077,0,0,0-1,1.741,1.578,1.578,0,0,0,.033.3,3.321,3.321,0,0,0,.674,1.487.885.885,0,0,0,.245.325,1.74,1.74,0,0,0,.1.147,6.372,6.372,0,0,1-.608.562,14.769,14.769,0,0,1-1.761,1.453,3.33,3.33,0,0,0-.5.283,7.877,7.877,0,0,1-1.549.744l-.669.245c-.579.1-1.1.177-1.546.218h-.188a10.628,10.628,0,0,1-1.37-.15,7.157,7.157,0,0,1-1.752-.766.118.118,0,0,0-.024-.014,3.837,3.837,0,0,1-.734-.46,7.026,7.026,0,0,1-1.528-1.495c-.238-.4-.48-.6-.742-.6-.138,0-.394.074-1.137.647a3.71,3.71,0,0,0-.544.382,2.045,2.045,0,0,0-.41.285c-.648.4-.8.5-.84.529a8.085,8.085,0,0,0-.81.529,4.432,4.432,0,0,0-.676.37,3.171,3.171,0,0,0-.688.357,3.615,3.615,0,0,1-1.235.353c-.179,0-.245-.062-.275-.117V484.4l.029-.264a7.668,7.668,0,0,1,1.013-1.776,8.816,8.816,0,0,1,2.007-2.071,2.7,2.7,0,0,1,1.338-.573.568.568,0,0,1,.357.1.135.135,0,0,0,.05.025c.073.018.233.116.474.546a.657.657,0,0,0,.638.493h0a.671.671,0,0,0,.683-.7v-.126a.134.134,0,0,0-.007-.042,1.938,1.938,0,0,0-.387-.72,1.166,1.166,0,0,0-.332-.427,1.775,1.775,0,0,0-1.352-.544c-.039,0-.165.011-.7.069a3.863,3.863,0,0,0-.832.351,3.563,3.563,0,0,0-.7.412,9.939,9.939,0,0,0-1.8,1.636l-.074.1a1.132,1.132,0,0,0-.392.211c-.165.185-.509.508-1.021.959-.606.5-1.13.9-1.558,1.185-.373.249-.719.469-1.027.654a11.309,11.309,0,0,1-5.521,1.584c-.6,0-.772-.011-.821-.018a.134.134,0,0,0-.058-.013,7.4,7.4,0,0,1-1.919-.489,6.143,6.143,0,0,1-1.256-.732.135.135,0,0,0-.055-.03,5.389,5.389,0,0,1-.591-.523,1.419,1.419,0,0,0-.327-.4,3.421,3.421,0,0,1-.678-1.493.133.133,0,0,0-.008-.045.7.7,0,0,0-.69-.527.921.921,0,0,0-.669.364,5.545,5.545,0,0,1-.368.437.135.135,0,0,0-.045.04,4.674,4.674,0,0,1-.3.4.132.132,0,0,0-.04.036,7.65,7.65,0,0,1-.624.8.133.133,0,0,0-.078.067,1.112,1.112,0,0,1-.075.134.131.131,0,0,0-.04.037,1.674,1.674,0,0,1-.138.177.131.131,0,0,0-.051.044,9.873,9.873,0,0,1-1.2,1.321,1.821,1.821,0,0,1-.481.3,2.429,2.429,0,0,1-.057-.3l-.126-2.012c-.091-1.039-.441-1.565-1.043-1.565h-.377a2.159,2.159,0,0,0-1.516.929,5.624,5.624,0,0,1-.368.437.137.137,0,0,0-.047.043q-.289.433-.482.687c-.018-1.625-.027-2.68-.027-3.061a1.925,1.925,0,0,0-.034-.371.133.133,0,0,0-.027-.058.808.808,0,0,0-.606-.363h-.015a.686.686,0,0,0-.361.094.709.709,0,0,0-.354.666v.439c0,.122.019,1.09.063,3.233v1.349a.661.661,0,0,0,.6.761h.188c.148,0,.386-.091.931-.82a1.462,1.462,0,0,1,.107-.17.135.135,0,0,0,.045-.041,5.512,5.512,0,0,1,.663-.881.133.133,0,0,0,.034-.04,2.792,2.792,0,0,1,.176-.3.137.137,0,0,0,.038-.038c.709-1.078.947-1.133.987-1.133h.056c0,.287.012.582.031.871a4.892,4.892,0,0,0,.44,2.5,1.206,1.206,0,0,0,.917.486h.094c.674,0,1.549-.631,2.676-1.932.535-.651.682-.814.719-.85a.132.132,0,0,0,.043-.042,6.4,6.4,0,0,1,.5-.662c.176.337.222.436.233.463a.131.131,0,0,0,.017.042,7.564,7.564,0,0,0,1.254,1.414,6.235,6.235,0,0,0,.988.669,9.456,9.456,0,0,0,1.51.674,10.489,10.489,0,0,0,2.323.381h.636a10.068,10.068,0,0,0,1.546-.188,8.315,8.315,0,0,0,1.945-.511,13.188,13.188,0,0,0,1.992-.886l.606-.32,1.082-.7c.087-.075.194-.156.317-.241a1.826,1.826,0,0,0-.034.329v.439a.924.924,0,0,0,.069.26,1.261,1.261,0,0,0,1.351.877,7.441,7.441,0,0,0,3.041-.987,20.688,20.688,0,0,0,2.46-1.482l.869-.55a.722.722,0,0,1,.045.067.135.135,0,0,0,.03.035,2.314,2.314,0,0,1,.369.432,9.445,9.445,0,0,0,2.061,1.586,10.4,10.4,0,0,0,1.032.515,8.337,8.337,0,0,0,2.46.541h.722a7.271,7.271,0,0,0,.842-.1,9.181,9.181,0,0,0,1.815-.479,12.623,12.623,0,0,0,2.629-1.488,4.012,4.012,0,0,0,.509-.412,1.582,1.582,0,0,0,.395-.3,3.814,3.814,0,0,0,.441-.408,11.566,11.566,0,0,0,.867-.808,5.027,5.027,0,0,0,.467-.5h.885a4.884,4.884,0,0,1,1.326.086,11.924,11.924,0,0,0,.73,1.394,5.775,5.775,0,0,0,1.386,1.417,6.728,6.728,0,0,0,3.777,1.058,8.463,8.463,0,0,0,3.115-.539,11.206,11.206,0,0,0,2.624-1.379,3.379,3.379,0,0,1,.441-.376.131.131,0,0,0,.064-.034c.276-.268.483-.472.641-.631a5.956,5.956,0,0,0,.434,1.786,3.933,3.933,0,0,0,1.667,1.79,4.5,4.5,0,0,0,1.717.451h.91a9.8,9.8,0,0,0,2.181-.448l1.164-.44a29.484,29.484,0,0,0,2.913-1.426,5,5,0,0,1,.749-.436l.448-.287a2.541,2.541,0,0,0-.15.771v.439a.929.929,0,0,0,.069.26,1.261,1.261,0,0,0,1.351.877,7.439,7.439,0,0,0,3.041-.987,20.737,20.737,0,0,0,2.46-1.482l.869-.55a.7.7,0,0,1,.045.067.129.129,0,0,0,.03.035,2.309,2.309,0,0,1,.368.432,9.448,9.448,0,0,0,2.061,1.586,10.4,10.4,0,0,0,1.032.515,8.337,8.337,0,0,0,2.459.541h.722a7.279,7.279,0,0,0,.842-.1,9.182,9.182,0,0,0,1.815-.479,12.614,12.614,0,0,0,2.629-1.488,4.014,4.014,0,0,0,.509-.412,1.547,1.547,0,0,0,.4-.3,3.743,3.743,0,0,0,.441-.408l.022-.019s0,.006,0,.01a.128.128,0,0,0-.008.058c.021.248.031.445.031.585v.628c0,.1.009.4.031,1.036,0,.275.212.476.629.6a.132.132,0,0,0,.037.005.847.847,0,0,0,.668-.362,9.29,9.29,0,0,0,1.079-1.648c.34-.566.4-.671.411-.7a11.775,11.775,0,0,1,.813-1.344,1.089,1.089,0,0,1,.421-.406c.011,0,.081.011.265.168a1.4,1.4,0,0,0,.251.449,10.7,10.7,0,0,0,.455,1.207,4.173,4.173,0,0,0,1.134,1.4.126.126,0,0,0,.03.021.766.766,0,0,1,.2.141,5,5,0,0,0,1.076.619,7.378,7.378,0,0,0,2.429.447,13.246,13.246,0,0,0,2.68-.384c.743-.256.908-.3.93-.307a.137.137,0,0,0,.051-.01,21.6,21.6,0,0,0,2.158-1.018c.4-.278.5-.319.49-.322a.134.134,0,0,0,.074-.022c.529-.353.648-.412.648-.417a.133.133,0,0,0,.087-.033c.389-.336.485-.409.506-.42a.135.135,0,0,0,.029-.019,3.964,3.964,0,0,1,.506-.409.133.133,0,0,0,.066-.036,11.546,11.546,0,0,0,1.049-1.146,1.55,1.55,0,0,0,.308-.58v-.22C237.912,480.185,237.7,479.994,237.276,479.894Zm-67.939-1.485a1.355,1.355,0,0,1,.681-.261h.512c.35.121.36.211.36.212,0,.133-.086.383-.493.814a7.715,7.715,0,0,1-.948.828,1.346,1.346,0,0,0-.111-.125,1.993,1.993,0,0,1-.348-.894A.608.608,0,0,1,169.337,478.409Z" transform="translate(-124 -467.922)" fill="#fff"/></svg>