<svg xmlns="http://www.w3.org/2000/svg" width="33.197" height="37.81" viewBox="0 0 33.197 37.81"><g transform="translate(-4.697 -0.431)"><g transform="translate(4.697 0.431)"><g transform="translate(0)"><path d="M61.924,26.886l-9.968-2.9v-.854h2.562a3.9,3.9,0,0,0,3.9-3.9V10.583a10.583,10.583,0,1,0-21.166,0v8.652a3.9,3.9,0,0,0,3.9,3.9h2.562v.854l-9.974,2.9a3.508,3.508,0,0,0-2.5,3.375v7.5H32.35v-7.5a2.4,2.4,0,0,1,1.706-2.308l6.092-1.771v6.641h3.134l4.553,4.985,4.553-4.985h3.133V26.184l6.086,1.769a2.4,2.4,0,0,1,1.712,2.309v7.5h1.114v-7.5A3.51,3.51,0,0,0,61.924,26.886ZM49.669,21.207l-.034.011q-.124.038-.251.071l-.028.008q-.134.034-.269.062l-.06.012q-.107.021-.215.039l-.073.012c-.089.013-.178.025-.268.034l-.047,0q-.116.011-.233.018l-.077,0c-.093,0-.186.007-.279.007s-.187,0-.279-.007l-.077,0q-.117-.007-.233-.018l-.047,0c-.09-.009-.179-.021-.268-.034l-.073-.012q-.108-.017-.215-.039l-.06-.012q-.136-.028-.269-.062l-.028-.008q-.127-.033-.251-.071L46,21.207a6.138,6.138,0,0,1-4.292-5.846V11.574a4.054,4.054,0,0,1,3.514-4.013,7.4,7.4,0,0,0,7.366,6.8h1.374v1A6.137,6.137,0,0,1,49.669,21.207Zm-8.518.812a2.788,2.788,0,0,1-2.785-2.785V10.583a9.469,9.469,0,1,1,18.938,0v8.652a2.788,2.788,0,0,1-2.785,2.785H51.956v-.708a7.238,7.238,0,0,0,3.119-5.95V13.245H52.587A6.283,6.283,0,0,1,46.312,6.97V6.413h-.557a5.167,5.167,0,0,0-5.161,5.161v3.787a7.238,7.238,0,0,0,3.119,5.95v.708Zm2.622,9.692H41.262V25.861l2.646-.769,2.754,9.783Zm4.062,3.218L44.826,24.245v-2.3h0a7.178,7.178,0,0,0,.85.325l.009,0,.137.041.048.014.114.031.073.019.1.024.092.021.084.018.106.022.075.014.116.02.068.011.124.018.062.009.13.016.059.007.133.012.057.005.135.009.056,0,.142.006.05,0,.192,0,.192,0,.05,0,.142-.006.056,0,.135-.009.057-.005.133-.012.059-.007.13-.016.062-.009.124-.018.068-.011.116-.02.075-.014.106-.022.084-.018.092-.021.1-.024.073-.019.114-.031.048-.014.138-.041.008,0a7.194,7.194,0,0,0,.851-.325v2.3Zm6.573-3.218H51.9l-2.889,3.163,2.754-9.783,2.646.769Z" transform="translate(-31.236 0)" fill="#b16063"/></g><g transform="translate(5.199 33.382)"><g transform="translate(0)"><rect width="1.114" height="4.382" fill="#b16063"/></g></g><g transform="translate(26.884 33.382)"><rect width="1.114" height="4.382" fill="#b16063"/></g></g></g></svg>