<svg xmlns="http://www.w3.org/2000/svg" width="40.79" height="38.114" viewBox="0 0 40.79 38.114"><g transform="translate(-3.139 -3.545)"><g transform="translate(3.139 3.545)"><g transform="translate(4.303 11.564)"><path d="M85.9,169.643l-4.438-6.853a1.852,1.852,0,0,0-1.56-.848H60.323a1.852,1.852,0,0,0-1.559.846l-4.451,6.854a1.862,1.862,0,0,0,.171,2.248l14.233,15.98a1.86,1.86,0,0,0,1.388.622h0a1.86,1.86,0,0,0,1.388-.622l14.235-15.981A1.863,1.863,0,0,0,85.9,169.643ZM79,163.535l-3.732,5.771-3.734-5.771Zm-5.2,6.441H66.4l3.7-5.722Zm-5.134-6.441-3.724,5.755-3.723-5.755Zm-8.92.656,3.742,5.785H56Zm-3.421,7.378H64.35l4.24,13.761ZM70.1,184.838,66.017,171.57h8.175Zm1.515.494,4.24-13.762h8.019Zm5.115-15.355,3.739-5.781,3.743,5.781Z" transform="translate(-54.014 -161.942)" fill="#b16063"/></g><g transform="translate(0 19.598)"><path d="M2.417,262.793H.8a.8.8,0,0,0,0,1.593h1.62a.8.8,0,0,0,0-1.593Z" transform="translate(0 -262.793)" fill="#b16063"/></g><g transform="translate(37.576 19.598)"><path d="M474.084,262.793h-1.62a.8.8,0,1,0,0,1.593h1.62a.8.8,0,0,0,0-1.593Z" transform="translate(-471.667 -262.793)" fill="#b16063"/></g><g transform="translate(30.82 5.744)"><path d="M390.864,89.131a.8.8,0,0,0-1.127,0l-2.646,2.646a.8.8,0,0,0,1.127,1.127l2.646-2.646A.8.8,0,0,0,390.864,89.131Z" transform="translate(-386.857 -88.897)" fill="#b16063"/></g><g transform="translate(5.765 5.73)"><path d="M76.365,91.6l-2.646-2.646a.8.8,0,0,0-1.127,1.127l2.646,2.646A.8.8,0,1,0,76.365,91.6Z" transform="translate(-72.358 -88.718)" fill="#b16063"/></g><g transform="translate(19.618)"><path d="M247.051,16.793a.8.8,0,0,0-.8.8v5.192a.8.8,0,0,0,1.593,0V17.59A.8.8,0,0,0,247.051,16.793Z" transform="translate(-246.254 -16.793)" fill="#b16063"/></g><g transform="translate(19.618 7.887)"><path d="M247.61,116.023a.8.8,0,1,0,.234.563A.8.8,0,0,0,247.61,116.023Z" transform="translate(-246.25 -115.79)" fill="#b16063"/></g></g></g></svg>