<svg xmlns="http://www.w3.org/2000/svg" width="36.722" height="36.722" viewBox="0 0 36.722 36.722"><g transform="translate(-5.141 -4.141)"><g transform="translate(5.141 4.141)"><g transform="translate(3.06 3.06)"><path d="M17.3,32.6A15.3,15.3,0,1,1,32.6,17.3,15.346,15.346,0,0,1,17.3,32.6Zm0-29.071A13.771,13.771,0,1,0,31.071,17.3,13.713,13.713,0,0,0,17.3,3.53Z" transform="translate(-2 -2)" fill="#b16063"/></g><g transform="translate(17.596)"><path d="M12.265,7.65a.723.723,0,0,1-.765-.765V.765a.765.765,0,0,1,1.53,0v6.12A.723.723,0,0,1,12.265,7.65Z" transform="translate(-11.5)" fill="#b16063"/></g><g transform="translate(17.596)"><path d="M12.265,7.65a.723.723,0,0,1-.765-.765V.765a.765.765,0,0,1,1.53,0v6.12A.723.723,0,0,1,12.265,7.65Z" transform="translate(-11.5)" fill="#b16063"/></g><g transform="translate(29.071 17.596)"><path d="M25.885,13.03h-6.12a.765.765,0,1,1,0-1.53h6.12a.765.765,0,1,1,0,1.53Z" transform="translate(-19 -11.5)" fill="#b16063"/></g><g transform="translate(17.596 29.071)"><path d="M12.265,26.65a.723.723,0,0,1-.765-.765v-6.12a.765.765,0,1,1,1.53,0v6.12A.723.723,0,0,1,12.265,26.65Z" transform="translate(-11.5 -19)" fill="#b16063"/></g><g transform="translate(0 17.596)"><path d="M6.885,13.03H.765a.765.765,0,0,1,0-1.53h6.12a.765.765,0,0,1,0,1.53Z" transform="translate(0 -11.5)" fill="#b16063"/></g><g transform="translate(15.301 10.71)"><path d="M13.06,13.12a3.06,3.06,0,1,1,3.06-3.06A3.069,3.069,0,0,1,13.06,13.12Zm0-4.59a1.446,1.446,0,0,0-1.53,1.53,1.446,1.446,0,0,0,1.53,1.53,1.446,1.446,0,0,0,1.53-1.53A1.446,1.446,0,0,0,13.06,8.53Z" transform="translate(-10 -7)" fill="#b16063"/></g><g transform="translate(12.241 18.361)"><path d="M19.476,18.12a.723.723,0,0,1-.765-.765v-1.53a2.353,2.353,0,0,0-2.3-2.3h-4.59a2.353,2.353,0,0,0-2.3,2.3v1.53a.765.765,0,0,1-1.53,0v-1.53A3.788,3.788,0,0,1,11.825,12h4.59a3.788,3.788,0,0,1,3.825,3.825v1.53A.723.723,0,0,1,19.476,18.12Z" transform="translate(-8 -12)" fill="#b16063"/></g></g></g></svg>