<svg xmlns="http://www.w3.org/2000/svg" width="42.674" height="31.661" viewBox="0 0 42.674 31.661"><g transform="translate(-1 -9)"><path d="M40.233,14.506h-.688V12.441a.688.688,0,0,0-.688-.688h-.688V9.688A.688.688,0,0,0,37.479,9H33.35a.688.688,0,0,0-.688.688v2.065h-.688a.688.688,0,0,0-.688.688v2.065H26.061l-2.547-2.554a.688.688,0,0,0-.489-.2H4.441A3.441,3.441,0,0,0,1,15.195V37.22a3.441,3.441,0,0,0,3.441,3.441H40.233a3.441,3.441,0,0,0,3.441-3.441V17.948A3.441,3.441,0,0,0,40.233,14.506Zm-6.195-4.13h2.753v1.377H34.038ZM32.661,13.13h5.506v1.377H32.661Zm-28.22,0h18.3l2.547,2.554a.688.688,0,0,0,.489.2H40.233A2.065,2.065,0,0,1,42.3,17.948v3.441H30.6a10.283,10.283,0,0,0-16.519,0H2.377V15.195A2.065,2.065,0,0,1,4.441,13.13Zm8.948,14.454a8.948,8.948,0,1,1,8.948,8.948A8.948,8.948,0,0,1,13.389,27.584Zm.688,6.195H2.377V22.766H13.21a10.262,10.262,0,0,0,.867,11.013Zm18.584-6.195a10.235,10.235,0,0,0-1.2-4.818H42.3V33.778H30.6A10.262,10.262,0,0,0,32.661,27.584Zm7.571,11.7H4.441A2.065,2.065,0,0,1,2.377,37.22V35.155H15.344a10.256,10.256,0,0,0,13.986,0H42.3V37.22A2.065,2.065,0,0,1,40.233,39.285Z" transform="translate(0)" fill="#b16063"/><path d="M28.571,40.142A7.571,7.571,0,1,0,21,32.571a7.571,7.571,0,0,0,7.571,7.571Zm0-13.766a6.195,6.195,0,1,1-6.195,6.195A6.195,6.195,0,0,1,28.571,26.377Z" transform="translate(-6.234 -4.987)" fill="#b16063"/><path d="M5.688,22.506h5.506a.688.688,0,0,0,.688-.688v-4.13A.688.688,0,0,0,11.195,17H5.688A.688.688,0,0,0,5,17.688v4.13A.688.688,0,0,0,5.688,22.506Zm.688-4.13h4.13V21.13H6.377Z" transform="translate(-1.247 -2.494)" fill="#b16063"/><path d="M9.065,33a2.065,2.065,0,1,0,2.065,2.065A2.065,2.065,0,0,0,9.065,33Zm0,2.753a.688.688,0,1,1,.688-.688A.688.688,0,0,1,9.065,35.753Z" transform="translate(-1.87 -7.481)" fill="#b16063"/><path d="M53.065,33a2.065,2.065,0,1,0,2.065,2.065A2.065,2.065,0,0,0,53.065,33Zm0,2.753a.688.688,0,1,1,.688-.688A.688.688,0,0,1,53.065,35.753Z" transform="translate(-15.585 -7.481)" fill="#b16063"/></g></svg>