<svg xmlns="http://www.w3.org/2000/svg" width="31.899" height="38.519" viewBox="0 0 31.899 38.519"><g transform="translate(-44.001)"><g transform="translate(59.198 11.435)"><g transform="translate(0)"><path d="M257.587,152H246.753a.752.752,0,1,0,0,1.5h10.834a.752.752,0,0,0,0-1.5Z" transform="translate(-246.001 -152)" fill="#b16063"/></g></g><g transform="translate(66.867 15.047)"><g transform="translate(0)"><path d="M349.225,200.221a.752.752,0,1,0,.22.532A.758.758,0,0,0,349.225,200.221Z" transform="translate(-347.941 -200.001)" fill="#b16063"/></g></g><g transform="translate(59.197 3.235)"><g transform="translate(0)"><path d="M247.275,43.221a.752.752,0,1,0,.22.532A.758.758,0,0,0,247.275,43.221Z" transform="translate(-245.991 -43.001)" fill="#b16063"/></g></g><g transform="translate(59.198 15.047)"><g transform="translate(0)"><path d="M251.258,200h-4.5a.752.752,0,1,0,0,1.5h4.5a.752.752,0,0,0,0-1.5Z" transform="translate(-246.001 -200)" fill="#b16063"/></g></g><g transform="translate(59.198 19.561)"><g transform="translate(0)"><path d="M257.587,260H246.753a.752.752,0,1,0,0,1.5h10.834a.752.752,0,0,0,0-1.5Z" transform="translate(-246.001 -260)" fill="#b16063"/></g></g><g transform="translate(66.867 23.172)"><g transform="translate(0)"><path d="M349.225,308.221a.752.752,0,1,0,.22.532A.758.758,0,0,0,349.225,308.221Z" transform="translate(-347.941 -308.001)" fill="#b16063"/></g></g><g transform="translate(59.198 23.172)"><g transform="translate(0)"><path d="M251.258,308h-4.5a.752.752,0,1,0,0,1.5h4.5a.752.752,0,0,0,0-1.5Z" transform="translate(-246.001 -308)" fill="#b16063"/></g></g><g transform="translate(59.198 27.686)"><g transform="translate(0)"><path d="M257.587,368H246.753a.752.752,0,1,0,0,1.5h10.834a.752.752,0,0,0,0-1.5Z" transform="translate(-246.001 -368)" fill="#b16063"/></g></g><g transform="translate(66.867 31.297)"><g transform="translate(0)"><path d="M349.225,416.221a.752.752,0,1,0,.22.532A.758.758,0,0,0,349.225,416.221Z" transform="translate(-347.941 -416.001)" fill="#b16063"/></g></g><g transform="translate(59.198 31.297)"><g transform="translate(0)"><path d="M251.258,416h-4.5a.752.752,0,1,0,0,1.5h4.5a.752.752,0,1,0,0-1.5Z" transform="translate(-246.001 -416)" fill="#b16063"/></g></g><g transform="translate(44.001)"><g transform="translate(0)"><path d="M72.232,2.934H66.485A4.609,4.609,0,0,0,63.3,1.655h-.659a3.009,3.009,0,0,0-5.374,0H56.6a4.609,4.609,0,0,0-3.189,1.279H47.669A3.672,3.672,0,0,0,44,6.6V34.851a3.672,3.672,0,0,0,3.668,3.668H72.231A3.672,3.672,0,0,0,75.9,34.851V6.6A3.672,3.672,0,0,0,72.232,2.934ZM56.6,3.16h1.173a.752.752,0,0,0,.725-.552,1.5,1.5,0,0,1,2.9,0,.752.752,0,0,0,.725.552H63.3a3.127,3.127,0,0,1,3.111,2.859H53.491A3.127,3.127,0,0,1,56.6,3.16ZM74.4,34.851a2.166,2.166,0,0,1-2.164,2.164H47.669a2.166,2.166,0,0,1-2.164-2.164V6.6a2.166,2.166,0,0,1,2.164-2.164H52.36a4.6,4.6,0,0,0-.384,1.843v.489a.752.752,0,0,0,.752.752H67.171a.752.752,0,0,0,.752-.752V6.282a4.6,4.6,0,0,0-.384-1.843h4.692A2.166,2.166,0,0,1,74.4,6.6Z" transform="translate(-44.001)" fill="#b16063"/></g></g><g transform="translate(48.61 11.034)"><g transform="translate(0)"><path d="M111.818,146.887a.752.752,0,0,0-1.064,0l-3.217,3.217-.991-.991a.752.752,0,1,0-1.064,1.064L107,151.7a.752.752,0,0,0,1.064,0l3.749-3.749A.752.752,0,0,0,111.818,146.887Z" transform="translate(-105.261 -146.667)" fill="#b16063"/></g></g><g transform="translate(48.966 27.686)"><g transform="translate(0)"><path d="M114.365,368h-3.611a.752.752,0,0,0-.752.752v3.611a.752.752,0,0,0,.752.752h3.611a.752.752,0,0,0,.752-.752v-3.611A.752.752,0,0,0,114.365,368Zm-.752,3.611h-2.106V369.5h2.106Z" transform="translate(-110.001 -368)" fill="#b16063"/></g></g><g transform="translate(48.966 19.561)"><g transform="translate(0)"><path d="M114.365,260h-3.611a.752.752,0,0,0-.752.752v3.611a.752.752,0,0,0,.752.752h3.611a.752.752,0,0,0,.752-.752v-3.611A.752.752,0,0,0,114.365,260Zm-.752,3.611h-2.106V261.5h2.106Z" transform="translate(-110.001 -260)" fill="#b16063"/></g></g></g></svg>