<svg xmlns="http://www.w3.org/2000/svg" width="46.452" height="51.48" viewBox="0 0 46.452 51.48"><g transform="translate(-25.008)"><g transform="translate(45.641)"><g transform="translate(0)"><path d="M242.382,0A13.627,13.627,0,0,0,230.3,7.291a.754.754,0,1,0,1.334.7,12.142,12.142,0,1,1,4.32,15.958.754.754,0,0,0-.8,1.279A13.651,13.651,0,1,0,242.382,0Z" transform="translate(-230.213)" fill="#b16063"/></g></g><g transform="translate(25.008 4.03)"><g transform="translate(0)"><path d="M50.275,71.008l-6.044-2.771a.86.86,0,0,1-.5-.78v-2a8.142,8.142,0,0,0,3.56-5.343l0,0a2.222,2.222,0,0,0,.646-.057,2.319,2.319,0,0,0,1.72-2.272V57.2a2.322,2.322,0,0,0-1.021-1.932,8.916,8.916,0,0,0,.28-2.21,9.2,9.2,0,0,0-4.447-7.81,5.2,5.2,0,0,0-10.4,0,9.2,9.2,0,0,0-4.447,7.81,8.921,8.921,0,0,0,.278,2.2,2.327,2.327,0,0,0-1.019,1.946v.569a2.319,2.319,0,0,0,1.72,2.272,2.223,2.223,0,0,0,.646.057l0,0a8.142,8.142,0,0,0,3.56,5.343v2a.86.86,0,0,1-.5.78l-6.044,2.771a5.625,5.625,0,0,0-3.25,5.422l.634,10.394a.754.754,0,0,0,.752.708h.047a.754.754,0,0,0,.707-.8l-.634-10.393a4.091,4.091,0,0,1,.759-2.62l2.056,2.467a4.442,4.442,0,0,1,1.027,2.838v7.755a.754.754,0,0,0,1.508,0V79.022a5.953,5.953,0,0,0-1.377-3.8l-2.125-2.55a4.015,4.015,0,0,1,.524-.29l3.613-1.657a7.2,7.2,0,0,0,13.523,0l3.613,1.657a4.006,4.006,0,0,1,.524.29l-2.125,2.55a5.952,5.952,0,0,0-1.377,3.8v7.755a.754.754,0,0,0,1.508,0V79.022A4.441,4.441,0,0,1,49.2,76.184l2.056-2.467a4.091,4.091,0,0,1,.759,2.62l-.634,10.393a.754.754,0,0,0,.707.8h.047a.754.754,0,0,0,.752-.708l.634-10.394A5.624,5.624,0,0,0,50.275,71.008Zm-11-29.419a3.7,3.7,0,0,1,3.6,2.867,10,10,0,0,0-7.2,0A3.7,3.7,0,0,1,39.271,41.589ZM32.734,59.83A1.5,1.5,0,0,0,31.17,58.6a.723.723,0,0,1-.219-.019.812.812,0,0,1-.559-.8v-.569a.789.789,0,0,1,.59-.791.726.726,0,0,1,.714.274,1.067,1.067,0,0,0,1.466.231,5.749,5.749,0,0,0,1.544-1.631.754.754,0,1,0-1.274-.807,4.3,4.3,0,0,1-.837.971,2.234,2.234,0,0,0-1.225-.542,7.415,7.415,0,0,1-.237-1.855,8.147,8.147,0,0,1,16.276,0,7.413,7.413,0,0,1-.236,1.852,3.583,3.583,0,0,0-.656.108l-.61-.5a1.481,1.481,0,0,0-1.031-.338,17.756,17.756,0,0,1-4.507-.341,9.825,9.825,0,0,1-5.709-3.107A.754.754,0,1,0,33.5,51.7a11.282,11.282,0,0,0,6.555,3.616,19.346,19.346,0,0,0,4.9.371l.94.773a.754.754,0,0,0,.858.069,1.776,1.776,0,0,1,.806-.108.786.786,0,0,1,.592.781v.577a.812.812,0,0,1-.559.8.725.725,0,0,1-.218.019,1.5,1.5,0,0,0-1.564,1.226,6.647,6.647,0,0,1-13.075,0Zm6.538,14.1a5.7,5.7,0,0,1-5.385-3.842l1.054-.484a2.372,2.372,0,0,0,1.38-2.151V66.23a8.147,8.147,0,0,0,5.9,0v1.227a2.372,2.372,0,0,0,1.38,2.151l1.055.484A5.689,5.689,0,0,1,39.271,73.933Z" transform="translate(-25.008 -40.081)" fill="#b16063"/></g></g><g transform="translate(52.219 6.45)"><g transform="translate(0)"><path d="M306.695,68.539a5.593,5.593,0,0,0-11.056,1.195.754.754,0,1,0,1.508,0,4.069,4.069,0,0,1,1.509-3.169,4.122,4.122,0,0,1,3.46-.82,4.084,4.084,0,0,1,.269,7.905,2.587,2.587,0,0,0-1.91,2.466v.066a.754.754,0,1,0,1.508,0v-.066a1.091,1.091,0,0,1,.828-1.019A5.584,5.584,0,0,0,306.695,68.539Z" transform="translate(-295.639 -64.145)" fill="#b16063"/></g></g><g transform="translate(57.059 20.956)"><path d="M344.534,208.419h-.008a.758.758,0,1,0,.008,0Z" transform="translate(-343.776 -208.419)" fill="#b16063"/></g></g></svg>