<svg xmlns="http://www.w3.org/2000/svg" width="33.83" height="37.593" viewBox="0 0 33.83 37.593"><g transform="translate(-25.627)"><path d="M52.455,18.463h2.622a1.076,1.076,0,0,0,1.075-1.075V14.765a1.076,1.076,0,0,0-1.075-1.075H52.455a1.076,1.076,0,0,0-1.075,1.075v2.622A1.076,1.076,0,0,0,52.455,18.463Zm.026-3.671h2.57v2.57h-2.57Zm-.026,10.646h2.622a1.076,1.076,0,0,0,1.075-1.075V21.74a1.076,1.076,0,0,0-1.075-1.075H52.455A1.076,1.076,0,0,0,51.38,21.74v2.622A1.076,1.076,0,0,0,52.455,25.438Zm.026-3.671h2.57v2.57h-2.57Zm-7.509-3.3h2.622a1.076,1.076,0,0,0,1.075-1.075V14.765a1.076,1.076,0,0,0-1.075-1.075H44.972A1.076,1.076,0,0,0,43.9,14.765v2.622A1.076,1.076,0,0,0,44.972,18.463ZM45,14.791h2.57v2.57H45ZM32.628,27.313H30.006a1.076,1.076,0,0,0-1.075,1.075v2.622a1.076,1.076,0,0,0,1.075,1.075h2.622A1.076,1.076,0,0,0,33.7,31.011V28.389A1.076,1.076,0,0,0,32.628,27.313ZM32.6,30.985h-2.57v-2.57H32.6Zm.026-17.295H30.006a1.076,1.076,0,0,0-1.075,1.075v2.622a1.076,1.076,0,0,0,1.075,1.075h2.622A1.076,1.076,0,0,0,33.7,17.387V14.765A1.076,1.076,0,0,0,32.628,13.69ZM32.6,17.361h-2.57v-2.57H32.6Zm12.37,7.913h2.622A1.076,1.076,0,0,0,48.669,24.2V21.577A1.076,1.076,0,0,0,47.594,20.5H44.972A1.076,1.076,0,0,0,43.9,21.577V24.2A1.076,1.076,0,0,0,44.972,25.274ZM45,21.6h2.57v2.57H45ZM56.7,2.516H54.345V1.675A1.676,1.676,0,0,0,52.67,0h-.253a1.676,1.676,0,0,0-1.674,1.675v.842H34.34V1.675A1.676,1.676,0,0,0,32.666,0h-.253a1.676,1.676,0,0,0-1.675,1.675v.842H28.384a2.76,2.76,0,0,0-2.757,2.757V34.839a2.756,2.756,0,0,0,2.753,2.753H56.7a2.756,2.756,0,0,0,2.753-2.753V5.274A2.76,2.76,0,0,0,56.7,2.516Zm-4.855-.842a.574.574,0,0,1,.573-.573h.253a.574.574,0,0,1,.573.573v.842h-1.4Zm-20,0a.574.574,0,0,1,.573-.573h.253a.574.574,0,0,1,.573.573v.842h-1.4V1.675ZM58.355,34.839A1.654,1.654,0,0,1,56.7,36.491H28.38a1.654,1.654,0,0,1-1.652-1.652v0a2.743,2.743,0,0,0,1.656.554H50.711a2.739,2.739,0,0,0,1.95-.808l5.695-5.695ZM52.1,33.587a2.355,2.355,0,0,0,.067-.555V29.356A1.259,1.259,0,0,1,53.422,28.1H57.1a2.355,2.355,0,0,0,.555-.067Zm6.257-23.2H34.891a.551.551,0,1,0,0,1.1H58.355V25.74A1.259,1.259,0,0,1,57.1,27H53.422a2.361,2.361,0,0,0-2.359,2.358v3.676a1.259,1.259,0,0,1-1.257,1.257H28.384a1.658,1.658,0,0,1-1.656-1.656V11.487h5.96a.551.551,0,0,0,0-1.1h-5.96V5.274a1.658,1.658,0,0,1,1.656-1.656h2.354V5.237a1.676,1.676,0,0,0,1.675,1.675.551.551,0,0,0,0-1.1.574.574,0,0,1-.573-.573V3.618h18.9V5.237a1.676,1.676,0,0,0,1.675,1.675.551.551,0,0,0,0-1.1.574.574,0,0,1-.573-.573V3.618H56.7a1.658,1.658,0,0,1,1.656,1.656ZM32.628,20.5H30.006a1.076,1.076,0,0,0-1.075,1.075V24.2a1.076,1.076,0,0,0,1.075,1.075h2.622A1.076,1.076,0,0,0,33.7,24.2V21.577A1.076,1.076,0,0,0,32.628,20.5ZM32.6,24.173h-2.57V21.6H32.6Zm4.887-5.71h2.622a1.076,1.076,0,0,0,1.075-1.075V14.765a1.076,1.076,0,0,0-1.075-1.075H37.489a1.076,1.076,0,0,0-1.075,1.075v2.622A1.076,1.076,0,0,0,37.489,18.463Zm.026-3.671h2.57v2.57h-2.57ZM45,30.985a.551.551,0,0,0-1.1.026,1.076,1.076,0,0,0,1.075,1.075h2.622a1.076,1.076,0,0,0,1.075-1.075V28.389a1.076,1.076,0,0,0-1.075-1.075H44.972A1.076,1.076,0,0,0,43.9,28.389v.756a.551.551,0,1,0,1.1,0v-.73h2.57v2.57Zm-7.509-5.71h2.622A1.076,1.076,0,0,0,41.186,24.2V21.577A1.076,1.076,0,0,0,40.111,20.5H37.489a1.076,1.076,0,0,0-1.075,1.075V24.2A1.076,1.076,0,0,0,37.489,25.274Zm.026-3.671h2.57v2.57h-2.57Zm-.026,10.483h2.622a1.076,1.076,0,0,0,1.075-1.075V28.389a1.076,1.076,0,0,0-1.075-1.075H37.489a1.076,1.076,0,0,0-1.075,1.075v2.622A1.076,1.076,0,0,0,37.489,32.086Zm.026-3.671h2.57v2.57h-2.57Z" fill="#b16063"/></g></svg>