<svg xmlns="http://www.w3.org/2000/svg" width="36.804" height="33.066" viewBox="0 0 36.804 33.066"><g transform="translate(0 0)" opacity="0.8"><path d="M246.719,100a.719.719,0,1,0,.719.719A.719.719,0,0,0,246.719,100Zm0,0" transform="translate(-228.317 -92.812)" fill="#b16063"/><path d="M80.719,261.438a.719.719,0,1,0-.719-.719A.719.719,0,0,0,80.719,261.438Zm0,0" transform="translate(-74.249 -241.311)" fill="#b16063"/><path d="M24.152,0C17.681,0,12.37,4.461,11.959,10.081,5.8,10.391,0,14.835,0,20.845A10.044,10.044,0,0,0,2.8,27.72a4.372,4.372,0,0,1-1.155,4.119.719.719,0,0,0,.508,1.227,7.929,7.929,0,0,0,5.494-2.22,16.381,16.381,0,0,0,5,.783c6.471,0,11.781-4.461,12.193-10.08a16.164,16.164,0,0,0,4.309-.767A7.929,7.929,0,0,0,34.647,23a.719.719,0,0,0,.508-1.227A4.372,4.372,0,0,1,34,17.656a10.044,10.044,0,0,0,2.8-6.874C36.8,4.536,30.561,0,24.152,0ZM12.651,30.19a14.531,14.531,0,0,1-4.925-.848.719.719,0,0,0-.8.183A6.486,6.486,0,0,1,3.7,31.439a5.813,5.813,0,0,0,.438-4.278.717.717,0,0,0-.176-.3,8.638,8.638,0,0,1-2.529-6.011c0-5.065,5.135-9.345,11.214-9.345,5.74,0,10.782,3.991,10.782,9.345,0,5.153-4.837,9.345-10.782,9.345Zm20.186-13.4a.721.721,0,0,0-.176.3,5.813,5.813,0,0,0,.438,4.278,6.484,6.484,0,0,1-3.226-1.914.719.719,0,0,0-.8-.183,14.16,14.16,0,0,1-4.235.83,10.289,10.289,0,0,0-3.884-7.17h9.376a.719.719,0,0,0,0-1.438H18.75a13.406,13.406,0,0,0-5.35-1.417c.413-4.828,5.078-8.647,10.752-8.647,6.079,0,11.214,4.279,11.214,9.345a8.638,8.638,0,0,1-2.529,6.011Zm0,0" transform="translate(0 0)" fill="#b16063"/><path d="M129.776,260h-9.057a.719.719,0,0,0,0,1.438h9.057a.719.719,0,1,0,0-1.438Zm0,0" transform="translate(-111.374 -241.311)" fill="#b16063"/><path d="M92.651,320H80.719a.719.719,0,1,0,0,1.438H92.651a.719.719,0,0,0,0-1.438Zm0,0" transform="translate(-74.249 -296.998)" fill="#b16063"/><path d="M295.776,100h-9.057a.719.719,0,0,0,0,1.438h9.057a.719.719,0,0,0,0-1.438Zm0,0" transform="translate(-265.442 -92.812)" fill="#b16063"/></g></svg>